<?xml version="1.0" encoding="UTF-8" standalone="no"?>
<!DOCTYPE svg PUBLIC "-//W3C//DTD SVG 1.1//EN"
 "http://www.w3.org/Graphics/SVG/1.1/DTD/svg11.dtd">
<!-- Generated by graphviz version 2.38.0 (20140413.2041)
 -->
<!-- Title: g Pages: 1 -->
<svg width="437pt" height="477pt"
 viewBox="0.00 0.00 436.50 477.00" xmlns="http://www.w3.org/2000/svg" xmlns:xlink="http://www.w3.org/1999/xlink">
<g id="graph0" class="graph" transform="scale(1 1) rotate(0) translate(4 473)">
<title>g</title>
<polygon fill="white" stroke="none" points="-4,4 -4,-473 432.5,-473 432.5,4 -4,4"/>
<!-- specs -->
<g id="node1" class="node"><title>specs</title>
<polygon fill="none" stroke="none" stroke-width="0" points="428.5,-34 342.5,-34 342.5,-0 428.5,-0 428.5,-34"/>
<text text-anchor="middle" x="385.5" y="-20.4" font-family="Times,serif" font-size="12.00">Xenserver specs</text>
<text text-anchor="middle" x="385.5" y="-7.4" font-family="Times,serif" font-size="12.00">master</text>
</g>
<!-- master -->
<g id="node2" class="node"><title>master</title>
<polygon fill="none" stroke="none" stroke-width="0" points="214,-27.5 175,-27.5 175,-6.5 214,-6.5 214,-27.5"/>
<text text-anchor="middle" x="194.5" y="-13.9" font-family="Times,serif" font-size="12.00">master</text>
</g>
<!-- featA -->
<g id="node3" class="node"><title>featA</title>
<polygon fill="none" stroke="none" stroke-width="0" points="53,-27.5 3.55271e-15,-27.5 3.55271e-15,-6.5 53,-6.5 53,-27.5"/>
<text text-anchor="middle" x="26.5" y="-13.9" font-family="Times,serif" font-size="12.00">feature A</text>
</g>
<!-- featB -->
<g id="node4" class="node"><title>featB</title>
<polygon fill="none" stroke="none" stroke-width="0" points="306.5,-27.5 254.5,-27.5 254.5,-6.5 306.5,-6.5 306.5,-27.5"/>
<text text-anchor="middle" x="280.5" y="-13.9" font-family="Times,serif" font-size="12.00">feature B</text>
</g>
<!-- t1 -->
<g id="node5" class="node"><title>t1</title>
<polygon fill="#c6c6c6" stroke="black" points="101.5,-464 81.5,-464 81.5,-440 101.5,-440 111.5,-452 101.5,-464"/>
<text text-anchor="middle" x="96.5" y="-455.4" font-family="Times,serif" font-size="12.00">tag</text>
<text text-anchor="middle" x="96.5" y="-442.4" font-family="Times,serif" font-size="12.00">v0.1</text>
</g>
<!-- ma1 -->
<g id="node9" class="node"><title>ma1</title>
<ellipse fill="skyblue" stroke="black" stroke-width="0" cx="194.5" cy="-452" rx="11" ry="11"/>
<text text-anchor="middle" x="194.5" y="-448.9" font-family="Times,serif" font-size="12.00">ma1</text>
</g>
<!-- t1&#45;&gt;ma1 -->
<g id="edge25" class="edge"><title>t1&#45;&gt;ma1</title>
<path fill="none" stroke="#b0b0b0" stroke-dasharray="1,5" d="M111.812,-452C135.607,-452 159.401,-452 183.195,-452"/>
</g>
<!-- t2 -->
<g id="node6" class="node"><title>t2</title>
<polygon fill="#c6c6c6" stroke="black" points="101.5,-226 81.5,-226 81.5,-202 101.5,-202 111.5,-214 101.5,-226"/>
<text text-anchor="middle" x="96.5" y="-217.4" font-family="Times,serif" font-size="12.00">tag</text>
<text text-anchor="middle" x="96.5" y="-204.4" font-family="Times,serif" font-size="12.00">v0.2</text>
</g>
<!-- ma3 -->
<g id="node11" class="node"><title>ma3</title>
<ellipse fill="skyblue" stroke="black" stroke-width="0" cx="194.5" cy="-214" rx="11" ry="11"/>
<text text-anchor="middle" x="194.5" y="-210.9" font-family="Times,serif" font-size="12.00">ma3</text>
</g>
<!-- t2&#45;&gt;ma3 -->
<g id="edge27" class="edge"><title>t2&#45;&gt;ma3</title>
<path fill="none" stroke="#b0b0b0" stroke-dasharray="1,5" d="M111.812,-214C135.607,-214 159.401,-214 183.195,-214"/>
</g>
<!-- s1 -->
<g id="node7" class="node"><title>s1</title>
<ellipse fill="#c0ff3e" stroke="black" stroke-width="0" cx="385.5" cy="-452" rx="11" ry="11"/>
<text text-anchor="middle" x="385.5" y="-448.9" font-family="Times,serif" font-size="12.00">s1</text>
</g>
<!-- s2 -->
<g id="node8" class="node"><title>s2</title>
<ellipse fill="#c0ff3e" stroke="black" stroke-width="0" cx="385.5" cy="-214" rx="11" ry="11"/>
<text text-anchor="middle" x="385.5" y="-210.9" font-family="Times,serif" font-size="12.00">s2</text>
</g>
<!-- s1&#45;&gt;s2 -->
<g id="edge1" class="edge"><title>s1&#45;&gt;s2</title>
<path fill="none" stroke="black" d="M385.5,-440.84C385.5,-403.752 385.5,-284.2 385.5,-235.224"/>
<polygon fill="black" stroke="black" points="389,-235.136 385.5,-225.136 382,-235.136 389,-235.136"/>
</g>
<!-- s2&#45;&gt;specs -->
<g id="edge2" class="edge"><title>s2&#45;&gt;specs</title>
<path fill="none" stroke="#b0b0b0" stroke-dasharray="5,2" d="M385.5,-202.844C385.5,-170.042 385.5,-73.7395 385.5,-34.2224"/>
</g>
<!-- ma1&#45;&gt;s1 -->
<g id="edge26" class="edge"><title>ma1&#45;&gt;s1</title>
<path fill="none" stroke="#b0b0b0" stroke-dasharray="1,5" d="M205.595,-452C239.352,-452 340.576,-452 374.375,-452"/>
<text text-anchor="middle" x="290" y="-458.4" font-family="Times,serif" font-size="12.00">Integ. slot#1</text>
</g>
<!-- ma2 -->
<g id="node10" class="node"><title>ma2</title>
<ellipse fill="skyblue" stroke="black" stroke-width="0" cx="194.5" cy="-323" rx="11" ry="11"/>
<text text-anchor="middle" x="194.5" y="-319.9" font-family="Times,serif" font-size="12.00">ma2</text>
</g>
<!-- ma1&#45;&gt;ma2 -->
<g id="edge3" class="edge"><title>ma1&#45;&gt;ma2</title>
<path fill="none" stroke="black" d="M194.5,-440.552C194.5,-418.982 194.5,-372.015 194.5,-344.423"/>
<polygon fill="black" stroke="black" points="198,-344.238 194.5,-334.238 191,-344.238 198,-344.238"/>
</g>
<!-- fa1 -->
<g id="node14" class="node"><title>fa1</title>
<ellipse fill="red" stroke="black" stroke-width="0" cx="26.5" cy="-405" rx="11" ry="11"/>
<text text-anchor="middle" x="26.5" y="-401.9" font-family="Times,serif" font-size="12.00">fa1</text>
</g>
<!-- ma1&#45;&gt;fa1 -->
<g id="edge17" class="edge"><title>ma1&#45;&gt;fa1</title>
<path fill="none" stroke="black" d="M183.991,-448.185C156.649,-440.861 82.9211,-421.113 46.8855,-411.46"/>
<polygon fill="black" stroke="black" points="47.5703,-408.021 37.0052,-408.814 45.7591,-414.782 47.5703,-408.021"/>
</g>
<!-- fb1 -->
<g id="node19" class="node"><title>fb1</title>
<ellipse fill="#ee0000" stroke="black" stroke-width="0" cx="280.5" cy="-364" rx="11" ry="11"/>
<text text-anchor="middle" x="280.5" y="-360.9" font-family="Times,serif" font-size="12.00">fb1</text>
</g>
<!-- ma1&#45;&gt;fb1 -->
<g id="edge24" class="edge"><title>ma1&#45;&gt;fb1</title>
<path fill="none" stroke="black" d="M202.437,-443.879C216.772,-429.21 247.195,-398.079 265.541,-379.306"/>
<polygon fill="black" stroke="black" points="268.096,-381.7 272.583,-372.101 263.09,-376.807 268.096,-381.7"/>
</g>
<!-- ma2&#45;&gt;ma3 -->
<g id="edge4" class="edge"><title>ma2&#45;&gt;ma3</title>
<path fill="none" stroke="black" d="M194.5,-311.746C194.5,-293.702 194.5,-258.01 194.5,-235.111"/>
<polygon fill="black" stroke="black" points="198,-235.031 194.5,-225.031 191,-235.031 198,-235.031"/>
</g>
<!-- fb3 -->
<g id="node21" class="node"><title>fb3</title>
<ellipse fill="#ee0000" stroke="black" stroke-width="0" cx="280.5" cy="-261" rx="11" ry="11"/>
<text text-anchor="middle" x="280.5" y="-257.9" font-family="Times,serif" font-size="12.00">fb3</text>
</g>
<!-- ma2&#45;&gt;fb3 -->
<g id="edge22" class="edge"><title>ma2&#45;&gt;fb3</title>
<path fill="none" stroke="black" d="M203.06,-316.028C217.026,-306.284 244.977,-286.783 263.201,-274.069"/>
<polygon fill="black" stroke="black" points="265.52,-276.719 271.718,-268.127 261.514,-270.978 265.52,-276.719"/>
</g>
<!-- ma3&#45;&gt;s2 -->
<g id="edge28" class="edge"><title>ma3&#45;&gt;s2</title>
<path fill="none" stroke="#b0b0b0" stroke-dasharray="1,5" d="M205.595,-214C239.352,-214 340.576,-214 374.375,-214"/>
<text text-anchor="middle" x="290" y="-220.4" font-family="Times,serif" font-size="12.00">Integ. slot#2</text>
</g>
<!-- ma4 -->
<g id="node12" class="node"><title>ma4</title>
<ellipse fill="skyblue" stroke="black" stroke-width="0" cx="194.5" cy="-105" rx="11" ry="11"/>
<text text-anchor="middle" x="194.5" y="-101.9" font-family="Times,serif" font-size="12.00">ma4</text>
</g>
<!-- ma3&#45;&gt;ma4 -->
<g id="edge5" class="edge"><title>ma3&#45;&gt;ma4</title>
<path fill="none" stroke="black" d="M194.5,-202.746C194.5,-184.702 194.5,-149.01 194.5,-126.111"/>
<polygon fill="black" stroke="black" points="198,-126.031 194.5,-116.031 191,-126.031 198,-126.031"/>
</g>
<!-- fa4 -->
<g id="node17" class="node"><title>fa4</title>
<ellipse fill="red" stroke="black" stroke-width="0" cx="26.5" cy="-146" rx="11" ry="11"/>
<text text-anchor="middle" x="26.5" y="-142.9" font-family="Times,serif" font-size="12.00">fa4</text>
</g>
<!-- ma3&#45;&gt;fa4 -->
<g id="edge23" class="edge"><title>ma3&#45;&gt;fa4</title>
<path fill="none" stroke="black" d="M184.494,-209.069C157.362,-198.41 82.0259,-168.814 46.0764,-154.691"/>
<polygon fill="black" stroke="black" points="47.2534,-151.393 36.666,-150.994 44.6937,-157.908 47.2534,-151.393"/>
</g>
<!-- ma5 -->
<g id="node13" class="node"><title>ma5</title>
<ellipse fill="skyblue" stroke="black" stroke-width="0" cx="194.5" cy="-64" rx="11" ry="11"/>
<text text-anchor="middle" x="194.5" y="-60.9" font-family="Times,serif" font-size="12.00">ma5</text>
</g>
<!-- ma4&#45;&gt;ma5 -->
<g id="edge6" class="edge"><title>ma4&#45;&gt;ma5</title>
<path fill="none" stroke="black" d="M194.5,-93.7532C194.5,-91.1353 194.5,-88.2277 194.5,-85.296"/>
<polygon fill="black" stroke="black" points="198,-85.0434 194.5,-75.0435 191,-85.0435 198,-85.0434"/>
</g>
<!-- ma5&#45;&gt;master -->
<g id="edge7" class="edge"><title>ma5&#45;&gt;master</title>
<path fill="none" stroke="#b0b0b0" stroke-dasharray="5,2" d="M194.5,-52.563C194.5,-45.0854 194.5,-35.0842 194.5,-27.7643"/>
</g>
<!-- fa2 -->
<g id="node15" class="node"><title>fa2</title>
<ellipse fill="red" stroke="black" stroke-width="0" cx="26.5" cy="-364" rx="11" ry="11"/>
<text text-anchor="middle" x="26.5" y="-360.9" font-family="Times,serif" font-size="12.00">fa2</text>
</g>
<!-- fa1&#45;&gt;fa2 -->
<g id="edge8" class="edge"><title>fa1&#45;&gt;fa2</title>
<path fill="none" stroke="black" d="M26.5,-393.753C26.5,-391.135 26.5,-388.228 26.5,-385.296"/>
<polygon fill="black" stroke="black" points="30.0001,-385.043 26.5,-375.043 23.0001,-385.044 30.0001,-385.043"/>
</g>
<!-- fa2&#45;&gt;ma2 -->
<g id="edge18" class="edge"><title>fa2&#45;&gt;ma2</title>
<path fill="none" stroke="black" d="M37.0092,-360.56C64.3512,-354.213 138.079,-337.098 174.115,-328.732"/>
<polygon fill="black" stroke="black" points="175.045,-332.109 183.995,-326.439 173.462,-325.291 175.045,-332.109"/>
</g>
<!-- fa3 -->
<g id="node16" class="node"><title>fa3</title>
<ellipse fill="red" stroke="black" stroke-width="0" cx="26.5" cy="-292" rx="11" ry="11"/>
<text text-anchor="middle" x="26.5" y="-288.9" font-family="Times,serif" font-size="12.00">fa3</text>
</g>
<!-- fa2&#45;&gt;fa3 -->
<g id="edge9" class="edge"><title>fa2&#45;&gt;fa3</title>
<path fill="none" stroke="black" d="M26.5,-352.75C26.5,-342.349 26.5,-326.607 26.5,-313.753"/>
<polygon fill="black" stroke="black" points="30.0001,-313.409 26.5,-303.409 23.0001,-313.409 30.0001,-313.409"/>
</g>
<!-- fa3&#45;&gt;fa4 -->
<g id="edge10" class="edge"><title>fa3&#45;&gt;fa4</title>
<path fill="none" stroke="black" d="M26.5,-280.544C26.5,-256.116 26.5,-198.593 26.5,-167.255"/>
<polygon fill="black" stroke="black" points="30.0001,-167.004 26.5,-157.004 23.0001,-167.004 30.0001,-167.004"/>
</g>
<!-- fa4&#45;&gt;ma4 -->
<g id="edge19" class="edge"><title>fa4&#45;&gt;ma4</title>
<path fill="none" stroke="black" d="M37.0092,-142.56C64.3512,-136.213 138.079,-119.098 174.115,-110.732"/>
<polygon fill="black" stroke="black" points="175.045,-114.109 183.995,-108.439 173.462,-107.291 175.045,-114.109"/>
</g>
<!-- fa5 -->
<g id="node18" class="node"><title>fa5</title>
<ellipse fill="red" stroke="black" stroke-width="0" cx="26.5" cy="-105" rx="11" ry="11"/>
<text text-anchor="middle" x="26.5" y="-101.9" font-family="Times,serif" font-size="12.00">fa5</text>
</g>
<!-- fa4&#45;&gt;fa5 -->
<g id="edge11" class="edge"><title>fa4&#45;&gt;fa5</title>
<path fill="none" stroke="black" d="M26.5,-134.753C26.5,-132.135 26.5,-129.228 26.5,-126.296"/>
<polygon fill="black" stroke="black" points="30.0001,-126.043 26.5,-116.043 23.0001,-126.044 30.0001,-126.043"/>
</g>
<!-- fa5&#45;&gt;featA -->
<g id="edge12" class="edge"><title>fa5&#45;&gt;featA</title>
<path fill="none" stroke="#b0b0b0" stroke-dasharray="5,2" d="M26.5,-93.8547C26.5,-76.7426 26.5,-44.2268 26.5,-27.507"/>
</g>
<!-- fa5&#45;&gt;ma5 -->
<g id="edge20" class="edge"><title>fa5&#45;&gt;ma5</title>
<path fill="none" stroke="black" d="M37.0092,-101.56C64.3512,-95.2131 138.079,-78.0978 174.115,-69.7323"/>
<polygon fill="black" stroke="black" points="175.045,-73.1094 183.995,-67.4387 173.462,-66.2907 175.045,-73.1094"/>
</g>
<!-- fb2 -->
<g id="node20" class="node"><title>fb2</title>
<ellipse fill="#ee0000" stroke="black" stroke-width="0" cx="280.5" cy="-323" rx="11" ry="11"/>
<text text-anchor="middle" x="280.5" y="-319.9" font-family="Times,serif" font-size="12.00">fb2</text>
</g>
<!-- fb1&#45;&gt;fb2 -->
<g id="edge13" class="edge"><title>fb1&#45;&gt;fb2</title>
<path fill="none" stroke="black" d="M280.5,-352.753C280.5,-350.135 280.5,-347.228 280.5,-344.296"/>
<polygon fill="black" stroke="black" points="284,-344.043 280.5,-334.043 277,-344.044 284,-344.043"/>
</g>
<!-- fb2&#45;&gt;fb3 -->
<g id="edge14" class="edge"><title>fb2&#45;&gt;fb3</title>
<path fill="none" stroke="black" d="M280.5,-311.822C280.5,-303.757 280.5,-292.233 280.5,-282.299"/>
<polygon fill="black" stroke="black" points="284,-282.028 280.5,-272.028 277,-282.028 284,-282.028"/>
</g>
<!-- fb3&#45;&gt;ma3 -->
<g id="edge21" class="edge"><title>fb3&#45;&gt;ma3</title>
<path fill="none" stroke="black" d="M270.968,-255.012C256.946,-247.675 230.499,-233.837 212.687,-224.516"/>
<polygon fill="black" stroke="black" points="214.296,-221.408 203.813,-219.873 211.051,-227.611 214.296,-221.408"/>
</g>
<!-- fb4 -->
<g id="node22" class="node"><title>fb4</title>
<ellipse fill="#ee0000" stroke="black" stroke-width="0" cx="280.5" cy="-177" rx="11" ry="11"/>
<text text-anchor="middle" x="280.5" y="-173.9" font-family="Times,serif" font-size="12.00">fb4</text>
</g>
<!-- fb3&#45;&gt;fb4 -->
<g id="edge15" class="edge"><title>fb3&#45;&gt;fb4</title>
<path fill="none" stroke="black" d="M280.5,-249.671C280.5,-236.573 280.5,-214.722 280.5,-198.395"/>
<polygon fill="black" stroke="black" points="284,-198.149 280.5,-188.149 277,-198.149 284,-198.149"/>
</g>
<!-- fb4&#45;&gt;featB -->
<g id="edge16" class="edge"><title>fb4&#45;&gt;featB</title>
<path fill="none" stroke="#b0b0b0" stroke-dasharray="5,2" d="M280.5,-165.749C280.5,-136.158 280.5,-56.4549 280.5,-27.6064"/>
</g>
</g>
</svg>
