<?xml version="1.0" encoding="UTF-8" standalone="no"?>
<!DOCTYPE svg PUBLIC "-//W3C//DTD SVG 1.1//EN"
 "http://www.w3.org/Graphics/SVG/1.1/DTD/svg11.dtd">
<!-- Generated by graphviz version 2.38.0 (20140413.2041)
 -->
<!-- Title: g Pages: 1 -->
<svg width="326pt" height="494pt"
 viewBox="0.00 0.00 325.50 494.00" xmlns="http://www.w3.org/2000/svg" xmlns:xlink="http://www.w3.org/1999/xlink">
<g id="graph0" class="graph" transform="scale(1 1) rotate(0) translate(4 490)">
<title>g</title>
<polygon fill="white" stroke="none" points="-4,4 -4,-490 321.5,-490 321.5,4 -4,4"/>
<!-- master -->
<g id="node1" class="node"><title>master</title>
<polygon fill="none" stroke="none" stroke-width="0" points="317.5,-34 275.5,-34 275.5,-0 317.5,-0 317.5,-34"/>
<text text-anchor="middle" x="296.5" y="-20.4" font-family="Times,serif" font-size="12.00">trunk</text>
<text text-anchor="middle" x="296.5" y="-7.4" font-family="Times,serif" font-size="12.00">/master</text>
</g>
<!-- staging -->
<g id="node2" class="node"><title>staging</title>
<polygon fill="none" stroke="none" stroke-width="0" points="151.5,-34 89.5,-34 89.5,-0 151.5,-0 151.5,-34"/>
<text text-anchor="middle" x="120.5" y="-20.4" font-family="Times,serif" font-size="12.00">trunk&#45;ring0</text>
<text text-anchor="middle" x="120.5" y="-7.4" font-family="Times,serif" font-size="12.00">/master</text>
</g>
<!-- featA -->
<g id="node3" class="node"><title>featA</title>
<polygon fill="none" stroke="none" stroke-width="0" points="53,-27.5 3.55271e-15,-27.5 3.55271e-15,-6.5 53,-6.5 53,-27.5"/>
<text text-anchor="middle" x="26.5" y="-13.9" font-family="Times,serif" font-size="12.00">feature A</text>
</g>
<!-- featB -->
<g id="node4" class="node"><title>featB</title>
<polygon fill="none" stroke="none" stroke-width="0" points="239.5,-27.5 187.5,-27.5 187.5,-6.5 239.5,-6.5 239.5,-27.5"/>
<text text-anchor="middle" x="213.5" y="-13.9" font-family="Times,serif" font-size="12.00">feature B</text>
</g>
<!-- m1 -->
<g id="node5" class="node"><title>m1</title>
<ellipse fill="skyblue" stroke="black" stroke-width="0" cx="295.5" cy="-475" rx="11" ry="11"/>
<text text-anchor="middle" x="295.5" y="-471.9" font-family="Times,serif" font-size="12.00">m1</text>
</g>
<!-- m2 -->
<g id="node6" class="node"><title>m2</title>
<ellipse fill="skyblue" stroke="black" stroke-width="0" cx="295.5" cy="-249" rx="11" ry="11"/>
<text text-anchor="middle" x="295.5" y="-245.9" font-family="Times,serif" font-size="12.00">m2</text>
</g>
<!-- m1&#45;&gt;m2 -->
<g id="edge1" class="edge"><title>m1&#45;&gt;m2</title>
<path fill="none" stroke="black" d="M295.5,-463.793C295.5,-428.164 295.5,-317.097 295.5,-270.217"/>
<polygon fill="black" stroke="black" points="299,-270.008 295.5,-260.009 292,-270.009 299,-270.008"/>
</g>
<!-- m3 -->
<g id="node7" class="node"><title>m3</title>
<ellipse fill="skyblue" stroke="black" stroke-width="0" cx="295.5" cy="-64" rx="11" ry="11"/>
<text text-anchor="middle" x="295.5" y="-60.9" font-family="Times,serif" font-size="12.00">m3</text>
</g>
<!-- m2&#45;&gt;m3 -->
<g id="edge2" class="edge"><title>m2&#45;&gt;m3</title>
<path fill="none" stroke="black" d="M295.5,-237.981C295.5,-208.04 295.5,-124.788 295.5,-85.3031"/>
<polygon fill="black" stroke="black" points="299,-85.1947 295.5,-75.1947 292,-85.1948 299,-85.1947"/>
</g>
<!-- m3&#45;&gt;master -->
<g id="edge3" class="edge"><title>m3&#45;&gt;master</title>
<path fill="none" stroke="#b0b0b0" stroke-dasharray="5,2" d="M295.732,-52.563C295.854,-47.0587 296.007,-40.1869 296.144,-34.0237"/>
</g>
<!-- sta1 -->
<g id="node8" class="node"><title>sta1</title>
<ellipse fill="plum" stroke="black" stroke-width="0" cx="114.5" cy="-475" rx="11" ry="11"/>
<text text-anchor="middle" x="114.5" y="-471.9" font-family="Times,serif" font-size="12.00">sta1</text>
</g>
<!-- sta1&#45;&gt;m1 -->
<g id="edge27" class="edge"><title>sta1&#45;&gt;m1</title>
<path fill="none" stroke="black" d="M125.55,-475C154.89,-475 235.154,-475 273.946,-475"/>
<polygon fill="black" stroke="black" points="274.133,-478.5 284.133,-475 274.133,-471.5 274.133,-478.5"/>
<text text-anchor="middle" x="205" y="-481.4" font-family="Times,serif" font-size="12.00">Integ. slot #1 B2B merge</text>
</g>
<!-- sta2 -->
<g id="node9" class="node"><title>sta2</title>
<ellipse fill="plum" stroke="black" stroke-width="0" cx="114.5" cy="-352" rx="11" ry="11"/>
<text text-anchor="middle" x="114.5" y="-348.9" font-family="Times,serif" font-size="12.00">sta2</text>
</g>
<!-- sta1&#45;&gt;sta2 -->
<g id="edge4" class="edge"><title>sta1&#45;&gt;sta2</title>
<path fill="none" stroke="black" d="M114.5,-463.649C114.5,-443.146 114.5,-399.634 114.5,-373.394"/>
<polygon fill="black" stroke="black" points="118,-373.324 114.5,-363.324 111,-373.324 118,-373.324"/>
</g>
<!-- fa1 -->
<g id="node13" class="node"><title>fa1</title>
<ellipse fill="red" stroke="black" stroke-width="0" cx="26.5" cy="-434" rx="11" ry="11"/>
<text text-anchor="middle" x="26.5" y="-430.9" font-family="Times,serif" font-size="12.00">fa1</text>
</g>
<!-- sta1&#45;&gt;fa1 -->
<g id="edge19" class="edge"><title>sta1&#45;&gt;fa1</title>
<path fill="none" stroke="black" d="M104.746,-469.677C90.5399,-463.381 63.8688,-451.561 45.6518,-443.488"/>
<polygon fill="black" stroke="black" points="46.858,-440.194 36.2975,-439.342 44.0217,-446.594 46.858,-440.194"/>
</g>
<!-- fb1 -->
<g id="node19" class="node"><title>fb1</title>
<ellipse fill="#ee0000" stroke="black" stroke-width="0" cx="213.5" cy="-393" rx="11" ry="11"/>
<text text-anchor="middle" x="213.5" y="-389.9" font-family="Times,serif" font-size="12.00">fb1</text>
</g>
<!-- sta1&#45;&gt;fb1 -->
<g id="edge26" class="edge"><title>sta1&#45;&gt;fb1</title>
<path fill="none" stroke="black" d="M123.286,-467.723C139.839,-454.012 175.884,-424.157 197.059,-406.617"/>
<polygon fill="black" stroke="black" points="199.407,-409.218 204.875,-400.144 194.942,-403.827 199.407,-409.218"/>
</g>
<!-- sta3 -->
<g id="node10" class="node"><title>sta3</title>
<ellipse fill="plum" stroke="black" stroke-width="0" cx="114.5" cy="-249" rx="11" ry="11"/>
<text text-anchor="middle" x="114.5" y="-245.9" font-family="Times,serif" font-size="12.00">sta3</text>
</g>
<!-- sta2&#45;&gt;sta3 -->
<g id="edge5" class="edge"><title>sta2&#45;&gt;sta3</title>
<path fill="none" stroke="black" d="M114.5,-340.977C114.5,-324.184 114.5,-291.878 114.5,-270.376"/>
<polygon fill="black" stroke="black" points="118,-270.256 114.5,-260.256 111,-270.256 118,-270.256"/>
</g>
<!-- fb3 -->
<g id="node21" class="node"><title>fb3</title>
<ellipse fill="#ee0000" stroke="black" stroke-width="0" cx="213.5" cy="-290" rx="11" ry="11"/>
<text text-anchor="middle" x="213.5" y="-286.9" font-family="Times,serif" font-size="12.00">fb3</text>
</g>
<!-- sta2&#45;&gt;fb3 -->
<g id="edge24" class="edge"><title>sta2&#45;&gt;fb3</title>
<path fill="none" stroke="black" d="M123.636,-345.463C139.991,-335.551 174.537,-314.614 195.711,-301.781"/>
<polygon fill="black" stroke="black" points="197.648,-304.7 204.386,-296.524 194.02,-298.714 197.648,-304.7"/>
</g>
<!-- sta3&#45;&gt;m2 -->
<g id="edge28" class="edge"><title>sta3&#45;&gt;m2</title>
<path fill="none" stroke="black" d="M125.55,-249C154.89,-249 235.154,-249 273.946,-249"/>
<polygon fill="black" stroke="black" points="274.133,-252.5 284.133,-249 274.133,-245.5 274.133,-252.5"/>
<text text-anchor="middle" x="205" y="-255.4" font-family="Times,serif" font-size="12.00">Integ. slot #2 B2B merge</text>
</g>
<!-- sta4 -->
<g id="node11" class="node"><title>sta4</title>
<ellipse fill="plum" stroke="black" stroke-width="0" cx="114.5" cy="-146" rx="11" ry="11"/>
<text text-anchor="middle" x="114.5" y="-142.9" font-family="Times,serif" font-size="12.00">sta4</text>
</g>
<!-- sta3&#45;&gt;sta4 -->
<g id="edge6" class="edge"><title>sta3&#45;&gt;sta4</title>
<path fill="none" stroke="black" d="M114.5,-237.977C114.5,-221.184 114.5,-188.878 114.5,-167.376"/>
<polygon fill="black" stroke="black" points="118,-167.256 114.5,-157.256 111,-167.256 118,-167.256"/>
</g>
<!-- fa4 -->
<g id="node16" class="node"><title>fa4</title>
<ellipse fill="red" stroke="black" stroke-width="0" cx="26.5" cy="-187" rx="11" ry="11"/>
<text text-anchor="middle" x="26.5" y="-183.9" font-family="Times,serif" font-size="12.00">fa4</text>
</g>
<!-- sta3&#45;&gt;fa4 -->
<g id="edge25" class="edge"><title>sta3&#45;&gt;fa4</title>
<path fill="none" stroke="black" d="M105.741,-242.028C91.3106,-232.189 62.2874,-212.401 43.6566,-199.698"/>
<polygon fill="black" stroke="black" points="45.4581,-196.69 35.2241,-193.948 41.5147,-202.473 45.4581,-196.69"/>
</g>
<!-- sta5 -->
<g id="node12" class="node"><title>sta5</title>
<ellipse fill="plum" stroke="black" stroke-width="0" cx="114.5" cy="-64" rx="11" ry="11"/>
<text text-anchor="middle" x="114.5" y="-60.9" font-family="Times,serif" font-size="12.00">sta5</text>
</g>
<!-- sta4&#45;&gt;sta5 -->
<g id="edge7" class="edge"><title>sta4&#45;&gt;sta5</title>
<path fill="none" stroke="black" d="M114.5,-134.941C114.5,-122.225 114.5,-101.061 114.5,-85.1517"/>
<polygon fill="black" stroke="black" points="118,-85.1455 114.5,-75.1456 111,-85.1456 118,-85.1455"/>
</g>
<!-- sta5&#45;&gt;staging -->
<g id="edge8" class="edge"><title>sta5&#45;&gt;staging</title>
<path fill="none" stroke="#b0b0b0" stroke-dasharray="5,2" d="M115.832,-53.013C116.564,-47.5237 117.49,-40.5773 118.324,-34.3216"/>
</g>
<!-- sta5&#45;&gt;m3 -->
<g id="edge29" class="edge"><title>sta5&#45;&gt;m3</title>
<path fill="none" stroke="black" d="M125.55,-64C154.89,-64 235.154,-64 273.946,-64"/>
<polygon fill="black" stroke="black" points="274.133,-67.5001 284.133,-64 274.133,-60.5001 274.133,-67.5001"/>
<text text-anchor="middle" x="205" y="-70.4" font-family="Times,serif" font-size="12.00">Integ. slot #3 B2B merge</text>
</g>
<!-- fa2 -->
<g id="node14" class="node"><title>fa2</title>
<ellipse fill="red" stroke="black" stroke-width="0" cx="26.5" cy="-393" rx="11" ry="11"/>
<text text-anchor="middle" x="26.5" y="-389.9" font-family="Times,serif" font-size="12.00">fa2</text>
</g>
<!-- fa1&#45;&gt;fa2 -->
<g id="edge9" class="edge"><title>fa1&#45;&gt;fa2</title>
<path fill="none" stroke="black" d="M26.5,-422.753C26.5,-420.135 26.5,-417.228 26.5,-414.296"/>
<polygon fill="black" stroke="black" points="30.0001,-414.043 26.5,-404.043 23.0001,-414.044 30.0001,-414.043"/>
</g>
<!-- fa2&#45;&gt;sta2 -->
<g id="edge20" class="edge"><title>fa2&#45;&gt;sta2</title>
<path fill="none" stroke="black" d="M36.2538,-387.677C50.4601,-381.381 77.1312,-369.561 95.3482,-361.488"/>
<polygon fill="black" stroke="black" points="96.9783,-364.594 104.703,-357.342 94.142,-358.194 96.9783,-364.594"/>
</g>
<!-- fa3 -->
<g id="node15" class="node"><title>fa3</title>
<ellipse fill="red" stroke="black" stroke-width="0" cx="26.5" cy="-321" rx="11" ry="11"/>
<text text-anchor="middle" x="26.5" y="-317.9" font-family="Times,serif" font-size="12.00">fa3</text>
</g>
<!-- fa2&#45;&gt;fa3 -->
<g id="edge10" class="edge"><title>fa2&#45;&gt;fa3</title>
<path fill="none" stroke="black" d="M26.5,-381.75C26.5,-371.349 26.5,-355.607 26.5,-342.753"/>
<polygon fill="black" stroke="black" points="30.0001,-342.409 26.5,-332.409 23.0001,-342.409 30.0001,-342.409"/>
</g>
<!-- fa3&#45;&gt;fa4 -->
<g id="edge11" class="edge"><title>fa3&#45;&gt;fa4</title>
<path fill="none" stroke="black" d="M26.5,-309.575C26.5,-287.114 26.5,-236.899 26.5,-208.197"/>
<polygon fill="black" stroke="black" points="30.0001,-208.019 26.5,-198.019 23.0001,-208.019 30.0001,-208.019"/>
</g>
<!-- fa4&#45;&gt;sta4 -->
<g id="edge21" class="edge"><title>fa4&#45;&gt;sta4</title>
<path fill="none" stroke="black" d="M36.2538,-181.677C50.4601,-175.381 77.1312,-163.561 95.3482,-155.488"/>
<polygon fill="black" stroke="black" points="96.9783,-158.594 104.703,-151.342 94.142,-152.194 96.9783,-158.594"/>
</g>
<!-- fa5 -->
<g id="node17" class="node"><title>fa5</title>
<ellipse fill="red" stroke="black" stroke-width="0" cx="26.5" cy="-146" rx="11" ry="11"/>
<text text-anchor="middle" x="26.5" y="-142.9" font-family="Times,serif" font-size="12.00">fa5</text>
</g>
<!-- fa4&#45;&gt;fa5 -->
<g id="edge12" class="edge"><title>fa4&#45;&gt;fa5</title>
<path fill="none" stroke="black" d="M26.5,-175.753C26.5,-173.135 26.5,-170.228 26.5,-167.296"/>
<polygon fill="black" stroke="black" points="30.0001,-167.043 26.5,-157.043 23.0001,-167.044 30.0001,-167.043"/>
</g>
<!-- fa6 -->
<g id="node18" class="node"><title>fa6</title>
<ellipse fill="red" stroke="black" stroke-width="0" cx="26.5" cy="-105" rx="11" ry="11"/>
<text text-anchor="middle" x="26.5" y="-101.9" font-family="Times,serif" font-size="12.00">fa6</text>
</g>
<!-- fa5&#45;&gt;fa6 -->
<g id="edge13" class="edge"><title>fa5&#45;&gt;fa6</title>
<path fill="none" stroke="black" d="M26.5,-134.753C26.5,-132.135 26.5,-129.228 26.5,-126.296"/>
<polygon fill="black" stroke="black" points="30.0001,-126.043 26.5,-116.043 23.0001,-126.044 30.0001,-126.043"/>
</g>
<!-- fa6&#45;&gt;featA -->
<g id="edge14" class="edge"><title>fa6&#45;&gt;featA</title>
<path fill="none" stroke="#b0b0b0" stroke-dasharray="5,2" d="M26.5,-93.8547C26.5,-76.7426 26.5,-44.2268 26.5,-27.507"/>
</g>
<!-- fa6&#45;&gt;sta5 -->
<g id="edge22" class="edge"><title>fa6&#45;&gt;sta5</title>
<path fill="none" stroke="black" d="M36.2538,-99.6773C50.4601,-93.3813 77.1312,-81.5612 95.3482,-73.4877"/>
<polygon fill="black" stroke="black" points="96.9783,-76.5937 104.703,-69.3421 94.142,-70.194 96.9783,-76.5937"/>
</g>
<!-- fb2 -->
<g id="node20" class="node"><title>fb2</title>
<ellipse fill="#ee0000" stroke="black" stroke-width="0" cx="213.5" cy="-352" rx="11" ry="11"/>
<text text-anchor="middle" x="213.5" y="-348.9" font-family="Times,serif" font-size="12.00">fb2</text>
</g>
<!-- fb1&#45;&gt;fb2 -->
<g id="edge15" class="edge"><title>fb1&#45;&gt;fb2</title>
<path fill="none" stroke="black" d="M213.5,-381.753C213.5,-379.135 213.5,-376.228 213.5,-373.296"/>
<polygon fill="black" stroke="black" points="217,-373.043 213.5,-363.043 210,-373.044 217,-373.043"/>
</g>
<!-- fb2&#45;&gt;fb3 -->
<g id="edge16" class="edge"><title>fb2&#45;&gt;fb3</title>
<path fill="none" stroke="black" d="M213.5,-340.822C213.5,-332.757 213.5,-321.233 213.5,-311.299"/>
<polygon fill="black" stroke="black" points="217,-311.028 213.5,-301.028 210,-311.028 217,-311.028"/>
</g>
<!-- fb3&#45;&gt;sta3 -->
<g id="edge23" class="edge"><title>fb3&#45;&gt;sta3</title>
<path fill="none" stroke="black" d="M203.278,-284.973C186.965,-278.547 154.766,-265.862 133.958,-257.665"/>
<polygon fill="black" stroke="black" points="135.106,-254.356 124.519,-253.947 132.54,-260.869 135.106,-254.356"/>
</g>
<!-- fb4 -->
<g id="node22" class="node"><title>fb4</title>
<ellipse fill="#ee0000" stroke="black" stroke-width="0" cx="213.5" cy="-218" rx="11" ry="11"/>
<text text-anchor="middle" x="213.5" y="-214.9" font-family="Times,serif" font-size="12.00">fb4</text>
</g>
<!-- fb3&#45;&gt;fb4 -->
<g id="edge17" class="edge"><title>fb3&#45;&gt;fb4</title>
<path fill="none" stroke="black" d="M213.5,-278.75C213.5,-268.349 213.5,-252.607 213.5,-239.753"/>
<polygon fill="black" stroke="black" points="217,-239.409 213.5,-229.409 210,-239.409 217,-239.409"/>
</g>
<!-- fb4&#45;&gt;featB -->
<g id="edge18" class="edge"><title>fb4&#45;&gt;featB</title>
<path fill="none" stroke="#b0b0b0" stroke-dasharray="5,2" d="M213.5,-206.907C213.5,-171.683 213.5,-62.6437 213.5,-27.8133"/>
</g>
</g>
</svg>
