<?xml version="1.0" encoding="UTF-8" standalone="no"?>
<!DOCTYPE svg PUBLIC "-//W3C//DTD SVG 1.1//EN"
 "http://www.w3.org/Graphics/SVG/1.1/DTD/svg11.dtd">
<!-- Generated by graphviz version 2.38.0 (20140413.2041)
 -->
<!-- Title: g Pages: 1 -->
<svg width="279pt" height="484pt"
 viewBox="0.00 0.00 279.00 483.50" xmlns="http://www.w3.org/2000/svg" xmlns:xlink="http://www.w3.org/1999/xlink">
<g id="graph0" class="graph" transform="scale(1 1) rotate(0) translate(4 479.5)">
<title>g</title>
<polygon fill="white" stroke="none" points="-4,4 -4,-479.5 275,-479.5 275,4 -4,4"/>
<!-- release1 -->
<g id="node1" class="node"><title>release1</title>
<polygon fill="none" stroke="none" stroke-width="0" points="271,-411 224,-411 224,-390 271,-390 271,-411"/>
<text text-anchor="middle" x="247.5" y="-397.4" font-family="Times,serif" font-size="12.00">release1</text>
</g>
<!-- release2 -->
<g id="node2" class="node"><title>release2</title>
<polygon fill="none" stroke="none" stroke-width="0" points="206,-283 159,-283 159,-262 206,-262 206,-283"/>
<text text-anchor="middle" x="182.5" y="-269.4" font-family="Times,serif" font-size="12.00">release2</text>
</g>
<!-- release3 -->
<g id="node3" class="node"><title>release3</title>
<polygon fill="none" stroke="none" stroke-width="0" points="206,-143 159,-143 159,-122 206,-122 206,-143"/>
<text text-anchor="middle" x="182.5" y="-129.4" font-family="Times,serif" font-size="12.00">release3</text>
</g>
<!-- master -->
<g id="node4" class="node"><title>master</title>
<polygon fill="none" stroke="none" stroke-width="0" points="39,-21 0,-21 0,-0 39,-0 39,-21"/>
<text text-anchor="middle" x="19.5" y="-7.4" font-family="Times,serif" font-size="12.00">master</text>
</g>
<!-- ma1 -->
<g id="node5" class="node"><title>ma1</title>
<ellipse fill="skyblue" stroke="black" stroke-width="0" cx="19.5" cy="-464.5" rx="11" ry="11"/>
<text text-anchor="middle" x="19.5" y="-461.4" font-family="Times,serif" font-size="12.00">ma1</text>
</g>
<!-- tma0 -->
<g id="node8" class="node"><title>tma0</title>
<polygon fill="skyblue" stroke="black" stroke-width="0" points="25,-412 3,-412 3,-389 25,-389 36,-400.5 25,-412"/>
<text text-anchor="middle" x="19.5" y="-403.9" font-family="Times,serif" font-size="12.00">tag</text>
<text text-anchor="middle" x="19.5" y="-390.9" font-family="Times,serif" font-size="12.00">1.0.0</text>
</g>
<!-- ma1&#45;&gt;tma0 -->
<g id="edge1" class="edge"><title>ma1&#45;&gt;tma0</title>
<path fill="none" stroke="black" d="M19.5,-453.238C19.5,-444.888 19.5,-436.537 19.5,-428.186"/>
<polygon fill="black" stroke="black" points="23.0001,-428 19.5,-418 16.0001,-428 23.0001,-428"/>
</g>
<!-- ma2 -->
<g id="node6" class="node"><title>ma2</title>
<ellipse fill="skyblue" stroke="black" stroke-width="0" cx="19.5" cy="-336.5" rx="11" ry="11"/>
<text text-anchor="middle" x="19.5" y="-333.4" font-family="Times,serif" font-size="12.00">ma2</text>
</g>
<!-- tma1 -->
<g id="node9" class="node"><title>tma1</title>
<polygon fill="skyblue" stroke="black" stroke-width="0" points="25,-284 3,-284 3,-261 25,-261 36,-272.5 25,-284"/>
<text text-anchor="middle" x="19.5" y="-275.9" font-family="Times,serif" font-size="12.00">tag</text>
<text text-anchor="middle" x="19.5" y="-262.9" font-family="Times,serif" font-size="12.00">1.1.0</text>
</g>
<!-- ma2&#45;&gt;tma1 -->
<g id="edge3" class="edge"><title>ma2&#45;&gt;tma1</title>
<path fill="none" stroke="black" d="M19.5,-325.238C19.5,-316.888 19.5,-308.537 19.5,-300.186"/>
<polygon fill="black" stroke="black" points="23.0001,-300 19.5,-290 16.0001,-300 23.0001,-300"/>
</g>
<!-- ma5 -->
<g id="node7" class="node"><title>ma5</title>
<ellipse fill="skyblue" stroke="black" stroke-width="0" cx="19.5" cy="-68.5" rx="11" ry="11"/>
<text text-anchor="middle" x="19.5" y="-65.4" font-family="Times,serif" font-size="12.00">ma5</text>
</g>
<!-- ma5&#45;&gt;master -->
<g id="edge7" class="edge"><title>ma5&#45;&gt;master</title>
<path fill="none" stroke="#b0b0b0" stroke-dasharray="5,2" d="M19.5,-57.4551C19.5,-45.4284 19.5,-33.4017 19.5,-21.375"/>
</g>
<!-- tma0&#45;&gt;ma2 -->
<g id="edge2" class="edge"><title>tma0&#45;&gt;ma2</title>
<path fill="none" stroke="black" d="M19.5,-383.191C19.5,-374.793 19.5,-366.394 19.5,-357.995"/>
<polygon fill="black" stroke="black" points="23.0001,-357.75 19.5,-347.75 16.0001,-357.75 23.0001,-357.75"/>
</g>
<!-- rel101 -->
<g id="node12" class="node"><title>rel101</title>
<polygon fill="red" stroke="black" stroke-width="0" points="79,-412 57,-412 57,-389 79,-389 90,-400.5 79,-412"/>
<text text-anchor="middle" x="73.5" y="-403.9" font-family="Times,serif" font-size="12.00">tag</text>
<text text-anchor="middle" x="73.5" y="-390.9" font-family="Times,serif" font-size="12.00">1.0.1</text>
</g>
<!-- tma0&#45;&gt;rel101 -->
<g id="edge8" class="edge"><title>tma0&#45;&gt;rel101</title>
<path fill="none" stroke="black" d="M36.1017,-400.5C39.4953,-400.5 43.1718,-400.5 46.8394,-400.5"/>
<polygon fill="black" stroke="black" points="46.9093,-404 56.9093,-400.5 46.9093,-397 46.9093,-404"/>
</g>
<!-- tma2 -->
<g id="node10" class="node"><title>tma2</title>
<polygon fill="skyblue" stroke="black" stroke-width="0" points="25,-214 3,-214 3,-191 25,-191 36,-202.5 25,-214"/>
<text text-anchor="middle" x="19.5" y="-205.9" font-family="Times,serif" font-size="12.00">tag</text>
<text text-anchor="middle" x="19.5" y="-192.9" font-family="Times,serif" font-size="12.00">1.2.0</text>
</g>
<!-- tma1&#45;&gt;tma2 -->
<g id="edge4" class="edge"><title>tma1&#45;&gt;tma2</title>
<path fill="none" stroke="black" d="M19.5,-255.184C19.5,-246.781 19.5,-238.379 19.5,-229.976"/>
<polygon fill="black" stroke="black" points="23.0001,-229.727 19.5,-219.727 16.0001,-229.727 23.0001,-229.727"/>
</g>
<!-- rel111 -->
<g id="node15" class="node"><title>rel111</title>
<polygon fill="plum" stroke="black" stroke-width="0" points="79,-284 57,-284 57,-261 79,-261 90,-272.5 79,-284"/>
<text text-anchor="middle" x="73.5" y="-275.9" font-family="Times,serif" font-size="12.00">tag</text>
<text text-anchor="middle" x="73.5" y="-262.9" font-family="Times,serif" font-size="12.00">1.1.1</text>
</g>
<!-- tma1&#45;&gt;rel111 -->
<g id="edge12" class="edge"><title>tma1&#45;&gt;rel111</title>
<path fill="none" stroke="black" d="M36.1017,-272.5C39.4953,-272.5 43.1718,-272.5 46.8394,-272.5"/>
<polygon fill="black" stroke="black" points="46.9093,-276 56.9093,-272.5 46.9093,-269 46.9093,-276"/>
</g>
<!-- tma3 -->
<g id="node11" class="node"><title>tma3</title>
<polygon fill="skyblue" stroke="black" stroke-width="0" points="25,-144 3,-144 3,-121 25,-121 36,-132.5 25,-144"/>
<text text-anchor="middle" x="19.5" y="-135.9" font-family="Times,serif" font-size="12.00">tag</text>
<text text-anchor="middle" x="19.5" y="-122.9" font-family="Times,serif" font-size="12.00">1.3.0</text>
</g>
<!-- tma2&#45;&gt;tma3 -->
<g id="edge5" class="edge"><title>tma2&#45;&gt;tma3</title>
<path fill="none" stroke="black" d="M19.5,-185.184C19.5,-176.781 19.5,-168.379 19.5,-159.976"/>
<polygon fill="black" stroke="black" points="23.0001,-159.727 19.5,-149.727 16.0001,-159.727 23.0001,-159.727"/>
</g>
<!-- tma3&#45;&gt;ma5 -->
<g id="edge6" class="edge"><title>tma3&#45;&gt;ma5</title>
<path fill="none" stroke="black" d="M19.5,-115.109C19.5,-106.578 19.5,-98.0465 19.5,-89.5151"/>
<polygon fill="black" stroke="black" points="23.0001,-89.5 19.5,-79.5 16.0001,-89.5 23.0001,-89.5"/>
</g>
<!-- rel131 -->
<g id="node17" class="node"><title>rel131</title>
<polygon fill="#ee0000" stroke="black" stroke-width="0" points="79,-144 57,-144 57,-121 79,-121 90,-132.5 79,-144"/>
<text text-anchor="middle" x="73.5" y="-135.9" font-family="Times,serif" font-size="12.00">tag</text>
<text text-anchor="middle" x="73.5" y="-122.9" font-family="Times,serif" font-size="12.00">1.3.1</text>
</g>
<!-- tma3&#45;&gt;rel131 -->
<g id="edge15" class="edge"><title>tma3&#45;&gt;rel131</title>
<path fill="none" stroke="black" d="M36.1017,-132.5C39.4953,-132.5 43.1718,-132.5 46.8394,-132.5"/>
<polygon fill="black" stroke="black" points="46.9093,-136 56.9093,-132.5 46.9093,-129 46.9093,-136"/>
</g>
<!-- rel102 -->
<g id="node13" class="node"><title>rel102</title>
<polygon fill="red" stroke="black" stroke-width="0" points="130,-412 108,-412 108,-389 130,-389 141,-400.5 130,-412"/>
<text text-anchor="middle" x="124.5" y="-403.9" font-family="Times,serif" font-size="12.00">tag</text>
<text text-anchor="middle" x="124.5" y="-390.9" font-family="Times,serif" font-size="12.00">1.0.2</text>
</g>
<!-- rel101&#45;&gt;rel102 -->
<g id="edge9" class="edge"><title>rel101&#45;&gt;rel102</title>
<path fill="none" stroke="black" d="M90.0039,-400.5C92.5063,-400.5 95.1541,-400.5 97.8206,-400.5"/>
<polygon fill="black" stroke="black" points="97.9288,-404 107.929,-400.5 97.9287,-397 97.9288,-404"/>
</g>
<!-- rel103 -->
<g id="node14" class="node"><title>rel103</title>
<polygon fill="red" stroke="black" stroke-width="0" points="188,-412 166,-412 166,-389 188,-389 199,-400.5 188,-412"/>
<text text-anchor="middle" x="182.5" y="-403.9" font-family="Times,serif" font-size="12.00">tag</text>
<text text-anchor="middle" x="182.5" y="-390.9" font-family="Times,serif" font-size="12.00">1.0.3</text>
</g>
<!-- rel102&#45;&gt;rel103 -->
<g id="edge10" class="edge"><title>rel102&#45;&gt;rel103</title>
<path fill="none" stroke="black" d="M141.099,-400.5C145.711,-400.5 150.885,-400.5 155.951,-400.5"/>
<polygon fill="black" stroke="black" points="155.985,-404 165.985,-400.5 155.984,-397 155.985,-404"/>
</g>
<!-- rel103&#45;&gt;release1 -->
<g id="edge11" class="edge"><title>rel103&#45;&gt;release1</title>
<path fill="none" stroke="#b0b0b0" stroke-dasharray="5,2" d="M199.073,-400.5C206.506,-400.5 215.545,-400.5 223.731,-400.5"/>
</g>
<!-- rel112 -->
<g id="node16" class="node"><title>rel112</title>
<polygon fill="plum" stroke="black" stroke-width="0" points="130,-284 108,-284 108,-261 130,-261 141,-272.5 130,-284"/>
<text text-anchor="middle" x="124.5" y="-275.9" font-family="Times,serif" font-size="12.00">tag</text>
<text text-anchor="middle" x="124.5" y="-262.9" font-family="Times,serif" font-size="12.00">1.1.2</text>
</g>
<!-- rel111&#45;&gt;rel112 -->
<g id="edge13" class="edge"><title>rel111&#45;&gt;rel112</title>
<path fill="none" stroke="black" d="M90.0039,-272.5C92.5063,-272.5 95.1541,-272.5 97.8206,-272.5"/>
<polygon fill="black" stroke="black" points="97.9288,-276 107.929,-272.5 97.9287,-269 97.9288,-276"/>
</g>
<!-- rel112&#45;&gt;release2 -->
<g id="edge14" class="edge"><title>rel112&#45;&gt;release2</title>
<path fill="none" stroke="#b0b0b0" stroke-dasharray="5,2" d="M141.099,-272.5C146.536,-272.5 152.755,-272.5 158.657,-272.5"/>
</g>
<!-- rel132 -->
<g id="node18" class="node"><title>rel132</title>
<polygon fill="#ee0000" stroke="black" stroke-width="0" points="130,-144 108,-144 108,-121 130,-121 141,-132.5 130,-144"/>
<text text-anchor="middle" x="124.5" y="-135.9" font-family="Times,serif" font-size="12.00">tag</text>
<text text-anchor="middle" x="124.5" y="-122.9" font-family="Times,serif" font-size="12.00">1.3.2</text>
</g>
<!-- rel131&#45;&gt;rel132 -->
<g id="edge16" class="edge"><title>rel131&#45;&gt;rel132</title>
<path fill="none" stroke="black" d="M90.0039,-132.5C92.5063,-132.5 95.1541,-132.5 97.8206,-132.5"/>
<polygon fill="black" stroke="black" points="97.9288,-136 107.929,-132.5 97.9287,-129 97.9288,-136"/>
</g>
<!-- rel132&#45;&gt;release3 -->
<g id="edge17" class="edge"><title>rel132&#45;&gt;release3</title>
<path fill="none" stroke="#b0b0b0" stroke-dasharray="5,2" d="M141.099,-132.5C146.536,-132.5 152.755,-132.5 158.657,-132.5"/>
</g>
</g>
</svg>
