<?xml version="1.0" encoding="UTF-8" standalone="no"?>
<!DOCTYPE svg PUBLIC "-//W3C//DTD SVG 1.1//EN"
 "http://www.w3.org/Graphics/SVG/1.1/DTD/svg11.dtd">
<!-- Generated by graphviz version 2.38.0 (20140413.2041)
 -->
<!-- Title: g Pages: 1 -->
<svg width="528pt" height="530pt"
 viewBox="0.00 0.00 527.50 530.00" xmlns="http://www.w3.org/2000/svg" xmlns:xlink="http://www.w3.org/1999/xlink">
<g id="graph0" class="graph" transform="scale(1 1) rotate(0) translate(4 526)">
<title>g</title>
<polygon fill="white" stroke="none" points="-4,4 -4,-526 523.5,-526 523.5,4 -4,4"/>
<!-- specs -->
<g id="node1" class="node"><title>specs</title>
<polygon fill="none" stroke="none" stroke-width="0" points="519.5,-34 433.5,-34 433.5,-0 519.5,-0 519.5,-34"/>
<text text-anchor="middle" x="476.5" y="-20.4" font-family="Times,serif" font-size="12.00">Xenserver specs</text>
<text text-anchor="middle" x="476.5" y="-7.4" font-family="Times,serif" font-size="12.00">master</text>
</g>
<!-- master -->
<g id="node2" class="node"><title>master</title>
<polygon fill="none" stroke="none" stroke-width="0" points="300,-27.5 261,-27.5 261,-6.5 300,-6.5 300,-27.5"/>
<text text-anchor="middle" x="280.5" y="-13.9" font-family="Times,serif" font-size="12.00">master</text>
</g>
<!-- staging -->
<g id="node3" class="node"><title>staging</title>
<polygon fill="none" stroke="none" stroke-width="0" points="133.5,-27.5 91.5,-27.5 91.5,-6.5 133.5,-6.5 133.5,-27.5"/>
<text text-anchor="middle" x="112.5" y="-13.9" font-family="Times,serif" font-size="12.00">staging</text>
</g>
<!-- featA -->
<g id="node4" class="node"><title>featA</title>
<polygon fill="none" stroke="none" stroke-width="0" points="53,-27.5 3.55271e-15,-27.5 3.55271e-15,-6.5 53,-6.5 53,-27.5"/>
<text text-anchor="middle" x="26.5" y="-13.9" font-family="Times,serif" font-size="12.00">feature A</text>
</g>
<!-- featB -->
<g id="node5" class="node"><title>featB</title>
<polygon fill="none" stroke="none" stroke-width="0" points="224.5,-27.5 172.5,-27.5 172.5,-6.5 224.5,-6.5 224.5,-27.5"/>
<text text-anchor="middle" x="198.5" y="-13.9" font-family="Times,serif" font-size="12.00">feature B</text>
</g>
<!-- t1 -->
<g id="node6" class="node"><title>t1</title>
<polygon fill="#c6c6c6" stroke="black" points="383.5,-517 363.5,-517 363.5,-493 383.5,-493 393.5,-505 383.5,-517"/>
<text text-anchor="middle" x="378.5" y="-508.4" font-family="Times,serif" font-size="12.00">tag</text>
<text text-anchor="middle" x="378.5" y="-495.4" font-family="Times,serif" font-size="12.00">v0.1</text>
</g>
<!-- s1 -->
<g id="node9" class="node"><title>s1</title>
<ellipse fill="#ffe333" stroke="black" stroke-width="0" cx="476.5" cy="-505" rx="11" ry="11"/>
<text text-anchor="middle" x="476.5" y="-501.9" font-family="Times,serif" font-size="12.00">s1</text>
</g>
<!-- t1&#45;&gt;s1 -->
<g id="edge34" class="edge"><title>t1&#45;&gt;s1</title>
<path fill="none" stroke="#b0b0b0" stroke-dasharray="1,5" d="M393.812,-505C417.607,-505 441.401,-505 465.195,-505"/>
</g>
<!-- t2 -->
<g id="node7" class="node"><title>t2</title>
<polygon fill="#c6c6c6" stroke="black" points="383.5,-279 363.5,-279 363.5,-255 383.5,-255 393.5,-267 383.5,-279"/>
<text text-anchor="middle" x="378.5" y="-270.4" font-family="Times,serif" font-size="12.00">tag</text>
<text text-anchor="middle" x="378.5" y="-257.4" font-family="Times,serif" font-size="12.00">v0.2</text>
</g>
<!-- s2 -->
<g id="node10" class="node"><title>s2</title>
<ellipse fill="#ffe333" stroke="black" stroke-width="0" cx="476.5" cy="-267" rx="11" ry="11"/>
<text text-anchor="middle" x="476.5" y="-263.9" font-family="Times,serif" font-size="12.00">s2</text>
</g>
<!-- t2&#45;&gt;s2 -->
<g id="edge36" class="edge"><title>t2&#45;&gt;s2</title>
<path fill="none" stroke="#b0b0b0" stroke-dasharray="1,5" d="M393.812,-267C417.607,-267 441.401,-267 465.195,-267"/>
</g>
<!-- t3 -->
<g id="node8" class="node"><title>t3</title>
<polygon fill="#c6c6c6" stroke="black" points="383.5,-82 363.5,-82 363.5,-58 383.5,-58 393.5,-70 383.5,-82"/>
<text text-anchor="middle" x="378.5" y="-73.4" font-family="Times,serif" font-size="12.00">tag</text>
<text text-anchor="middle" x="378.5" y="-60.4" font-family="Times,serif" font-size="12.00">v0.3</text>
</g>
<!-- s3 -->
<g id="node11" class="node"><title>s3</title>
<ellipse fill="#ffe333" stroke="black" stroke-width="0" cx="476.5" cy="-70" rx="11" ry="11"/>
<text text-anchor="middle" x="476.5" y="-66.9" font-family="Times,serif" font-size="12.00">s3</text>
</g>
<!-- t3&#45;&gt;s3 -->
<g id="edge38" class="edge"><title>t3&#45;&gt;s3</title>
<path fill="none" stroke="#b0b0b0" stroke-dasharray="1,5" d="M393.812,-70C417.607,-70 441.401,-70 465.195,-70"/>
</g>
<!-- s1&#45;&gt;s2 -->
<g id="edge1" class="edge"><title>s1&#45;&gt;s2</title>
<path fill="none" stroke="black" d="M476.5,-493.84C476.5,-456.752 476.5,-337.2 476.5,-288.224"/>
<polygon fill="black" stroke="black" points="480,-288.136 476.5,-278.136 473,-288.136 480,-288.136"/>
</g>
<!-- s2&#45;&gt;s3 -->
<g id="edge2" class="edge"><title>s2&#45;&gt;s3</title>
<path fill="none" stroke="black" d="M476.5,-255.844C476.5,-224.082 476.5,-132.782 476.5,-91.1485"/>
<polygon fill="black" stroke="black" points="480,-91.0336 476.5,-81.0337 473,-91.0337 480,-91.0336"/>
</g>
<!-- s3&#45;&gt;specs -->
<g id="edge3" class="edge"><title>s3&#45;&gt;specs</title>
<path fill="none" stroke="#b0b0b0" stroke-dasharray="5,2" d="M476.5,-58.6794C476.5,-51.6939 476.5,-42.319 476.5,-34.3296"/>
</g>
<!-- m1 -->
<g id="node12" class="node"><title>m1</title>
<ellipse fill="skyblue" stroke="black" stroke-width="0" cx="280.5" cy="-505" rx="11" ry="11"/>
<text text-anchor="middle" x="280.5" y="-501.9" font-family="Times,serif" font-size="12.00">m1</text>
</g>
<!-- m1&#45;&gt;t1 -->
<g id="edge33" class="edge"><title>m1&#45;&gt;t1</title>
<path fill="none" stroke="#b0b0b0" stroke-dasharray="1,5" d="M291.602,-505C315.476,-505 339.35,-505 363.225,-505"/>
</g>
<!-- m2 -->
<g id="node13" class="node"><title>m2</title>
<ellipse fill="skyblue" stroke="black" stroke-width="0" cx="280.5" cy="-267" rx="11" ry="11"/>
<text text-anchor="middle" x="280.5" y="-263.9" font-family="Times,serif" font-size="12.00">m2</text>
</g>
<!-- m1&#45;&gt;m2 -->
<g id="edge4" class="edge"><title>m1&#45;&gt;m2</title>
<path fill="none" stroke="black" d="M280.5,-493.84C280.5,-456.752 280.5,-337.2 280.5,-288.224"/>
<polygon fill="black" stroke="black" points="284,-288.136 280.5,-278.136 277,-288.136 284,-288.136"/>
</g>
<!-- m2&#45;&gt;t2 -->
<g id="edge35" class="edge"><title>m2&#45;&gt;t2</title>
<path fill="none" stroke="#b0b0b0" stroke-dasharray="1,5" d="M291.602,-267C315.476,-267 339.35,-267 363.225,-267"/>
</g>
<!-- m3 -->
<g id="node14" class="node"><title>m3</title>
<ellipse fill="skyblue" stroke="black" stroke-width="0" cx="280.5" cy="-70" rx="11" ry="11"/>
<text text-anchor="middle" x="280.5" y="-66.9" font-family="Times,serif" font-size="12.00">m3</text>
</g>
<!-- m2&#45;&gt;m3 -->
<g id="edge5" class="edge"><title>m2&#45;&gt;m3</title>
<path fill="none" stroke="black" d="M280.5,-255.844C280.5,-224.082 280.5,-132.782 280.5,-91.1485"/>
<polygon fill="black" stroke="black" points="284,-91.0336 280.5,-81.0337 277,-91.0337 284,-91.0336"/>
</g>
<!-- m3&#45;&gt;master -->
<g id="edge6" class="edge"><title>m3&#45;&gt;master</title>
<path fill="none" stroke="#b0b0b0" stroke-dasharray="5,2" d="M280.5,-58.6794C280.5,-49.5983 280.5,-36.479 280.5,-27.6152"/>
</g>
<!-- m3&#45;&gt;t3 -->
<g id="edge37" class="edge"><title>m3&#45;&gt;t3</title>
<path fill="none" stroke="#b0b0b0" stroke-dasharray="1,5" d="M291.602,-70C315.476,-70 339.35,-70 363.225,-70"/>
</g>
<!-- sta1 -->
<g id="node15" class="node"><title>sta1</title>
<ellipse fill="magenta" stroke="black" stroke-width="0" cx="112.5" cy="-505" rx="11" ry="11"/>
<text text-anchor="middle" x="112.5" y="-501.9" font-family="Times,serif" font-size="12.00">sta1</text>
</g>
<!-- sta1&#45;&gt;m1 -->
<g id="edge30" class="edge"><title>sta1&#45;&gt;m1</title>
<path fill="none" stroke="black" d="M123.523,-505C150.925,-505 222.525,-505 258.786,-505"/>
<polygon fill="black" stroke="black" points="259.216,-508.5 269.216,-505 259.216,-501.5 259.216,-508.5"/>
<text text-anchor="middle" x="196.5" y="-511.4" font-family="Times,serif" font-size="12.00">Integ. slot #1</text>
</g>
<!-- sta2 -->
<g id="node16" class="node"><title>sta2</title>
<ellipse fill="magenta" stroke="black" stroke-width="0" cx="112.5" cy="-376" rx="11" ry="11"/>
<text text-anchor="middle" x="112.5" y="-372.9" font-family="Times,serif" font-size="12.00">sta2</text>
</g>
<!-- sta1&#45;&gt;sta2 -->
<g id="edge7" class="edge"><title>sta1&#45;&gt;sta2</title>
<path fill="none" stroke="black" d="M112.5,-493.552C112.5,-471.982 112.5,-425.015 112.5,-397.423"/>
<polygon fill="black" stroke="black" points="116,-397.238 112.5,-387.238 109,-397.238 116,-397.238"/>
</g>
<!-- fa1 -->
<g id="node20" class="node"><title>fa1</title>
<ellipse fill="red" stroke="black" stroke-width="0" cx="26.5" cy="-458" rx="11" ry="11"/>
<text text-anchor="middle" x="26.5" y="-454.9" font-family="Times,serif" font-size="12.00">fa1</text>
</g>
<!-- sta1&#45;&gt;fa1 -->
<g id="edge22" class="edge"><title>sta1&#45;&gt;fa1</title>
<path fill="none" stroke="black" d="M102.968,-499.012C88.9461,-491.675 62.4987,-477.837 44.6867,-468.516"/>
<polygon fill="black" stroke="black" points="46.2964,-465.408 35.8134,-463.873 43.051,-471.611 46.2964,-465.408"/>
</g>
<!-- fb1 -->
<g id="node26" class="node"><title>fb1</title>
<ellipse fill="#ee0000" stroke="black" stroke-width="0" cx="198.5" cy="-417" rx="11" ry="11"/>
<text text-anchor="middle" x="198.5" y="-413.9" font-family="Times,serif" font-size="12.00">fb1</text>
</g>
<!-- sta1&#45;&gt;fb1 -->
<g id="edge29" class="edge"><title>sta1&#45;&gt;fb1</title>
<path fill="none" stroke="black" d="M120.437,-496.879C134.772,-482.21 165.195,-451.079 183.541,-432.306"/>
<polygon fill="black" stroke="black" points="186.096,-434.7 190.583,-425.101 181.09,-429.807 186.096,-434.7"/>
</g>
<!-- sta3 -->
<g id="node17" class="node"><title>sta3</title>
<ellipse fill="magenta" stroke="black" stroke-width="0" cx="112.5" cy="-267" rx="11" ry="11"/>
<text text-anchor="middle" x="112.5" y="-263.9" font-family="Times,serif" font-size="12.00">sta3</text>
</g>
<!-- sta2&#45;&gt;sta3 -->
<g id="edge8" class="edge"><title>sta2&#45;&gt;sta3</title>
<path fill="none" stroke="black" d="M112.5,-364.746C112.5,-346.702 112.5,-311.01 112.5,-288.111"/>
<polygon fill="black" stroke="black" points="116,-288.031 112.5,-278.031 109,-288.031 116,-288.031"/>
</g>
<!-- fb3 -->
<g id="node28" class="node"><title>fb3</title>
<ellipse fill="#ee0000" stroke="black" stroke-width="0" cx="198.5" cy="-314" rx="11" ry="11"/>
<text text-anchor="middle" x="198.5" y="-310.9" font-family="Times,serif" font-size="12.00">fb3</text>
</g>
<!-- sta2&#45;&gt;fb3 -->
<g id="edge27" class="edge"><title>sta2&#45;&gt;fb3</title>
<path fill="none" stroke="black" d="M121.06,-369.028C135.026,-359.284 162.977,-339.783 181.201,-327.069"/>
<polygon fill="black" stroke="black" points="183.52,-329.719 189.718,-321.127 179.514,-323.978 183.52,-329.719"/>
</g>
<!-- sta3&#45;&gt;m2 -->
<g id="edge31" class="edge"><title>sta3&#45;&gt;m2</title>
<path fill="none" stroke="black" d="M123.523,-267C150.925,-267 222.525,-267 258.786,-267"/>
<polygon fill="black" stroke="black" points="259.216,-270.5 269.216,-267 259.216,-263.5 259.216,-270.5"/>
<text text-anchor="middle" x="196.5" y="-273.4" font-family="Times,serif" font-size="12.00">Integ. slot #2</text>
</g>
<!-- sta4 -->
<g id="node18" class="node"><title>sta4</title>
<ellipse fill="magenta" stroke="black" stroke-width="0" cx="112.5" cy="-158" rx="11" ry="11"/>
<text text-anchor="middle" x="112.5" y="-154.9" font-family="Times,serif" font-size="12.00">sta4</text>
</g>
<!-- sta3&#45;&gt;sta4 -->
<g id="edge9" class="edge"><title>sta3&#45;&gt;sta4</title>
<path fill="none" stroke="black" d="M112.5,-255.746C112.5,-237.702 112.5,-202.01 112.5,-179.111"/>
<polygon fill="black" stroke="black" points="116,-179.031 112.5,-169.031 109,-179.031 116,-179.031"/>
</g>
<!-- fa4 -->
<g id="node23" class="node"><title>fa4</title>
<ellipse fill="red" stroke="black" stroke-width="0" cx="26.5" cy="-199" rx="11" ry="11"/>
<text text-anchor="middle" x="26.5" y="-195.9" font-family="Times,serif" font-size="12.00">fa4</text>
</g>
<!-- sta3&#45;&gt;fa4 -->
<g id="edge28" class="edge"><title>sta3&#45;&gt;fa4</title>
<path fill="none" stroke="black" d="M104.254,-259.672C90.1636,-248.858 61.2025,-226.632 42.8773,-212.569"/>
<polygon fill="black" stroke="black" points="44.9114,-209.718 34.8474,-206.406 40.6497,-215.271 44.9114,-209.718"/>
</g>
<!-- sta5 -->
<g id="node19" class="node"><title>sta5</title>
<ellipse fill="magenta" stroke="black" stroke-width="0" cx="112.5" cy="-70" rx="11" ry="11"/>
<text text-anchor="middle" x="112.5" y="-66.9" font-family="Times,serif" font-size="12.00">sta5</text>
</g>
<!-- sta4&#45;&gt;sta5 -->
<g id="edge10" class="edge"><title>sta4&#45;&gt;sta5</title>
<path fill="none" stroke="black" d="M112.5,-146.855C112.5,-132.969 112.5,-108.941 112.5,-91.4405"/>
<polygon fill="black" stroke="black" points="116,-91.0547 112.5,-81.0548 109,-91.0548 116,-91.0547"/>
</g>
<!-- sta5&#45;&gt;staging -->
<g id="edge11" class="edge"><title>sta5&#45;&gt;staging</title>
<path fill="none" stroke="#b0b0b0" stroke-dasharray="5,2" d="M112.5,-58.6794C112.5,-49.5983 112.5,-36.479 112.5,-27.6152"/>
</g>
<!-- sta5&#45;&gt;m3 -->
<g id="edge32" class="edge"><title>sta5&#45;&gt;m3</title>
<path fill="none" stroke="black" d="M123.523,-70C150.925,-70 222.525,-70 258.786,-70"/>
<polygon fill="black" stroke="black" points="259.216,-73.5001 269.216,-70 259.216,-66.5001 259.216,-73.5001"/>
<text text-anchor="middle" x="196.5" y="-76.4" font-family="Times,serif" font-size="12.00">Integ. slot #3</text>
</g>
<!-- fa2 -->
<g id="node21" class="node"><title>fa2</title>
<ellipse fill="red" stroke="black" stroke-width="0" cx="26.5" cy="-417" rx="11" ry="11"/>
<text text-anchor="middle" x="26.5" y="-413.9" font-family="Times,serif" font-size="12.00">fa2</text>
</g>
<!-- fa1&#45;&gt;fa2 -->
<g id="edge12" class="edge"><title>fa1&#45;&gt;fa2</title>
<path fill="none" stroke="black" d="M26.5,-446.753C26.5,-444.135 26.5,-441.228 26.5,-438.296"/>
<polygon fill="black" stroke="black" points="30.0001,-438.043 26.5,-428.043 23.0001,-438.044 30.0001,-438.043"/>
</g>
<!-- fa2&#45;&gt;sta2 -->
<g id="edge23" class="edge"><title>fa2&#45;&gt;sta2</title>
<path fill="none" stroke="black" d="M36.3653,-411.526C50.2327,-405.237 75.7663,-393.658 93.4164,-385.654"/>
<polygon fill="black" stroke="black" points="95.088,-388.739 102.75,-381.422 92.1969,-382.364 95.088,-388.739"/>
</g>
<!-- fa3 -->
<g id="node22" class="node"><title>fa3</title>
<ellipse fill="red" stroke="black" stroke-width="0" cx="26.5" cy="-345" rx="11" ry="11"/>
<text text-anchor="middle" x="26.5" y="-341.9" font-family="Times,serif" font-size="12.00">fa3</text>
</g>
<!-- fa2&#45;&gt;fa3 -->
<g id="edge13" class="edge"><title>fa2&#45;&gt;fa3</title>
<path fill="none" stroke="black" d="M26.5,-405.75C26.5,-395.349 26.5,-379.607 26.5,-366.753"/>
<polygon fill="black" stroke="black" points="30.0001,-366.409 26.5,-356.409 23.0001,-366.409 30.0001,-366.409"/>
</g>
<!-- fa3&#45;&gt;fa4 -->
<g id="edge14" class="edge"><title>fa3&#45;&gt;fa4</title>
<path fill="none" stroke="black" d="M26.5,-333.544C26.5,-309.116 26.5,-251.593 26.5,-220.255"/>
<polygon fill="black" stroke="black" points="30.0001,-220.004 26.5,-210.004 23.0001,-220.004 30.0001,-220.004"/>
</g>
<!-- fa4&#45;&gt;sta4 -->
<g id="edge24" class="edge"><title>fa4&#45;&gt;sta4</title>
<path fill="none" stroke="black" d="M36.3653,-193.526C50.2327,-187.237 75.7663,-175.658 93.4164,-167.654"/>
<polygon fill="black" stroke="black" points="95.088,-170.739 102.75,-163.422 92.1969,-164.364 95.088,-170.739"/>
</g>
<!-- fa5 -->
<g id="node24" class="node"><title>fa5</title>
<ellipse fill="red" stroke="black" stroke-width="0" cx="26.5" cy="-158" rx="11" ry="11"/>
<text text-anchor="middle" x="26.5" y="-154.9" font-family="Times,serif" font-size="12.00">fa5</text>
</g>
<!-- fa4&#45;&gt;fa5 -->
<g id="edge15" class="edge"><title>fa4&#45;&gt;fa5</title>
<path fill="none" stroke="black" d="M26.5,-187.753C26.5,-185.135 26.5,-182.228 26.5,-179.296"/>
<polygon fill="black" stroke="black" points="30.0001,-179.043 26.5,-169.043 23.0001,-179.044 30.0001,-179.043"/>
</g>
<!-- fa6 -->
<g id="node25" class="node"><title>fa6</title>
<ellipse fill="red" stroke="black" stroke-width="0" cx="26.5" cy="-117" rx="11" ry="11"/>
<text text-anchor="middle" x="26.5" y="-113.9" font-family="Times,serif" font-size="12.00">fa6</text>
</g>
<!-- fa5&#45;&gt;fa6 -->
<g id="edge16" class="edge"><title>fa5&#45;&gt;fa6</title>
<path fill="none" stroke="black" d="M26.5,-146.753C26.5,-144.135 26.5,-141.228 26.5,-138.296"/>
<polygon fill="black" stroke="black" points="30.0001,-138.043 26.5,-128.043 23.0001,-138.044 30.0001,-138.043"/>
</g>
<!-- fa6&#45;&gt;featA -->
<g id="edge17" class="edge"><title>fa6&#45;&gt;featA</title>
<path fill="none" stroke="#b0b0b0" stroke-dasharray="5,2" d="M26.5,-105.916C26.5,-86.4907 26.5,-46.556 26.5,-27.5289"/>
</g>
<!-- fa6&#45;&gt;sta5 -->
<g id="edge25" class="edge"><title>fa6&#45;&gt;sta5</title>
<path fill="none" stroke="black" d="M36.0321,-111.012C50.0539,-103.675 76.5013,-89.8365 94.3133,-80.5163"/>
<polygon fill="black" stroke="black" points="95.949,-83.6107 103.187,-75.8733 92.7036,-77.4084 95.949,-83.6107"/>
</g>
<!-- fb2 -->
<g id="node27" class="node"><title>fb2</title>
<ellipse fill="#ee0000" stroke="black" stroke-width="0" cx="198.5" cy="-376" rx="11" ry="11"/>
<text text-anchor="middle" x="198.5" y="-372.9" font-family="Times,serif" font-size="12.00">fb2</text>
</g>
<!-- fb1&#45;&gt;fb2 -->
<g id="edge18" class="edge"><title>fb1&#45;&gt;fb2</title>
<path fill="none" stroke="black" d="M198.5,-405.753C198.5,-403.135 198.5,-400.228 198.5,-397.296"/>
<polygon fill="black" stroke="black" points="202,-397.043 198.5,-387.043 195,-397.044 202,-397.043"/>
</g>
<!-- fb2&#45;&gt;fb3 -->
<g id="edge19" class="edge"><title>fb2&#45;&gt;fb3</title>
<path fill="none" stroke="black" d="M198.5,-364.822C198.5,-356.757 198.5,-345.233 198.5,-335.299"/>
<polygon fill="black" stroke="black" points="202,-335.028 198.5,-325.028 195,-335.028 202,-335.028"/>
</g>
<!-- fb3&#45;&gt;sta3 -->
<g id="edge26" class="edge"><title>fb3&#45;&gt;sta3</title>
<path fill="none" stroke="black" d="M188.968,-308.012C174.946,-300.675 148.499,-286.837 130.687,-277.516"/>
<polygon fill="black" stroke="black" points="132.296,-274.408 121.813,-272.873 129.051,-280.611 132.296,-274.408"/>
</g>
<!-- fb4 -->
<g id="node29" class="node"><title>fb4</title>
<ellipse fill="#ee0000" stroke="black" stroke-width="0" cx="198.5" cy="-230" rx="11" ry="11"/>
<text text-anchor="middle" x="198.5" y="-226.9" font-family="Times,serif" font-size="12.00">fb4</text>
</g>
<!-- fb3&#45;&gt;fb4 -->
<g id="edge20" class="edge"><title>fb3&#45;&gt;fb4</title>
<path fill="none" stroke="black" d="M198.5,-302.671C198.5,-289.573 198.5,-267.722 198.5,-251.395"/>
<polygon fill="black" stroke="black" points="202,-251.149 198.5,-241.149 195,-251.149 202,-251.149"/>
</g>
<!-- fb4&#45;&gt;featB -->
<g id="edge21" class="edge"><title>fb4&#45;&gt;featB</title>
<path fill="none" stroke="#b0b0b0" stroke-dasharray="5,2" d="M198.5,-218.848C198.5,-181.87 198.5,-63.5938 198.5,-27.5354"/>
</g>
</g>
</svg>
