<?xml version="1.0" encoding="UTF-8" standalone="no"?>
<!DOCTYPE svg PUBLIC "-//W3C//DTD SVG 1.1//EN"
 "http://www.w3.org/Graphics/SVG/1.1/DTD/svg11.dtd">
<!-- Generated by graphviz version 2.38.0 (20140413.2041)
 -->
<!-- Title: g Pages: 1 -->
<svg width="1015pt" height="336pt"
 viewBox="0.00 0.00 1014.91 336.00" xmlns="http://www.w3.org/2000/svg" xmlns:xlink="http://www.w3.org/1999/xlink">
<g id="graph0" class="graph" transform="scale(1 1) rotate(0) translate(4 332)">
<title>g</title>
<polygon fill="white" stroke="none" points="-4,4 -4,-332 1010.91,-332 1010.91,4 -4,4"/>
<!-- xsm1 -->
<g id="node1" class="node"><title>xsm1</title>
<ellipse fill="forestgreen" stroke="black" stroke-width="0" cx="628.939" cy="-310" rx="11" ry="11"/>
<text text-anchor="middle" x="628.939" y="-306.9" font-family="Times,serif" font-size="12.00">sha1</text>
</g>
<!-- cma7 -->
<g id="node8" class="node"><title>cma7</title>
<polygon fill="cyan" stroke="black" stroke-width="0" points="634.939,-177 610.939,-177 610.939,-153 634.939,-153 646.939,-165 634.939,-177"/>
<text text-anchor="middle" x="628.939" y="-168.4" font-family="Times,serif" font-size="12.00">tag</text>
<text text-anchor="middle" x="628.939" y="-155.4" font-family="Times,serif" font-size="12.00">1.3.0</text>
</g>
<!-- xsm1&#45;&gt;cma7 -->
<g id="edge33" class="edge"><title>xsm1&#45;&gt;cma7</title>
<path fill="none" stroke="forestgreen" d="M628.939,-298.795C628.939,-273.828 628.939,-213.438 628.939,-183.071"/>
<text text-anchor="middle" x="612.939" y="-244.4" font-family="Times,serif" font-size="12.00">points</text>
<text text-anchor="middle" x="612.939" y="-231.4" font-family="Times,serif" font-size="12.00">to</text>
</g>
<!-- XenserverSpecsTeamX -->
<g id="node26" class="node"><title>XenserverSpecsTeamX</title>
<polygon fill="#caff70" stroke="black" stroke-width="0" points="795.893,-328 706.858,-328 683.954,-292 772.989,-292 795.893,-328"/>
<text text-anchor="middle" x="739.923" y="-313.4" font-family="Times,serif" font-size="12.00">xenserver&#45;specs:</text>
<text text-anchor="middle" x="739.923" y="-300.4" font-family="Times,serif" font-size="12.00">teamX/master</text>
</g>
<!-- xsm1&#45;&gt;XenserverSpecsTeamX -->
<!-- xstx -->
<g id="node2" class="node"><title>xstx</title>
<ellipse fill="forestgreen" stroke="black" stroke-width="0" cx="879.908" cy="-310" rx="11" ry="11"/>
<text text-anchor="middle" x="879.908" y="-306.9" font-family="Times,serif" font-size="12.00">sha1</text>
</g>
<!-- cma9 -->
<g id="node10" class="node"><title>cma9</title>
<ellipse fill="cyan" stroke="black" stroke-width="0" cx="879.908" cy="-165" rx="11" ry="11"/>
<text text-anchor="middle" x="879.908" y="-161.9" font-family="Times,serif" font-size="12.00">sha1</text>
</g>
<!-- xstx&#45;&gt;cma9 -->
<g id="edge34" class="edge"><title>xstx&#45;&gt;cma9</title>
<path fill="none" stroke="forestgreen" d="M879.908,-298.675C879.908,-271.623 879.908,-203.483 879.908,-176.378"/>
<text text-anchor="middle" x="863.908" y="-240.9" font-family="Times,serif" font-size="12.00">pinned</text>
<text text-anchor="middle" x="863.908" y="-227.9" font-family="Times,serif" font-size="12.00">to HEAD</text>
</g>
<!-- xsre -->
<g id="node3" class="node"><title>xsre</title>
<ellipse fill="forestgreen" stroke="black" stroke-width="0" cx="166.969" cy="-310" rx="11" ry="11"/>
<text text-anchor="middle" x="166.969" y="-306.9" font-family="Times,serif" font-size="12.00">sha1</text>
</g>
<!-- cma1 -->
<g id="node4" class="node"><title>cma1</title>
<polygon fill="cyan" stroke="black" stroke-width="0" points="172.969,-177 148.969,-177 148.969,-153 172.969,-153 184.969,-165 172.969,-177"/>
<text text-anchor="middle" x="166.969" y="-168.4" font-family="Times,serif" font-size="12.00">tag</text>
<text text-anchor="middle" x="166.969" y="-155.4" font-family="Times,serif" font-size="12.00">1.0.0</text>
</g>
<!-- xsre&#45;&gt;cma1 -->
<g id="edge32" class="edge"><title>xsre&#45;&gt;cma1</title>
<path fill="none" stroke="forestgreen" d="M166.969,-298.795C166.969,-273.828 166.969,-213.438 166.969,-183.071"/>
<text text-anchor="middle" x="150.969" y="-244.4" font-family="Times,serif" font-size="12.00">points</text>
<text text-anchor="middle" x="150.969" y="-231.4" font-family="Times,serif" font-size="12.00">to</text>
</g>
<!-- XenserverSpecsMaster -->
<g id="node28" class="node"><title>XenserverSpecsMaster</title>
<polygon fill="#caff70" stroke="black" stroke-width="0" points="387.923,-328 298.889,-328 275.985,-292 365.019,-292 387.923,-328"/>
<text text-anchor="middle" x="331.954" y="-313.4" font-family="Times,serif" font-size="12.00">xenserver&#45;specs:</text>
<text text-anchor="middle" x="331.954" y="-300.4" font-family="Times,serif" font-size="12.00">master</text>
</g>
<!-- xsre&#45;&gt;XenserverSpecsMaster -->
<!-- cma4 -->
<g id="node5" class="node"><title>cma4</title>
<polygon fill="cyan" stroke="black" stroke-width="0" points="245.969,-177 221.969,-177 221.969,-153 245.969,-153 257.969,-165 245.969,-177"/>
<text text-anchor="middle" x="239.969" y="-168.4" font-family="Times,serif" font-size="12.00">tag</text>
<text text-anchor="middle" x="239.969" y="-155.4" font-family="Times,serif" font-size="12.00">1.1.0</text>
</g>
<!-- cma1&#45;&gt;cma4 -->
<g id="edge16" class="edge"><title>cma1&#45;&gt;cma4</title>
<path fill="none" stroke="black" d="M185.156,-165C193.18,-165 202.922,-165 211.9,-165"/>
<polygon fill="black" stroke="black" points="211.941,-168.5 221.94,-165 211.94,-161.5 211.941,-168.5"/>
</g>
<!-- cma5 -->
<g id="node6" class="node"><title>cma5</title>
<polygon fill="cyan" stroke="black" stroke-width="0" points="488.939,-177 464.939,-177 464.939,-153 488.939,-153 500.939,-165 488.939,-177"/>
<text text-anchor="middle" x="482.939" y="-168.4" font-family="Times,serif" font-size="12.00">tag</text>
<text text-anchor="middle" x="482.939" y="-155.4" font-family="Times,serif" font-size="12.00">1.2.0</text>
</g>
<!-- cma4&#45;&gt;cma5 -->
<g id="edge17" class="edge"><title>cma4&#45;&gt;cma5</title>
<path fill="none" stroke="black" d="M258.232,-165C300.284,-165 404.201,-165 454.61,-165"/>
<polygon fill="black" stroke="black" points="454.796,-168.5 464.796,-165 454.796,-161.5 454.796,-168.5"/>
</g>
<!-- cma6 -->
<g id="node7" class="node"><title>cma6</title>
<ellipse fill="cyan" stroke="black" stroke-width="0" cx="555.939" cy="-165" rx="11" ry="11"/>
<text text-anchor="middle" x="555.939" y="-168.4" font-family="Times,serif" font-size="12.00">sha1</text>
<text text-anchor="middle" x="555.939" y="-155.4" font-family="Times,serif" font-size="12.00">fix3</text>
</g>
<!-- cma5&#45;&gt;cma6 -->
<g id="edge18" class="edge"><title>cma5&#45;&gt;cma6</title>
<path fill="none" stroke="black" d="M501.126,-165C511.238,-165 524.081,-165 534.684,-165"/>
<polygon fill="black" stroke="black" points="534.714,-168.5 544.714,-165 534.714,-161.5 534.714,-168.5"/>
</g>
<!-- ch1 -->
<g id="node14" class="node"><title>ch1</title>
<polygon fill="cyan" stroke="none" stroke-width="0" points="483.439,-91.5 482.439,-91.5 482.439,-90.5 483.439,-90.5 483.439,-91.5"/>
</g>
<!-- cma5&#45;&gt;ch1 -->
<g id="edge42" class="edge"><title>cma5&#45;&gt;ch1</title>
<path fill="none" stroke="black" d="M482.939,-146.898C482.939,-127.01 482.939,-97.1663 482.939,-91.8311"/>
<text text-anchor="middle" x="466.939" y="-122.65" font-family="Times,serif" font-size="12.00">git</text>
<text text-anchor="middle" x="466.939" y="-109.65" font-family="Times,serif" font-size="12.00">branch</text>
</g>
<!-- cma6&#45;&gt;cma7 -->
<g id="edge19" class="edge"><title>cma6&#45;&gt;cma7</title>
<path fill="none" stroke="black" d="M567.111,-165C575.86,-165 588.89,-165 600.649,-165"/>
<polygon fill="black" stroke="black" points="600.931,-168.5 610.931,-165 600.931,-161.5 600.931,-168.5"/>
</g>
<!-- cma8 -->
<g id="node9" class="node"><title>cma8</title>
<ellipse fill="cyan" stroke="black" stroke-width="0" cx="739.923" cy="-165" rx="11" ry="11"/>
<text text-anchor="middle" x="739.923" y="-168.4" font-family="Times,serif" font-size="12.00">sha1</text>
<text text-anchor="middle" x="739.923" y="-155.4" font-family="Times,serif" font-size="12.00">fix4</text>
</g>
<!-- cma7&#45;&gt;cma8 -->
<g id="edge20" class="edge"><title>cma7&#45;&gt;cma8</title>
<path fill="none" stroke="black" d="M646.968,-165C666.364,-165 698.036,-165 718.68,-165"/>
<polygon fill="black" stroke="black" points="718.866,-168.5 728.866,-165 718.866,-161.5 718.866,-168.5"/>
</g>
<!-- cma8&#45;&gt;cma9 -->
<g id="edge21" class="edge"><title>cma8&#45;&gt;cma9</title>
<path fill="none" stroke="black" d="M751.295,-165C774.081,-165 828.85,-165 858.693,-165"/>
<polygon fill="black" stroke="black" points="858.791,-168.5 868.791,-165 858.791,-161.5 858.791,-168.5"/>
</g>
<!-- ch6 -->
<g id="node18" class="node"><title>ch6</title>
<polygon fill="cyan" stroke="black" stroke-width="0" points="885.908,-103 861.908,-103 861.908,-79 885.908,-79 897.908,-91 885.908,-103"/>
<text text-anchor="middle" x="879.908" y="-94.4" font-family="Times,serif" font-size="12.00">tag</text>
<text text-anchor="middle" x="879.908" y="-81.4" font-family="Times,serif" font-size="12.00">1.2.4</text>
</g>
<!-- cma8&#45;&gt;ch6 -->
<g id="edge41" class="edge"><title>cma8&#45;&gt;ch6</title>
<path fill="none" stroke="black" d="M749.977,-160.145C770.516,-149.13 821.287,-121.902 852.641,-105.087"/>
<polygon fill="black" stroke="black" points="854.535,-108.043 861.694,-100.232 851.227,-101.874 854.535,-108.043"/>
<text text-anchor="middle" x="828.908" y="-142.4" font-family="Times,serif" font-size="12.00">git</text>
<text text-anchor="middle" x="828.908" y="-129.4" font-family="Times,serif" font-size="12.00">merge</text>
</g>
<!-- cf1 -->
<g id="node11" class="node"><title>cf1</title>
<polygon fill="cyan" stroke="none" stroke-width="0" points="240.469,-238.5 239.469,-238.5 239.469,-237.5 240.469,-237.5 240.469,-238.5"/>
</g>
<!-- cf1&#45;&gt;cma4 -->
<g id="edge35" class="edge"><title>cf1&#45;&gt;cma4</title>
<path fill="none" stroke="black" d="M239.969,-237.158C239.969,-231.852 239.969,-202.636 239.969,-183.045"/>
<text text-anchor="middle" x="223.969" y="-213.65" font-family="Times,serif" font-size="12.00">git</text>
<text text-anchor="middle" x="223.969" y="-200.65" font-family="Times,serif" font-size="12.00">branch</text>
</g>
<!-- cf2 -->
<g id="node12" class="node"><title>cf2</title>
<ellipse fill="cyan" stroke="black" stroke-width="0" cx="416.939" cy="-238" rx="11" ry="11"/>
<text text-anchor="middle" x="416.939" y="-234.9" font-family="Times,serif" font-size="12.00">sha1</text>
</g>
<!-- cf1&#45;&gt;cf2 -->
<g id="edge14" class="edge"><title>cf1&#45;&gt;cf2</title>
<path fill="none" stroke="black" d="M241.096,-238C245.255,-238 350.636,-238 395.75,-238"/>
<polygon fill="black" stroke="black" points="395.823,-241.5 405.823,-238 395.823,-234.5 395.823,-241.5"/>
</g>
<!-- cf3 -->
<g id="node13" class="node"><title>cf3</title>
<ellipse fill="cyan" stroke="black" stroke-width="0" cx="482.939" cy="-238" rx="11" ry="11"/>
<text text-anchor="middle" x="482.939" y="-234.9" font-family="Times,serif" font-size="12.00">sha1</text>
</g>
<!-- cf2&#45;&gt;cf3 -->
<g id="edge15" class="edge"><title>cf2&#45;&gt;cf3</title>
<path fill="none" stroke="black" d="M427.939,-238C436.904,-238 450.333,-238 461.557,-238"/>
<polygon fill="black" stroke="black" points="461.798,-241.5 471.798,-238 461.798,-234.5 461.798,-241.5"/>
</g>
<!-- cf3&#45;&gt;cma5 -->
<g id="edge36" class="edge"><title>cf3&#45;&gt;cma5</title>
<path fill="none" stroke="black" d="M482.939,-226.746C482.939,-217.828 482.939,-204.968 482.939,-193.29"/>
<polygon fill="black" stroke="black" points="486.439,-193.045 482.939,-183.045 479.439,-193.045 486.439,-193.045"/>
<text text-anchor="middle" x="466.939" y="-208.4" font-family="Times,serif" font-size="12.00">git</text>
<text text-anchor="middle" x="466.939" y="-195.4" font-family="Times,serif" font-size="12.00">merge</text>
</g>
<!-- ch3 -->
<g id="node15" class="node"><title>ch3</title>
<polygon fill="cyan" stroke="black" stroke-width="0" points="561.939,-103 537.939,-103 537.939,-79 561.939,-79 573.939,-91 561.939,-103"/>
<text text-anchor="middle" x="555.939" y="-94.4" font-family="Times,serif" font-size="12.00">tag</text>
<text text-anchor="middle" x="555.939" y="-81.4" font-family="Times,serif" font-size="12.00">1.2.1</text>
</g>
<!-- ch1&#45;&gt;ch3 -->
<g id="edge22" class="edge"><title>ch1&#45;&gt;ch3</title>
<path fill="none" stroke="black" d="M483.99,-91C485.222,-91 508.323,-91 527.835,-91"/>
<polygon fill="black" stroke="black" points="527.859,-94.5001 537.859,-91 527.859,-87.5001 527.859,-94.5001"/>
</g>
<!-- ch4 -->
<g id="node16" class="node"><title>ch4</title>
<polygon fill="cyan" stroke="black" stroke-width="0" points="634.939,-103 610.939,-103 610.939,-79 634.939,-79 646.939,-91 634.939,-103"/>
<text text-anchor="middle" x="628.939" y="-94.4" font-family="Times,serif" font-size="12.00">tag</text>
<text text-anchor="middle" x="628.939" y="-81.4" font-family="Times,serif" font-size="12.00">1.2.2</text>
</g>
<!-- ch3&#45;&gt;ch4 -->
<g id="edge23" class="edge"><title>ch3&#45;&gt;ch4</title>
<path fill="none" stroke="black" d="M574.126,-91C582.149,-91 591.891,-91 600.87,-91"/>
<polygon fill="black" stroke="black" points="600.91,-94.5001 610.91,-91 600.91,-87.5001 600.91,-94.5001"/>
</g>
<!-- xsh1 -->
<g id="node21" class="node"><title>xsh1</title>
<ellipse fill="green" stroke="black" stroke-width="0" cx="555.939" cy="-18" rx="11" ry="11"/>
<text text-anchor="middle" x="555.939" y="-14.9" font-family="Times,serif" font-size="12.00">sha1</text>
</g>
<!-- ch3&#45;&gt;xsh1 -->
<g id="edge37" class="edge"><title>ch3&#45;&gt;xsh1</title>
<path fill="none" stroke="green" d="M555.939,-72.9814C555.939,-59.2335 555.939,-40.7338 555.939,-29.0871"/>
<text text-anchor="middle" x="539.939" y="-54.4" font-family="Times,serif" font-size="12.00">points</text>
<text text-anchor="middle" x="539.939" y="-41.4" font-family="Times,serif" font-size="12.00">to</text>
</g>
<!-- ch5 -->
<g id="node17" class="node"><title>ch5</title>
<polygon fill="cyan" stroke="black" stroke-width="0" points="745.923,-103 721.923,-103 721.923,-79 745.923,-79 757.923,-91 745.923,-103"/>
<text text-anchor="middle" x="739.923" y="-94.4" font-family="Times,serif" font-size="12.00">tag</text>
<text text-anchor="middle" x="739.923" y="-81.4" font-family="Times,serif" font-size="12.00">1.2.3</text>
</g>
<!-- ch4&#45;&gt;ch5 -->
<g id="edge24" class="edge"><title>ch4&#45;&gt;ch5</title>
<path fill="none" stroke="black" d="M646.968,-91C664.221,-91 691.187,-91 711.465,-91"/>
<polygon fill="black" stroke="black" points="711.654,-94.5001 721.654,-91 711.654,-87.5001 711.654,-94.5001"/>
</g>
<!-- xsh2 -->
<g id="node22" class="node"><title>xsh2</title>
<ellipse fill="green" stroke="black" stroke-width="0" cx="628.939" cy="-18" rx="11" ry="11"/>
<text text-anchor="middle" x="628.939" y="-21.4" font-family="Times,serif" font-size="12.00">sha1</text>
<text text-anchor="middle" x="628.939" y="-8.4" font-family="Times,serif" font-size="12.00">SI</text>
</g>
<!-- ch4&#45;&gt;xsh2 -->
<g id="edge38" class="edge"><title>ch4&#45;&gt;xsh2</title>
<path fill="none" stroke="green" d="M628.939,-72.9814C628.939,-59.2335 628.939,-40.7338 628.939,-29.0871"/>
<text text-anchor="middle" x="612.939" y="-54.4" font-family="Times,serif" font-size="12.00">points</text>
<text text-anchor="middle" x="612.939" y="-41.4" font-family="Times,serif" font-size="12.00">to</text>
</g>
<!-- ch5&#45;&gt;ch6 -->
<g id="edge25" class="edge"><title>ch5&#45;&gt;ch6</title>
<path fill="none" stroke="black" d="M758.12,-91C781.463,-91 823.448,-91 851.25,-91"/>
<polygon fill="black" stroke="black" points="851.494,-94.5001 861.494,-91 851.494,-87.5001 851.494,-94.5001"/>
</g>
<!-- xsh3 -->
<g id="node23" class="node"><title>xsh3</title>
<ellipse fill="green" stroke="black" stroke-width="0" cx="739.923" cy="-18" rx="11" ry="11"/>
<text text-anchor="middle" x="739.923" y="-21.4" font-family="Times,serif" font-size="12.00">sha1</text>
<text text-anchor="middle" x="739.923" y="-8.4" font-family="Times,serif" font-size="12.00">RTW</text>
</g>
<!-- ch5&#45;&gt;xsh3 -->
<g id="edge40" class="edge"><title>ch5&#45;&gt;xsh3</title>
<path fill="none" stroke="green" d="M739.923,-72.9814C739.923,-59.2335 739.923,-40.7338 739.923,-29.0871"/>
<text text-anchor="middle" x="723.923" y="-54.4" font-family="Times,serif" font-size="12.00">points</text>
<text text-anchor="middle" x="723.923" y="-41.4" font-family="Times,serif" font-size="12.00">to</text>
</g>
<!-- ch7 -->
<g id="node19" class="node"><title>ch7</title>
<polygon fill="none" stroke="none" stroke-width="0" points="1006.91,-102 934.908,-102 934.908,-80 1006.91,-80 1006.91,-102"/>
<text text-anchor="middle" x="970.908" y="-113.9" font-family="Times,serif" font-size="12.00">component</text>
<text text-anchor="middle" x="970.908" y="-100.9" font-family="Times,serif" font-size="12.00">LTSR LCM</text>
<text text-anchor="middle" x="970.908" y="-87.9" font-family="Times,serif" font-size="12.00">Branch</text>
<text text-anchor="middle" x="970.908" y="-74.9" font-family="Times,serif" font-size="12.00">Going</text>
<text text-anchor="middle" x="970.908" y="-61.9" font-family="Times,serif" font-size="12.00">Forward</text>
</g>
<!-- ch6&#45;&gt;ch7 -->
<g id="edge26" class="edge"><title>ch6&#45;&gt;ch7</title>
<path fill="none" stroke="black" stroke-dasharray="5,2" d="M898.068,-91C908.474,-91 922.135,-91 934.749,-91"/>
</g>
<!-- xsh4 -->
<g id="node24" class="node"><title>xsh4</title>
<ellipse fill="green" stroke="black" stroke-width="0" cx="879.908" cy="-18" rx="11" ry="11"/>
<text text-anchor="middle" x="879.908" y="-21.4" font-family="Times,serif" font-size="12.00">LCM</text>
<text text-anchor="middle" x="879.908" y="-8.4" font-family="Times,serif" font-size="12.00">Fix</text>
</g>
<!-- ch6&#45;&gt;xsh4 -->
<g id="edge39" class="edge"><title>ch6&#45;&gt;xsh4</title>
<path fill="none" stroke="green" d="M879.908,-72.9814C879.908,-59.2335 879.908,-40.7338 879.908,-29.0871"/>
<text text-anchor="middle" x="863.908" y="-54.4" font-family="Times,serif" font-size="12.00">points</text>
<text text-anchor="middle" x="863.908" y="-41.4" font-family="Times,serif" font-size="12.00">to</text>
</g>
<!-- xsh0 -->
<g id="node20" class="node"><title>xsh0</title>
<polygon fill="green" stroke="none" stroke-width="0" points="203.969,-18.5 202.969,-18.5 202.969,-17.5 203.969,-17.5 203.969,-18.5"/>
</g>
<!-- xsh0&#45;&gt;xsh1 -->
<g id="edge27" class="edge"><title>xsh0&#45;&gt;xsh1</title>
<path fill="none" stroke="black" d="M204.041,-18C217.389,-18 460.658,-18 534.72,-18"/>
<polygon fill="black" stroke="black" points="534.734,-21.5001 544.734,-18 534.734,-14.5001 534.734,-21.5001"/>
</g>
<!-- xsh1&#45;&gt;xsh2 -->
<g id="edge28" class="edge"><title>xsh1&#45;&gt;xsh2</title>
<path fill="none" stroke="black" d="M567.111,-18C577.656,-18 594.421,-18 607.683,-18"/>
<polygon fill="black" stroke="black" points="607.785,-21.5001 617.785,-18 607.785,-14.5001 607.785,-21.5001"/>
</g>
<!-- xsh2&#45;&gt;xsh3 -->
<g id="edge29" class="edge"><title>xsh2&#45;&gt;xsh3</title>
<path fill="none" stroke="black" d="M639.996,-18C657.839,-18 695.347,-18 718.707,-18"/>
<polygon fill="black" stroke="black" points="718.89,-21.5001 728.89,-18 718.89,-14.5001 718.89,-21.5001"/>
</g>
<!-- xsh3&#45;&gt;xsh4 -->
<g id="edge30" class="edge"><title>xsh3&#45;&gt;xsh4</title>
<path fill="none" stroke="black" d="M751.295,-18C774.081,-18 828.85,-18 858.693,-18"/>
<polygon fill="black" stroke="black" points="858.791,-21.5001 868.791,-18 858.791,-14.5001 858.791,-21.5001"/>
</g>
<!-- xsh5 -->
<g id="node25" class="node"><title>xsh5</title>
<polygon fill="none" stroke="none" stroke-width="0" points="1006.91,-29 934.908,-29 934.908,-7 1006.91,-7 1006.91,-29"/>
<text text-anchor="middle" x="970.908" y="-40.9" font-family="Times,serif" font-size="12.00">Specs</text>
<text text-anchor="middle" x="970.908" y="-27.9" font-family="Times,serif" font-size="12.00">LTSR LCM</text>
<text text-anchor="middle" x="970.908" y="-14.9" font-family="Times,serif" font-size="12.00">Branch</text>
<text text-anchor="middle" x="970.908" y="-1.9" font-family="Times,serif" font-size="12.00">Going</text>
<text text-anchor="middle" x="970.908" y="11.1" font-family="Times,serif" font-size="12.00">Forward</text>
</g>
<!-- xsh4&#45;&gt;xsh5 -->
<g id="edge31" class="edge"><title>xsh4&#45;&gt;xsh5</title>
<path fill="none" stroke="black" stroke-dasharray="5,2" d="M891.117,-18C901.802,-18 919.177,-18 934.897,-18"/>
</g>
<!-- XenserverSpecsTeamX&#45;&gt;xstx -->
<g id="edge9" class="edge"><title>XenserverSpecsTeamX&#45;&gt;xstx</title>
<path fill="none" stroke="black" stroke-dasharray="5,2" d="M784.583,-310C814.27,-310 851.224,-310 868.762,-310"/>
</g>
<!-- XenserverSpecsRelEly -->
<g id="node27" class="node"><title>XenserverSpecsRelEly</title>
<polygon fill="#caff70" stroke="black" stroke-width="0" points="111.954,-328 22.9193,-328 0.0153252,-292 89.05,-292 111.954,-328"/>
<text text-anchor="middle" x="55.9847" y="-313.4" font-family="Times,serif" font-size="12.00">xenserver&#45;specs:</text>
<text text-anchor="middle" x="55.9847" y="-300.4" font-family="Times,serif" font-size="12.00">release/ely/master</text>
</g>
<!-- XenserverSpecsRelEly&#45;&gt;xsre -->
<g id="edge5" class="edge"><title>XenserverSpecsRelEly&#45;&gt;xsre</title>
<path fill="none" stroke="black" stroke-dasharray="5,2" d="M100.685,-310C120.82,-310 143.002,-310 155.633,-310"/>
</g>
<!-- ComponentFeat -->
<g id="node29" class="node"><title>ComponentFeat</title>
<polygon fill="#e0eeee" stroke="black" stroke-width="0" points="111.954,-256 22.9193,-256 0.0153252,-220 89.05,-220 111.954,-256"/>
<text text-anchor="middle" x="55.9847" y="-241.4" font-family="Times,serif" font-size="12.00">component:</text>
<text text-anchor="middle" x="55.9847" y="-228.4" font-family="Times,serif" font-size="12.00">feature/REQ&#45;411</text>
</g>
<!-- XenserverSpecsRelEly&#45;&gt;ComponentFeat -->
<!-- XenserverSpecsMaster&#45;&gt;xsm1 -->
<g id="edge7" class="edge"><title>XenserverSpecsMaster&#45;&gt;xsm1</title>
<path fill="none" stroke="black" stroke-dasharray="5,2" d="M376.737,-310C446.901,-310 578.767,-310 617.79,-310"/>
</g>
<!-- ComponentFeat&#45;&gt;cf1 -->
<g id="edge10" class="edge"><title>ComponentFeat&#45;&gt;cf1</title>
<path fill="none" stroke="black" stroke-dasharray="5,2" d="M100.522,-238C152.421,-238 232.068,-238 239.421,-238"/>
</g>
<!-- ComponentMaster -->
<g id="node30" class="node"><title>ComponentMaster</title>
<polygon fill="#e0eeee" stroke="black" stroke-width="0" points="111.954,-183 22.9193,-183 0.0153252,-147 89.05,-147 111.954,-183"/>
<text text-anchor="middle" x="55.9847" y="-168.4" font-family="Times,serif" font-size="12.00">component:</text>
<text text-anchor="middle" x="55.9847" y="-155.4" font-family="Times,serif" font-size="12.00">master</text>
</g>
<!-- ComponentFeat&#45;&gt;ComponentMaster -->
<!-- ComponentMaster&#45;&gt;cma1 -->
<g id="edge11" class="edge"><title>ComponentMaster&#45;&gt;cma1</title>
<path fill="none" stroke="black" stroke-dasharray="5,2" d="M100.685,-165C117.622,-165 136.007,-165 148.939,-165"/>
</g>
<!-- ComponentHonolulu -->
<g id="node31" class="node"><title>ComponentHonolulu</title>
<polygon fill="#e0eeee" stroke="black" stroke-width="0" points="111.954,-109 22.9193,-109 0.0153252,-73 89.05,-73 111.954,-109"/>
<text text-anchor="middle" x="55.9847" y="-94.4" font-family="Times,serif" font-size="12.00">component:</text>
<text text-anchor="middle" x="55.9847" y="-81.4" font-family="Times,serif" font-size="12.00">release/honolulu/master</text>
</g>
<!-- ComponentMaster&#45;&gt;ComponentHonolulu -->
<!-- ComponentHonolulu&#45;&gt;ch1 -->
<g id="edge13" class="edge"><title>ComponentHonolulu&#45;&gt;ch1</title>
<path fill="none" stroke="black" stroke-dasharray="5,2" d="M100.869,-91C207.062,-91 466.07,-91 482.154,-91"/>
</g>
<!-- XSSpecsHonolulu -->
<g id="node32" class="node"><title>XSSpecsHonolulu</title>
<polygon fill="#caff70" stroke="black" stroke-width="0" points="111.954,-36 22.9193,-36 0.0153252,-1.42109e-14 89.05,-3.55271e-15 111.954,-36"/>
<text text-anchor="middle" x="55.9847" y="-21.4" font-family="Times,serif" font-size="12.00">xenserver&#45;specs:</text>
<text text-anchor="middle" x="55.9847" y="-8.4" font-family="Times,serif" font-size="12.00">release/honolulu/master</text>
</g>
<!-- ComponentHonolulu&#45;&gt;XSSpecsHonolulu -->
<!-- XSSpecsHonolulu&#45;&gt;xsh0 -->
<g id="edge12" class="edge"><title>XSSpecsHonolulu&#45;&gt;xsh0</title>
<path fill="none" stroke="black" stroke-dasharray="5,2" d="M100.635,-18C141.331,-18 196.104,-18 202.791,-18"/>
</g>
</g>
</svg>
