<?xml version="1.0" encoding="UTF-8" standalone="no"?>
<!DOCTYPE svg PUBLIC "-//W3C//DTD SVG 1.1//EN"
 "http://www.w3.org/Graphics/SVG/1.1/DTD/svg11.dtd">
<!-- Generated by graphviz version 2.38.0 (20140413.2041)
 -->
<!-- Title: g Pages: 1 -->
<svg width="1050pt" height="340pt"
 viewBox="0.00 0.00 1049.88 340.00" xmlns="http://www.w3.org/2000/svg" xmlns:xlink="http://www.w3.org/1999/xlink">
<g id="graph0" class="graph" transform="scale(1 1) rotate(0) translate(4 336)">
<title>g</title>
<polygon fill="white" stroke="none" points="-4,4 -4,-336 1045.88,-336 1045.88,4 -4,4"/>
<!-- xsm1 -->
<g id="node1" class="node"><title>xsm1</title>
<ellipse fill="forestgreen" stroke="black" stroke-width="0" cx="815.908" cy="-314" rx="11" ry="11"/>
<text text-anchor="middle" x="815.908" y="-310.9" font-family="Times,serif" font-size="12.00">sha1</text>
</g>
<!-- cma7 -->
<g id="node10" class="node"><title>cma7</title>
<polygon fill="cyan" stroke="black" stroke-width="0" points="821.908,-253 797.908,-253 797.908,-229 821.908,-229 833.908,-241 821.908,-253"/>
<text text-anchor="middle" x="815.908" y="-244.4" font-family="Times,serif" font-size="12.00">tag</text>
<text text-anchor="middle" x="815.908" y="-231.4" font-family="Times,serif" font-size="12.00">1.2.0</text>
</g>
<!-- xsm1&#45;&gt;cma7 -->
<g id="edge32" class="edge"><title>xsm1&#45;&gt;cma7</title>
<path fill="none" stroke="forestgreen" d="M815.908,-302.746C815.908,-291.098 815.908,-272.725 815.908,-259.045"/>
<text text-anchor="middle" x="799.908" y="-284.4" font-family="Times,serif" font-size="12.00">points</text>
<text text-anchor="middle" x="799.908" y="-271.4" font-family="Times,serif" font-size="12.00">to</text>
</g>
<!-- XenserverSpecsTeamX -->
<g id="node24" class="node"><title>XenserverSpecsTeamX</title>
<polygon fill="#caff70" stroke="black" stroke-width="0" points="982.862,-332 893.827,-332 870.923,-296 959.958,-296 982.862,-332"/>
<text text-anchor="middle" x="926.893" y="-317.4" font-family="Times,serif" font-size="12.00">xenserver&#45;specs:</text>
<text text-anchor="middle" x="926.893" y="-304.4" font-family="Times,serif" font-size="12.00">teamX/master</text>
</g>
<!-- xsm1&#45;&gt;XenserverSpecsTeamX -->
<!-- xstx -->
<g id="node2" class="node"><title>xstx</title>
<ellipse fill="forestgreen" stroke="black" stroke-width="0" cx="1030.88" cy="-314" rx="11" ry="11"/>
<text text-anchor="middle" x="1030.88" y="-310.9" font-family="Times,serif" font-size="12.00">sha1</text>
</g>
<!-- cma9 -->
<g id="node12" class="node"><title>cma9</title>
<ellipse fill="cyan" stroke="black" stroke-width="0" cx="1030.88" cy="-241" rx="11" ry="11"/>
<text text-anchor="middle" x="1030.88" y="-237.9" font-family="Times,serif" font-size="12.00">sha1</text>
</g>
<!-- xstx&#45;&gt;cma9 -->
<g id="edge33" class="edge"><title>xstx&#45;&gt;cma9</title>
<path fill="none" stroke="forestgreen" d="M1030.88,-302.809C1030.88,-289.04 1030.88,-265.808 1030.88,-252.087"/>
<text text-anchor="middle" x="1014.88" y="-280.9" font-family="Times,serif" font-size="12.00">pinned</text>
<text text-anchor="middle" x="1014.88" y="-267.9" font-family="Times,serif" font-size="12.00">to HEAD</text>
</g>
<!-- xsre -->
<g id="node3" class="node"><title>xsre</title>
<ellipse fill="forestgreen" stroke="black" stroke-width="0" cx="166.969" cy="-314" rx="11" ry="11"/>
<text text-anchor="middle" x="166.969" y="-310.9" font-family="Times,serif" font-size="12.00">sha1</text>
</g>
<!-- cma1 -->
<g id="node4" class="node"><title>cma1</title>
<polygon fill="cyan" stroke="black" stroke-width="0" points="172.969,-253 148.969,-253 148.969,-229 172.969,-229 184.969,-241 172.969,-253"/>
<text text-anchor="middle" x="166.969" y="-244.4" font-family="Times,serif" font-size="12.00">tag</text>
<text text-anchor="middle" x="166.969" y="-231.4" font-family="Times,serif" font-size="12.00">1.0.0</text>
</g>
<!-- xsre&#45;&gt;cma1 -->
<g id="edge31" class="edge"><title>xsre&#45;&gt;cma1</title>
<path fill="none" stroke="forestgreen" d="M166.969,-302.746C166.969,-291.098 166.969,-272.725 166.969,-259.045"/>
<text text-anchor="middle" x="150.969" y="-284.4" font-family="Times,serif" font-size="12.00">points</text>
<text text-anchor="middle" x="150.969" y="-271.4" font-family="Times,serif" font-size="12.00">to</text>
</g>
<!-- XenserverSpecsMaster -->
<g id="node26" class="node"><title>XenserverSpecsMaster</title>
<polygon fill="#caff70" stroke="black" stroke-width="0" points="373.923,-332 284.889,-332 261.985,-296 351.019,-296 373.923,-332"/>
<text text-anchor="middle" x="317.954" y="-317.4" font-family="Times,serif" font-size="12.00">xenserver&#45;specs:</text>
<text text-anchor="middle" x="317.954" y="-304.4" font-family="Times,serif" font-size="12.00">master</text>
</g>
<!-- xsre&#45;&gt;XenserverSpecsMaster -->
<!-- cma2 -->
<g id="node5" class="node"><title>cma2</title>
<ellipse fill="cyan" stroke="black" stroke-width="0" cx="232.969" cy="-241" rx="11" ry="11"/>
<text text-anchor="middle" x="232.969" y="-244.4" font-family="Times,serif" font-size="12.00">sha1</text>
<text text-anchor="middle" x="232.969" y="-231.4" font-family="Times,serif" font-size="12.00">fix1</text>
</g>
<!-- cma1&#45;&gt;cma2 -->
<g id="edge16" class="edge"><title>cma1&#45;&gt;cma2</title>
<path fill="none" stroke="black" d="M185.12,-241C193.256,-241 203.036,-241 211.552,-241"/>
<polygon fill="black" stroke="black" points="211.773,-244.5 221.773,-241 211.773,-237.5 211.773,-244.5"/>
</g>
<!-- clcm1 -->
<g id="node13" class="node"><title>clcm1</title>
<polygon fill="cyan" stroke="none" stroke-width="0" points="167.469,-169.5 166.469,-169.5 166.469,-168.5 167.469,-168.5 167.469,-169.5"/>
</g>
<!-- cma1&#45;&gt;clcm1 -->
<g id="edge34" class="edge"><title>cma1&#45;&gt;clcm1</title>
<path fill="none" stroke="black" d="M166.969,-222.692C166.969,-203.349 166.969,-174.938 166.969,-169.809"/>
<text text-anchor="middle" x="150.969" y="-199.65" font-family="Times,serif" font-size="12.00">git</text>
<text text-anchor="middle" x="150.969" y="-186.65" font-family="Times,serif" font-size="12.00">branch</text>
</g>
<!-- cma3 -->
<g id="node6" class="node"><title>cma3</title>
<ellipse fill="cyan" stroke="black" stroke-width="0" cx="402.939" cy="-241" rx="11" ry="11"/>
<text text-anchor="middle" x="402.939" y="-244.4" font-family="Times,serif" font-size="12.00">sha1</text>
<text text-anchor="middle" x="402.939" y="-231.4" font-family="Times,serif" font-size="12.00">fix2</text>
</g>
<!-- cma2&#45;&gt;cma3 -->
<g id="edge17" class="edge"><title>cma2&#45;&gt;cma3</title>
<path fill="none" stroke="black" d="M243.974,-241C270.867,-241 345.133,-241 381.432,-241"/>
<polygon fill="black" stroke="black" points="381.775,-244.5 391.775,-241 381.774,-237.5 381.775,-244.5"/>
</g>
<!-- clcm1a -->
<g id="node14" class="node"><title>clcm1a</title>
<ellipse fill="cyan" stroke="black" stroke-width="0" cx="232.969" cy="-169" rx="11" ry="11"/>
<text text-anchor="middle" x="232.969" y="-165.9" font-family="Times,serif" font-size="12.00">sha1</text>
</g>
<!-- cma2&#45;&gt;clcm1a -->
<g id="edge35" class="edge"><title>cma2&#45;&gt;clcm1a</title>
<path fill="none" stroke="black" d="M232.969,-229.591C232.969,-219.137 232.969,-203.382 232.969,-190.558"/>
<polygon fill="black" stroke="black" points="236.469,-190.25 232.969,-180.25 229.469,-190.25 236.469,-190.25"/>
<text text-anchor="middle" x="216.969" y="-208.4" font-family="Times,serif" font-size="12.00">pull</text>
<text text-anchor="middle" x="216.969" y="-195.4" font-family="Times,serif" font-size="12.00">request</text>
</g>
<!-- cma4 -->
<g id="node7" class="node"><title>cma4</title>
<polygon fill="cyan" stroke="black" stroke-width="0" points="545.923,-253 521.923,-253 521.923,-229 545.923,-229 557.923,-241 545.923,-253"/>
<text text-anchor="middle" x="539.923" y="-244.4" font-family="Times,serif" font-size="12.00">tag</text>
<text text-anchor="middle" x="539.923" y="-231.4" font-family="Times,serif" font-size="12.00">1.1.0</text>
</g>
<!-- cma3&#45;&gt;cma4 -->
<g id="edge18" class="edge"><title>cma3&#45;&gt;cma4</title>
<path fill="none" stroke="black" d="M414.084,-241C434.507,-241 481.195,-241 511.329,-241"/>
<polygon fill="black" stroke="black" points="511.602,-244.5 521.602,-241 511.602,-237.5 511.602,-244.5"/>
</g>
<!-- clcm1b -->
<g id="node15" class="node"><title>clcm1b</title>
<ellipse fill="cyan" stroke="black" stroke-width="0" cx="402.939" cy="-169" rx="11" ry="11"/>
<text text-anchor="middle" x="402.939" y="-165.9" font-family="Times,serif" font-size="12.00">sha1</text>
</g>
<!-- cma3&#45;&gt;clcm1b -->
<g id="edge36" class="edge"><title>cma3&#45;&gt;clcm1b</title>
<path fill="none" stroke="black" d="M402.939,-229.591C402.939,-219.137 402.939,-203.382 402.939,-190.558"/>
<polygon fill="black" stroke="black" points="406.439,-190.25 402.939,-180.25 399.439,-190.25 406.439,-190.25"/>
<text text-anchor="middle" x="386.939" y="-208.4" font-family="Times,serif" font-size="12.00">pull</text>
<text text-anchor="middle" x="386.939" y="-195.4" font-family="Times,serif" font-size="12.00">request</text>
</g>
<!-- cma5 -->
<g id="node8" class="node"><title>cma5</title>
<ellipse fill="cyan" stroke="black" stroke-width="0" cx="643.908" cy="-241" rx="11" ry="11"/>
<text text-anchor="middle" x="643.908" y="-244.4" font-family="Times,serif" font-size="12.00">sha1</text>
<text text-anchor="middle" x="643.908" y="-231.4" font-family="Times,serif" font-size="12.00">fix3</text>
</g>
<!-- cma4&#45;&gt;cma5 -->
<g id="edge19" class="edge"><title>cma4&#45;&gt;cma5</title>
<path fill="none" stroke="black" d="M558.224,-241C576.002,-241 603.672,-241 622.507,-241"/>
<polygon fill="black" stroke="black" points="622.68,-244.5 632.68,-241 622.68,-237.5 622.68,-244.5"/>
</g>
<!-- cma6 -->
<g id="node9" class="node"><title>cma6</title>
<ellipse fill="cyan" stroke="black" stroke-width="0" cx="742.908" cy="-241" rx="11" ry="11"/>
<text text-anchor="middle" x="742.908" y="-237.9" font-family="Times,serif" font-size="12.00">sha1</text>
</g>
<!-- cma5&#45;&gt;cma6 -->
<g id="edge20" class="edge"><title>cma5&#45;&gt;cma6</title>
<path fill="none" stroke="black" d="M654.923,-241C670.607,-241 701.274,-241 721.681,-241"/>
<polygon fill="black" stroke="black" points="721.802,-244.5 731.802,-241 721.802,-237.5 721.802,-244.5"/>
</g>
<!-- clcm2a -->
<g id="node17" class="node"><title>clcm2a</title>
<ellipse fill="cyan" stroke="black" stroke-width="0" cx="643.908" cy="-169" rx="11" ry="11"/>
<text text-anchor="middle" x="643.908" y="-165.9" font-family="Times,serif" font-size="12.00">sha1</text>
</g>
<!-- cma5&#45;&gt;clcm2a -->
<g id="edge37" class="edge"><title>cma5&#45;&gt;clcm2a</title>
<path fill="none" stroke="black" d="M643.908,-229.591C643.908,-219.137 643.908,-203.382 643.908,-190.558"/>
<polygon fill="black" stroke="black" points="647.408,-190.25 643.908,-180.25 640.408,-190.25 647.408,-190.25"/>
<text text-anchor="middle" x="627.908" y="-208.4" font-family="Times,serif" font-size="12.00">pull</text>
<text text-anchor="middle" x="627.908" y="-195.4" font-family="Times,serif" font-size="12.00">request</text>
</g>
<!-- cma6&#45;&gt;cma7 -->
<g id="edge21" class="edge"><title>cma6&#45;&gt;cma7</title>
<path fill="none" stroke="black" d="M754.081,-241C762.829,-241 775.859,-241 787.618,-241"/>
<polygon fill="black" stroke="black" points="787.9,-244.5 797.9,-241 787.9,-237.5 787.9,-244.5"/>
</g>
<!-- cma8 -->
<g id="node11" class="node"><title>cma8</title>
<ellipse fill="cyan" stroke="black" stroke-width="0" cx="926.893" cy="-241" rx="11" ry="11"/>
<text text-anchor="middle" x="926.893" y="-244.4" font-family="Times,serif" font-size="12.00">sha1</text>
<text text-anchor="middle" x="926.893" y="-231.4" font-family="Times,serif" font-size="12.00">fix4</text>
</g>
<!-- cma7&#45;&gt;cma8 -->
<g id="edge22" class="edge"><title>cma7&#45;&gt;cma8</title>
<path fill="none" stroke="black" d="M833.937,-241C853.334,-241 885.005,-241 905.649,-241"/>
<polygon fill="black" stroke="black" points="905.835,-244.5 915.835,-241 905.835,-237.5 905.835,-244.5"/>
</g>
<!-- cma8&#45;&gt;cma9 -->
<g id="edge23" class="edge"><title>cma8&#45;&gt;cma9</title>
<path fill="none" stroke="black" d="M938.044,-241C954.691,-241 988.096,-241 1009.7,-241"/>
<polygon fill="black" stroke="black" points="1009.77,-244.5 1019.77,-241 1009.77,-237.5 1009.77,-244.5"/>
</g>
<!-- clcm1&#45;&gt;clcm1a -->
<g id="edge24" class="edge"><title>clcm1&#45;&gt;clcm1a</title>
<path fill="none" stroke="black" d="M168.016,-169C169.212,-169 193.319,-169 211.584,-169"/>
<polygon fill="black" stroke="black" points="211.696,-172.5 221.696,-169 211.695,-165.5 211.696,-172.5"/>
</g>
<!-- clcm1a&#45;&gt;clcm1b -->
<g id="edge25" class="edge"><title>clcm1a&#45;&gt;clcm1b</title>
<path fill="none" stroke="black" d="M243.974,-169C270.867,-169 345.133,-169 381.432,-169"/>
<polygon fill="black" stroke="black" points="381.775,-172.5 391.775,-169 381.774,-165.5 381.775,-172.5"/>
</g>
<!-- clcm2 -->
<g id="node16" class="node"><title>clcm2</title>
<polygon fill="cyan" stroke="black" stroke-width="0" points="545.923,-181 521.923,-181 521.923,-157 545.923,-157 557.923,-169 545.923,-181"/>
<text text-anchor="middle" x="539.923" y="-172.4" font-family="Times,serif" font-size="12.00">tag</text>
<text text-anchor="middle" x="539.923" y="-159.4" font-family="Times,serif" font-size="12.00">1.0.1</text>
</g>
<!-- clcm1b&#45;&gt;clcm2 -->
<g id="edge26" class="edge"><title>clcm1b&#45;&gt;clcm2</title>
<path fill="none" stroke="black" d="M414.084,-169C434.507,-169 481.195,-169 511.329,-169"/>
<polygon fill="black" stroke="black" points="511.602,-172.5 521.602,-169 511.602,-165.5 511.602,-172.5"/>
</g>
<!-- upd0 -->
<g id="node19" class="node"><title>upd0</title>
<ellipse fill="green" stroke="black" stroke-width="0" cx="402.939" cy="-92" rx="11" ry="11"/>
<text text-anchor="middle" x="402.939" y="-88.9" font-family="Times,serif" font-size="12.00">sha1</text>
</g>
<!-- clcm1b&#45;&gt;upd0 -->
<g id="edge40" class="edge"><title>clcm1b&#45;&gt;upd0</title>
<path fill="none" stroke="green" d="M402.939,-157.988C402.939,-143.361 402.939,-117.67 402.939,-103.032"/>
<text text-anchor="middle" x="386.939" y="-133.9" font-family="Times,serif" font-size="12.00">points</text>
<text text-anchor="middle" x="386.939" y="-120.9" font-family="Times,serif" font-size="12.00">to</text>
</g>
<!-- clcm2&#45;&gt;clcm2a -->
<g id="edge27" class="edge"><title>clcm2&#45;&gt;clcm2a</title>
<path fill="none" stroke="black" d="M558.224,-169C576.002,-169 603.672,-169 622.507,-169"/>
<polygon fill="black" stroke="black" points="622.68,-172.5 632.68,-169 622.68,-165.5 622.68,-172.5"/>
</g>
<!-- xlcm1 -->
<g id="node22" class="node"><title>xlcm1</title>
<ellipse fill="green" stroke="black" stroke-width="0" cx="539.923" cy="-18" rx="11" ry="11"/>
<text text-anchor="middle" x="539.923" y="-14.9" font-family="Times,serif" font-size="12.00">sha1</text>
</g>
<!-- clcm2&#45;&gt;xlcm1 -->
<g id="edge41" class="edge"><title>clcm2&#45;&gt;xlcm1</title>
<path fill="none" stroke="green" d="M521.836,-157.635C498.799,-143.16 461.939,-120 461.939,-120 461.939,-120 513.917,-52.015 533.003,-27.0518"/>
<text text-anchor="middle" x="448.939" y="-123.4" font-family="Times,serif" font-size="12.00">points</text>
<text text-anchor="middle" x="448.939" y="-110.4" font-family="Times,serif" font-size="12.00">to</text>
</g>
<!-- clcm3 -->
<g id="node18" class="node"><title>clcm3</title>
<polygon fill="cyan" stroke="black" stroke-width="0" points="748.908,-181 724.908,-181 724.908,-157 748.908,-157 760.908,-169 748.908,-181"/>
<text text-anchor="middle" x="742.908" y="-172.4" font-family="Times,serif" font-size="12.00">tag</text>
<text text-anchor="middle" x="742.908" y="-159.4" font-family="Times,serif" font-size="12.00">1.0.2</text>
</g>
<!-- clcm2a&#45;&gt;clcm3 -->
<g id="edge28" class="edge"><title>clcm2a&#45;&gt;clcm3</title>
<path fill="none" stroke="black" d="M654.923,-169C668.874,-169 694.68,-169 714.575,-169"/>
<polygon fill="black" stroke="black" points="714.626,-172.5 724.626,-169 714.626,-165.5 714.626,-172.5"/>
</g>
<!-- upd1 -->
<g id="node20" class="node"><title>upd1</title>
<ellipse fill="green" stroke="black" stroke-width="0" cx="643.908" cy="-92" rx="11" ry="11"/>
<text text-anchor="middle" x="643.908" y="-88.9" font-family="Times,serif" font-size="12.00">sha1</text>
</g>
<!-- clcm2a&#45;&gt;upd1 -->
<g id="edge44" class="edge"><title>clcm2a&#45;&gt;upd1</title>
<path fill="none" stroke="green" d="M643.908,-157.988C643.908,-143.361 643.908,-117.67 643.908,-103.032"/>
<text text-anchor="middle" x="627.908" y="-133.9" font-family="Times,serif" font-size="12.00">points</text>
<text text-anchor="middle" x="627.908" y="-120.9" font-family="Times,serif" font-size="12.00">to</text>
</g>
<!-- xlcm2 -->
<g id="node23" class="node"><title>xlcm2</title>
<ellipse fill="green" stroke="black" stroke-width="0" cx="742.908" cy="-18" rx="11" ry="11"/>
<text text-anchor="middle" x="742.908" y="-14.9" font-family="Times,serif" font-size="12.00">sha1</text>
</g>
<!-- clcm3&#45;&gt;xlcm2 -->
<g id="edge45" class="edge"><title>clcm3&#45;&gt;xlcm2</title>
<path fill="none" stroke="green" d="M742.908,-150.638C742.908,-119.038 742.908,-55.2756 742.908,-29.3495"/>
<text text-anchor="middle" x="726.908" y="-93.4" font-family="Times,serif" font-size="12.00">points</text>
<text text-anchor="middle" x="726.908" y="-80.4" font-family="Times,serif" font-size="12.00">to</text>
</g>
<!-- upd0&#45;&gt;xlcm1 -->
<g id="edge39" class="edge"><title>upd0&#45;&gt;xlcm1</title>
<path fill="none" stroke="black" d="M413.217,-86.9137C435.382,-74.7624 491.732,-43.8709 520.866,-27.8991"/>
<polygon fill="black" stroke="black" points="522.85,-30.8033 529.936,-22.927 519.485,-24.6651 522.85,-30.8033"/>
<text text-anchor="middle" x="448.939" y="-78.4" font-family="Times,serif" font-size="12.00">pull</text>
<text text-anchor="middle" x="448.939" y="-65.4" font-family="Times,serif" font-size="12.00">request</text>
</g>
<!-- XSSpecsUPD2 -->
<g id="node30" class="node"><title>XSSpecsUPD2</title>
<polygon fill="#caff70" stroke="black" stroke-width="0" points="595.893,-110 506.858,-110 483.954,-74 572.989,-74 595.893,-110"/>
<text text-anchor="middle" x="539.923" y="-95.4" font-family="Times,serif" font-size="12.00">xenserver&#45;specs:</text>
<text text-anchor="middle" x="539.923" y="-82.4" font-family="Times,serif" font-size="12.00">release/ely/UPD&#45;124</text>
</g>
<!-- upd0&#45;&gt;XSSpecsUPD2 -->
<!-- upd1&#45;&gt;xlcm2 -->
<g id="edge43" class="edge"><title>upd1&#45;&gt;xlcm2</title>
<path fill="none" stroke="black" d="M653.178,-85.6908C669.213,-73.4577 704.789,-46.3176 725.696,-30.3677"/>
<polygon fill="black" stroke="black" points="727.831,-33.1413 733.659,-24.2932 723.585,-27.5759 727.831,-33.1413"/>
<text text-anchor="middle" x="689.908" y="-87.4" font-family="Times,serif" font-size="12.00">pull</text>
<text text-anchor="middle" x="689.908" y="-74.4" font-family="Times,serif" font-size="12.00">request</text>
</g>
<!-- xlcm0 -->
<g id="node21" class="node"><title>xlcm0</title>
<ellipse fill="green" stroke="black" stroke-width="0" cx="232.969" cy="-18" rx="11" ry="11"/>
<text text-anchor="middle" x="232.969" y="-14.9" font-family="Times,serif" font-size="12.00">sha1</text>
</g>
<!-- xlcm0&#45;&gt;upd0 -->
<g id="edge38" class="edge"><title>xlcm0&#45;&gt;upd0</title>
<path fill="none" stroke="black" d="M243.481,-22.1906C270.39,-34.0452 347.414,-67.979 383.22,-83.7535"/>
<polygon fill="black" stroke="black" points="381.969,-87.0266 392.531,-87.8554 384.791,-80.6207 381.969,-87.0266"/>
</g>
<!-- xlcm0&#45;&gt;xlcm1 -->
<g id="edge29" class="edge"><title>xlcm0&#45;&gt;xlcm1</title>
<path fill="none" stroke="black" d="M244.258,-18C289.577,-18 458.729,-18 518.686,-18"/>
<polygon fill="black" stroke="black" points="518.856,-21.5001 528.856,-18 518.856,-14.5001 518.856,-21.5001"/>
</g>
<!-- xlcm1&#45;&gt;upd1 -->
<g id="edge42" class="edge"><title>xlcm1&#45;&gt;upd1</title>
<path fill="none" stroke="black" d="M549.269,-24.0557C566.077,-36.2517 604.279,-63.971 626.344,-79.9811"/>
<polygon fill="black" stroke="black" points="624.298,-82.8205 634.447,-85.8606 628.409,-77.1549 624.298,-82.8205"/>
</g>
<!-- xlcm1&#45;&gt;xlcm2 -->
<g id="edge30" class="edge"><title>xlcm1&#45;&gt;xlcm2</title>
<path fill="none" stroke="black" d="M551.126,-18C583.627,-18 678.359,-18 721.3,-18"/>
<polygon fill="black" stroke="black" points="721.49,-21.5001 731.49,-18 721.49,-14.5001 721.49,-21.5001"/>
</g>
<!-- XenserverSpecsTeamX&#45;&gt;xstx -->
<g id="edge9" class="edge"><title>XenserverSpecsTeamX&#45;&gt;xstx</title>
<path fill="none" stroke="black" stroke-dasharray="5,2" d="M971.439,-314C989.197,-314 1008.19,-314 1019.54,-314"/>
</g>
<!-- XenserverSpecsRelEly -->
<g id="node25" class="node"><title>XenserverSpecsRelEly</title>
<polygon fill="#caff70" stroke="black" stroke-width="0" points="111.954,-332 22.9193,-332 0.0153252,-296 89.05,-296 111.954,-332"/>
<text text-anchor="middle" x="55.9847" y="-317.4" font-family="Times,serif" font-size="12.00">xenserver&#45;specs:</text>
<text text-anchor="middle" x="55.9847" y="-304.4" font-family="Times,serif" font-size="12.00">release/ely/master</text>
</g>
<!-- XenserverSpecsRelEly&#45;&gt;xsre -->
<g id="edge5" class="edge"><title>XenserverSpecsRelEly&#45;&gt;xsre</title>
<path fill="none" stroke="black" stroke-dasharray="5,2" d="M100.685,-314C120.82,-314 143.002,-314 155.633,-314"/>
</g>
<!-- ComponentMaster -->
<g id="node27" class="node"><title>ComponentMaster</title>
<polygon fill="#e0eeee" stroke="black" stroke-width="0" points="111.954,-259 22.9193,-259 0.0153252,-223 89.05,-223 111.954,-259"/>
<text text-anchor="middle" x="55.9847" y="-244.4" font-family="Times,serif" font-size="12.00">component:</text>
<text text-anchor="middle" x="55.9847" y="-231.4" font-family="Times,serif" font-size="12.00">master</text>
</g>
<!-- XenserverSpecsRelEly&#45;&gt;ComponentMaster -->
<!-- XenserverSpecsMaster&#45;&gt;xsm1 -->
<g id="edge7" class="edge"><title>XenserverSpecsMaster&#45;&gt;xsm1</title>
<path fill="none" stroke="black" stroke-dasharray="5,2" d="M362.582,-314C471.437,-314 745.978,-314 804.732,-314"/>
</g>
<!-- ComponentMaster&#45;&gt;cma1 -->
<g id="edge10" class="edge"><title>ComponentMaster&#45;&gt;cma1</title>
<path fill="none" stroke="black" stroke-dasharray="5,2" d="M100.685,-241C117.622,-241 136.007,-241 148.939,-241"/>
</g>
<!-- ComponentLCM -->
<g id="node28" class="node"><title>ComponentLCM</title>
<polygon fill="#e0eeee" stroke="black" stroke-width="0" points="111.954,-187 22.9193,-187 0.0153252,-151 89.05,-151 111.954,-187"/>
<text text-anchor="middle" x="55.9847" y="-172.4" font-family="Times,serif" font-size="12.00">component:</text>
<text text-anchor="middle" x="55.9847" y="-159.4" font-family="Times,serif" font-size="12.00">ely/lcm</text>
</g>
<!-- ComponentMaster&#45;&gt;ComponentLCM -->
<!-- ComponentLCM&#45;&gt;clcm1 -->
<g id="edge11" class="edge"><title>ComponentLCM&#45;&gt;clcm1</title>
<path fill="none" stroke="black" stroke-dasharray="5,2" d="M100.685,-169C130.058,-169 163.789,-169 165.868,-169"/>
</g>
<!-- XSSpecsUPD1 -->
<g id="node29" class="node"><title>XSSpecsUPD1</title>
<polygon fill="#caff70" stroke="black" stroke-width="0" points="111.954,-110 22.9193,-110 0.0153252,-74 89.05,-74 111.954,-110"/>
<text text-anchor="middle" x="55.9847" y="-95.4" font-family="Times,serif" font-size="12.00">xenserver&#45;specs:</text>
<text text-anchor="middle" x="55.9847" y="-82.4" font-family="Times,serif" font-size="12.00">release/ely/UPD&#45;123</text>
</g>
<!-- ComponentLCM&#45;&gt;XSSpecsUPD1 -->
<!-- XSSpecsUPD1&#45;&gt;upd0 -->
<g id="edge12" class="edge"><title>XSSpecsUPD1&#45;&gt;upd0</title>
<path fill="none" stroke="black" stroke-dasharray="5,2" d="M100.633,-92C181.345,-92 347.294,-92 391.767,-92"/>
</g>
<!-- XSSpecsLCM -->
<g id="node31" class="node"><title>XSSpecsLCM</title>
<polygon fill="#caff70" stroke="black" stroke-width="0" points="111.954,-36 22.9193,-36 0.0153252,-1.42109e-14 89.05,-3.55271e-15 111.954,-36"/>
<text text-anchor="middle" x="55.9847" y="-21.4" font-family="Times,serif" font-size="12.00">xenserver&#45;specs:</text>
<text text-anchor="middle" x="55.9847" y="-8.4" font-family="Times,serif" font-size="12.00">release/ely/lcm</text>
</g>
<!-- XSSpecsUPD1&#45;&gt;XSSpecsLCM -->
<!-- XSSpecsUPD2&#45;&gt;upd1 -->
<g id="edge14" class="edge"><title>XSSpecsUPD2&#45;&gt;upd1</title>
<path fill="none" stroke="black" stroke-dasharray="5,2" d="M584.47,-92C602.227,-92 621.216,-92 632.571,-92"/>
</g>
<!-- XSSpecsLCM&#45;&gt;xlcm0 -->
<g id="edge15" class="edge"><title>XSSpecsLCM&#45;&gt;xlcm0</title>
<path fill="none" stroke="black" stroke-dasharray="5,2" d="M100.645,-18C141.197,-18 198.177,-18 221.915,-18"/>
</g>
</g>
</svg>
