<?xml version="1.0" encoding="UTF-8" standalone="no"?>
<!DOCTYPE svg PUBLIC "-//W3C//DTD SVG 1.1//EN"
 "http://www.w3.org/Graphics/SVG/1.1/DTD/svg11.dtd">
<!-- Generated by graphviz version 2.38.0 (20140413.2041)
 -->
<!-- Title: g Pages: 1 -->
<svg width="889pt" height="340pt"
 viewBox="0.00 0.00 888.91 340.00" xmlns="http://www.w3.org/2000/svg" xmlns:xlink="http://www.w3.org/1999/xlink">
<g id="graph0" class="graph" transform="scale(1 1) rotate(0) translate(4 336)">
<title>g</title>
<polygon fill="white" stroke="none" points="-4,4 -4,-336 884.908,-336 884.908,4 -4,4"/>
<!-- xsm1 -->
<g id="node1" class="node"><title>xsm1</title>
<ellipse fill="forestgreen" stroke="black" stroke-width="0" cx="654.939" cy="-314" rx="11" ry="11"/>
<text text-anchor="middle" x="654.939" y="-310.9" font-family="Times,serif" font-size="12.00">sha1</text>
</g>
<!-- cma6 -->
<g id="node9" class="node"><title>cma6</title>
<polygon fill="cyan" stroke="black" stroke-width="0" points="660.939,-253 636.939,-253 636.939,-229 660.939,-229 672.939,-241 660.939,-253"/>
<text text-anchor="middle" x="654.939" y="-244.4" font-family="Times,serif" font-size="12.00">tag</text>
<text text-anchor="middle" x="654.939" y="-231.4" font-family="Times,serif" font-size="12.00">1.2.0</text>
</g>
<!-- xsm1&#45;&gt;cma6 -->
<g id="edge27" class="edge"><title>xsm1&#45;&gt;cma6</title>
<path fill="none" stroke="forestgreen" d="M654.939,-302.746C654.939,-291.098 654.939,-272.725 654.939,-259.045"/>
<text text-anchor="middle" x="638.939" y="-284.4" font-family="Times,serif" font-size="12.00">points</text>
<text text-anchor="middle" x="638.939" y="-271.4" font-family="Times,serif" font-size="12.00">to</text>
</g>
<!-- XenserverSpecsTeamX -->
<g id="node20" class="node"><title>XenserverSpecsTeamX</title>
<polygon fill="#caff70" stroke="black" stroke-width="0" points="821.893,-332 732.858,-332 709.954,-296 798.989,-296 821.893,-332"/>
<text text-anchor="middle" x="765.923" y="-317.4" font-family="Times,serif" font-size="12.00">xenserver&#45;specs:</text>
<text text-anchor="middle" x="765.923" y="-304.4" font-family="Times,serif" font-size="12.00">teamX/master</text>
</g>
<!-- xsm1&#45;&gt;XenserverSpecsTeamX -->
<!-- xstx -->
<g id="node2" class="node"><title>xstx</title>
<ellipse fill="forestgreen" stroke="black" stroke-width="0" cx="869.908" cy="-314" rx="11" ry="11"/>
<text text-anchor="middle" x="869.908" y="-310.9" font-family="Times,serif" font-size="12.00">sha1</text>
</g>
<!-- cma8 -->
<g id="node11" class="node"><title>cma8</title>
<ellipse fill="cyan" stroke="black" stroke-width="0" cx="869.908" cy="-241" rx="11" ry="11"/>
<text text-anchor="middle" x="869.908" y="-237.9" font-family="Times,serif" font-size="12.00">sha1</text>
</g>
<!-- xstx&#45;&gt;cma8 -->
<g id="edge28" class="edge"><title>xstx&#45;&gt;cma8</title>
<path fill="none" stroke="forestgreen" d="M869.908,-302.809C869.908,-289.04 869.908,-265.808 869.908,-252.087"/>
<text text-anchor="middle" x="853.908" y="-280.9" font-family="Times,serif" font-size="12.00">pinned</text>
<text text-anchor="middle" x="853.908" y="-267.9" font-family="Times,serif" font-size="12.00">to HEAD</text>
</g>
<!-- xsre -->
<g id="node3" class="node"><title>xsre</title>
<ellipse fill="forestgreen" stroke="black" stroke-width="0" cx="166.969" cy="-314" rx="11" ry="11"/>
<text text-anchor="middle" x="166.969" y="-310.9" font-family="Times,serif" font-size="12.00">sha1</text>
</g>
<!-- cma1 -->
<g id="node4" class="node"><title>cma1</title>
<polygon fill="cyan" stroke="black" stroke-width="0" points="172.969,-253 148.969,-253 148.969,-229 172.969,-229 184.969,-241 172.969,-253"/>
<text text-anchor="middle" x="166.969" y="-244.4" font-family="Times,serif" font-size="12.00">tag</text>
<text text-anchor="middle" x="166.969" y="-231.4" font-family="Times,serif" font-size="12.00">1.0.0</text>
</g>
<!-- xsre&#45;&gt;cma1 -->
<g id="edge26" class="edge"><title>xsre&#45;&gt;cma1</title>
<path fill="none" stroke="forestgreen" d="M166.969,-302.746C166.969,-291.098 166.969,-272.725 166.969,-259.045"/>
<text text-anchor="middle" x="150.969" y="-284.4" font-family="Times,serif" font-size="12.00">points</text>
<text text-anchor="middle" x="150.969" y="-271.4" font-family="Times,serif" font-size="12.00">to</text>
</g>
<!-- XenserverSpecsMaster -->
<g id="node22" class="node"><title>XenserverSpecsMaster</title>
<polygon fill="#caff70" stroke="black" stroke-width="0" points="373.923,-332 284.889,-332 261.985,-296 351.019,-296 373.923,-332"/>
<text text-anchor="middle" x="317.954" y="-317.4" font-family="Times,serif" font-size="12.00">xenserver&#45;specs:</text>
<text text-anchor="middle" x="317.954" y="-304.4" font-family="Times,serif" font-size="12.00">master</text>
</g>
<!-- xsre&#45;&gt;XenserverSpecsMaster -->
<!-- cma2 -->
<g id="node5" class="node"><title>cma2</title>
<ellipse fill="cyan" stroke="black" stroke-width="0" cx="232.969" cy="-241" rx="11" ry="11"/>
<text text-anchor="middle" x="232.969" y="-244.4" font-family="Times,serif" font-size="12.00">sha1</text>
<text text-anchor="middle" x="232.969" y="-231.4" font-family="Times,serif" font-size="12.00">fix1</text>
</g>
<!-- cma1&#45;&gt;cma2 -->
<g id="edge14" class="edge"><title>cma1&#45;&gt;cma2</title>
<path fill="none" stroke="black" d="M185.12,-241C193.256,-241 203.036,-241 211.552,-241"/>
<polygon fill="black" stroke="black" points="211.773,-244.5 221.773,-241 211.773,-237.5 211.773,-244.5"/>
</g>
<!-- clcm1 -->
<g id="node12" class="node"><title>clcm1</title>
<polygon fill="cyan" stroke="none" stroke-width="0" points="167.469,-162.5 166.469,-162.5 166.469,-161.5 167.469,-161.5 167.469,-162.5"/>
</g>
<!-- cma1&#45;&gt;clcm1 -->
<g id="edge29" class="edge"><title>cma1&#45;&gt;clcm1</title>
<path fill="none" stroke="black" d="M166.969,-222.652C166.969,-207.191 166.969,-185.598 166.969,-172.782"/>
<polygon fill="black" stroke="black" points="170.469,-172.504 166.969,-162.504 163.469,-172.505 170.469,-172.504"/>
<text text-anchor="middle" x="150.969" y="-196.15" font-family="Times,serif" font-size="12.00">git</text>
<text text-anchor="middle" x="150.969" y="-183.15" font-family="Times,serif" font-size="12.00">branch</text>
</g>
<!-- cma3 -->
<g id="node6" class="node"><title>cma3</title>
<polygon fill="cyan" stroke="black" stroke-width="0" points="415.939,-253 391.939,-253 391.939,-229 415.939,-229 427.939,-241 415.939,-253"/>
<text text-anchor="middle" x="409.939" y="-244.4" font-family="Times,serif" font-size="12.00">tag</text>
<text text-anchor="middle" x="409.939" y="-231.4" font-family="Times,serif" font-size="12.00">1.1.0</text>
</g>
<!-- cma2&#45;&gt;cma3 -->
<g id="edge15" class="edge"><title>cma2&#45;&gt;cma3</title>
<path fill="none" stroke="black" d="M244.133,-241C270.589,-241 342.281,-241 381.832,-241"/>
<polygon fill="black" stroke="black" points="381.841,-244.5 391.841,-241 381.841,-237.5 381.841,-244.5"/>
</g>
<!-- clcm2 -->
<g id="node13" class="node"><title>clcm2</title>
<ellipse fill="cyan" stroke="black" stroke-width="0" cx="232.969" cy="-162" rx="0.5" ry="0.5"/>
</g>
<!-- cma2&#45;&gt;clcm2 -->
<g id="edge30" class="edge"><title>cma2&#45;&gt;clcm2</title>
<path fill="none" stroke="black" d="M232.969,-230C232.969,-212.96 232.969,-180.788 232.969,-167.727"/>
<polygon fill="black" stroke="black" points="227.969,-163.505 237.969,-163.504 237.969,-165.504 227.969,-165.505 227.969,-163.505"/>
<polyline fill="none" stroke="black" points="232.969,-162.504 232.969,-167.504 "/>
<text text-anchor="middle" x="210.469" y="-206.15" font-family="Times,serif" font-size="12.00">pending</text>
<text text-anchor="middle" x="210.469" y="-193.15" font-family="Times,serif" font-size="12.00">pull</text>
<text text-anchor="middle" x="210.469" y="-180.15" font-family="Times,serif" font-size="12.00">request</text>
</g>
<!-- cma4 -->
<g id="node7" class="node"><title>cma4</title>
<ellipse fill="cyan" stroke="black" stroke-width="0" cx="475.939" cy="-241" rx="11" ry="11"/>
<text text-anchor="middle" x="475.939" y="-244.4" font-family="Times,serif" font-size="12.00">sha1</text>
<text text-anchor="middle" x="475.939" y="-231.4" font-family="Times,serif" font-size="12.00">fix2</text>
</g>
<!-- cma3&#45;&gt;cma4 -->
<g id="edge16" class="edge"><title>cma3&#45;&gt;cma4</title>
<path fill="none" stroke="black" d="M428.09,-241C436.225,-241 446.006,-241 454.521,-241"/>
<polygon fill="black" stroke="black" points="454.742,-244.5 464.742,-241 454.742,-237.5 454.742,-244.5"/>
</g>
<!-- clcm3 -->
<g id="node14" class="node"><title>clcm3</title>
<ellipse fill="cyan" stroke="black" stroke-width="0" cx="409.939" cy="-162" rx="0.5" ry="0.5"/>
</g>
<!-- cma3&#45;&gt;clcm3 -->
<g id="edge31" class="edge"><title>cma3&#45;&gt;clcm3</title>
<path fill="none" stroke="black" d="M409.939,-222.652C409.939,-204.813 409.939,-178.809 409.939,-167.544"/>
<polygon fill="black" stroke="black" points="404.939,-163.505 414.939,-163.504 414.939,-165.504 404.939,-165.505 404.939,-163.505"/>
<polyline fill="none" stroke="black" points="409.939,-162.504 409.939,-167.504 "/>
<text text-anchor="middle" x="387.439" y="-202.65" font-family="Times,serif" font-size="12.00">pending</text>
<text text-anchor="middle" x="387.439" y="-189.65" font-family="Times,serif" font-size="12.00">pull</text>
<text text-anchor="middle" x="387.439" y="-176.65" font-family="Times,serif" font-size="12.00">request</text>
</g>
<!-- cma5 -->
<g id="node8" class="node"><title>cma5</title>
<ellipse fill="cyan" stroke="black" stroke-width="0" cx="541.939" cy="-241" rx="11" ry="11"/>
<text text-anchor="middle" x="541.939" y="-237.9" font-family="Times,serif" font-size="12.00">sha1</text>
</g>
<!-- cma4&#45;&gt;cma5 -->
<g id="edge17" class="edge"><title>cma4&#45;&gt;cma5</title>
<path fill="none" stroke="black" d="M486.939,-241C495.904,-241 509.333,-241 520.557,-241"/>
<polygon fill="black" stroke="black" points="520.798,-244.5 530.798,-241 520.798,-237.5 520.798,-244.5"/>
</g>
<!-- clcm4 -->
<g id="node15" class="node"><title>clcm4</title>
<ellipse fill="cyan" stroke="black" stroke-width="0" cx="475.939" cy="-162" rx="11" ry="11"/>
<text text-anchor="middle" x="475.939" y="-158.9" font-family="Times,serif" font-size="12.00">sha1</text>
</g>
<!-- cma4&#45;&gt;clcm4 -->
<g id="edge32" class="edge"><title>cma4&#45;&gt;clcm4</title>
<path fill="none" stroke="black" d="M475.939,-229.702C475.939,-217.743 475.939,-198.576 475.939,-183.684"/>
<polygon fill="black" stroke="black" points="479.439,-183.319 475.939,-173.319 472.439,-183.319 479.439,-183.319"/>
<text text-anchor="middle" x="453.439" y="-211.4" font-family="Times,serif" font-size="12.00">pending</text>
<text text-anchor="middle" x="453.439" y="-198.4" font-family="Times,serif" font-size="12.00">pull</text>
<text text-anchor="middle" x="453.439" y="-185.4" font-family="Times,serif" font-size="12.00">request</text>
</g>
<!-- cma5&#45;&gt;cma6 -->
<g id="edge18" class="edge"><title>cma5&#45;&gt;cma6</title>
<path fill="none" stroke="black" d="M553.182,-241C569.751,-241 602.971,-241 626.738,-241"/>
<polygon fill="black" stroke="black" points="626.899,-244.5 636.899,-241 626.899,-237.5 626.899,-244.5"/>
</g>
<!-- cma7 -->
<g id="node10" class="node"><title>cma7</title>
<ellipse fill="cyan" stroke="black" stroke-width="0" cx="765.923" cy="-241" rx="11" ry="11"/>
<text text-anchor="middle" x="765.923" y="-244.4" font-family="Times,serif" font-size="12.00">sha1</text>
<text text-anchor="middle" x="765.923" y="-231.4" font-family="Times,serif" font-size="12.00">fix3</text>
</g>
<!-- cma6&#45;&gt;cma7 -->
<g id="edge19" class="edge"><title>cma6&#45;&gt;cma7</title>
<path fill="none" stroke="black" d="M672.968,-241C692.364,-241 724.036,-241 744.68,-241"/>
<polygon fill="black" stroke="black" points="744.866,-244.5 754.866,-241 744.866,-237.5 744.866,-244.5"/>
</g>
<!-- cma7&#45;&gt;cma8 -->
<g id="edge20" class="edge"><title>cma7&#45;&gt;cma8</title>
<path fill="none" stroke="black" d="M777.075,-241C793.722,-241 827.127,-241 848.728,-241"/>
<polygon fill="black" stroke="black" points="848.798,-244.5 858.798,-241 848.798,-237.5 848.798,-244.5"/>
</g>
<!-- clcm1&#45;&gt;clcm2 -->
<g id="edge21" class="edge"><title>clcm1&#45;&gt;clcm2</title>
<path fill="none" stroke="black" d="M168.016,-162C169.923,-162 230.046,-162 231.924,-162"/>
</g>
<!-- clcm2&#45;&gt;clcm3 -->
<g id="edge22" class="edge"><title>clcm2&#45;&gt;clcm3</title>
<path fill="none" stroke="black" d="M234.096,-162C239.312,-162 403.681,-162 408.816,-162"/>
</g>
<!-- clcm3&#45;&gt;clcm4 -->
<g id="edge23" class="edge"><title>clcm3&#45;&gt;clcm4</title>
<path fill="none" stroke="black" d="M410.985,-162C412.182,-162 436.288,-162 454.554,-162"/>
<polygon fill="black" stroke="black" points="454.665,-165.5 464.665,-162 454.665,-158.5 454.665,-165.5"/>
</g>
<!-- clcm5 -->
<g id="node16" class="node"><title>clcm5</title>
<polygon fill="cyan" stroke="black" stroke-width="0" points="547.939,-174 523.939,-174 523.939,-150 547.939,-150 559.939,-162 547.939,-174"/>
<text text-anchor="middle" x="541.939" y="-165.4" font-family="Times,serif" font-size="12.00">tag</text>
<text text-anchor="middle" x="541.939" y="-152.4" font-family="Times,serif" font-size="12.00">1.0.1</text>
</g>
<!-- clcm4&#45;&gt;clcm5 -->
<g id="edge24" class="edge"><title>clcm4&#45;&gt;clcm5</title>
<path fill="none" stroke="black" d="M486.939,-162C494.091,-162 504.085,-162 513.533,-162"/>
<polygon fill="black" stroke="black" points="513.788,-165.5 523.788,-162 513.788,-158.5 513.788,-165.5"/>
</g>
<!-- upd1 -->
<g id="node17" class="node"><title>upd1</title>
<ellipse fill="green" stroke="black" stroke-width="0" cx="475.939" cy="-90" rx="11" ry="11"/>
<text text-anchor="middle" x="475.939" y="-86.9" font-family="Times,serif" font-size="12.00">sha1</text>
</g>
<!-- clcm4&#45;&gt;upd1 -->
<g id="edge33" class="edge"><title>clcm4&#45;&gt;upd1</title>
<path fill="none" stroke="green" d="M475.939,-150.591C475.939,-137.074 475.939,-114.697 475.939,-101.25"/>
<text text-anchor="middle" x="466.439" y="-122.9" font-family="Times,serif" font-size="12.00">points to</text>
</g>
<!-- xlcm2 -->
<g id="node19" class="node"><title>xlcm2</title>
<ellipse fill="green" stroke="black" stroke-width="0" cx="654.939" cy="-18" rx="11" ry="11"/>
<text text-anchor="middle" x="654.939" y="-14.9" font-family="Times,serif" font-size="12.00">sha1</text>
</g>
<!-- clcm5&#45;&gt;xlcm2 -->
<g id="edge36" class="edge"><title>clcm5&#45;&gt;xlcm2</title>
<path fill="none" stroke="green" d="M556.997,-143.762C581.265,-112.279 630.094,-48.9334 647.552,-26.2855"/>
<text text-anchor="middle" x="598.439" y="-132.4" font-family="Times,serif" font-size="12.00">points to</text>
</g>
<!-- upd1&#45;&gt;xlcm2 -->
<g id="edge35" class="edge"><title>upd1&#45;&gt;xlcm2</title>
<path fill="none" stroke="black" d="M486.813,-87.1149C501.249,-83.285 524.939,-77 524.939,-77 524.939,-77 598.791,-43.4822 635.168,-26.9729"/>
<polygon fill="black" stroke="black" points="637.078,-29.9496 644.738,-22.6296 634.185,-23.5753 637.078,-29.9496"/>
<text text-anchor="middle" x="541.939" y="-93.4" font-family="Times,serif" font-size="12.00">pull</text>
<text text-anchor="middle" x="541.939" y="-80.4" font-family="Times,serif" font-size="12.00">request</text>
</g>
<!-- xlcm1 -->
<g id="node18" class="node"><title>xlcm1</title>
<ellipse fill="green" stroke="black" stroke-width="0" cx="409.939" cy="-18" rx="11" ry="11"/>
<text text-anchor="middle" x="409.939" y="-14.9" font-family="Times,serif" font-size="12.00">sha1</text>
</g>
<!-- xlcm1&#45;&gt;upd1 -->
<g id="edge34" class="edge"><title>xlcm1&#45;&gt;upd1</title>
<path fill="none" stroke="black" d="M418.032,-25.9804C428.371,-37.6108 447.785,-59.4524 461.035,-74.3578"/>
<polygon fill="black" stroke="black" points="458.748,-77.0539 468.008,-82.2028 463.98,-72.4034 458.748,-77.0539"/>
</g>
<!-- xlcm1&#45;&gt;xlcm2 -->
<g id="edge25" class="edge"><title>xlcm1&#45;&gt;xlcm2</title>
<path fill="none" stroke="black" d="M421.102,-18C459.047,-18 583.472,-18 633.665,-18"/>
<polygon fill="black" stroke="black" points="633.709,-21.5001 643.709,-18 633.709,-14.5001 633.709,-21.5001"/>
</g>
<!-- XenserverSpecsTeamX&#45;&gt;xstx -->
<g id="edge9" class="edge"><title>XenserverSpecsTeamX&#45;&gt;xstx</title>
<path fill="none" stroke="black" stroke-dasharray="5,2" d="M810.47,-314C828.227,-314 847.216,-314 858.571,-314"/>
</g>
<!-- XenserverSpecsRelEly -->
<g id="node21" class="node"><title>XenserverSpecsRelEly</title>
<polygon fill="#caff70" stroke="black" stroke-width="0" points="111.954,-332 22.9193,-332 0.0153252,-296 89.05,-296 111.954,-332"/>
<text text-anchor="middle" x="55.9847" y="-317.4" font-family="Times,serif" font-size="12.00">xenserver&#45;specs:</text>
<text text-anchor="middle" x="55.9847" y="-304.4" font-family="Times,serif" font-size="12.00">release/ely/master</text>
</g>
<!-- XenserverSpecsRelEly&#45;&gt;xsre -->
<g id="edge5" class="edge"><title>XenserverSpecsRelEly&#45;&gt;xsre</title>
<path fill="none" stroke="black" stroke-dasharray="5,2" d="M100.685,-314C120.82,-314 143.002,-314 155.633,-314"/>
</g>
<!-- ComponentMaster -->
<g id="node23" class="node"><title>ComponentMaster</title>
<polygon fill="#e0eeee" stroke="black" stroke-width="0" points="111.954,-259 22.9193,-259 0.0153252,-223 89.05,-223 111.954,-259"/>
<text text-anchor="middle" x="55.9847" y="-244.4" font-family="Times,serif" font-size="12.00">component:</text>
<text text-anchor="middle" x="55.9847" y="-231.4" font-family="Times,serif" font-size="12.00">master</text>
</g>
<!-- XenserverSpecsRelEly&#45;&gt;ComponentMaster -->
<!-- XenserverSpecsMaster&#45;&gt;xsm1 -->
<g id="edge7" class="edge"><title>XenserverSpecsMaster&#45;&gt;xsm1</title>
<path fill="none" stroke="black" stroke-dasharray="5,2" d="M362.703,-314C441.479,-314 600.682,-314 643.9,-314"/>
</g>
<!-- ComponentMaster&#45;&gt;cma1 -->
<g id="edge10" class="edge"><title>ComponentMaster&#45;&gt;cma1</title>
<path fill="none" stroke="black" stroke-dasharray="5,2" d="M100.685,-241C117.622,-241 136.007,-241 148.939,-241"/>
</g>
<!-- ComponentLCM -->
<g id="node24" class="node"><title>ComponentLCM</title>
<polygon fill="#e0eeee" stroke="black" stroke-width="0" points="111.954,-180 22.9193,-180 0.0153252,-144 89.05,-144 111.954,-180"/>
<text text-anchor="middle" x="55.9847" y="-165.4" font-family="Times,serif" font-size="12.00">component:</text>
<text text-anchor="middle" x="55.9847" y="-152.4" font-family="Times,serif" font-size="12.00">ely/lcm</text>
</g>
<!-- ComponentMaster&#45;&gt;ComponentLCM -->
<!-- ComponentLCM&#45;&gt;clcm1 -->
<g id="edge11" class="edge"><title>ComponentLCM&#45;&gt;clcm1</title>
<path fill="none" stroke="black" stroke-dasharray="5,2" d="M100.685,-162C130.058,-162 163.789,-162 165.868,-162"/>
</g>
<!-- XSSpecsUPD2 -->
<g id="node25" class="node"><title>XSSpecsUPD2</title>
<polygon fill="#caff70" stroke="black" stroke-width="0" points="111.954,-108 22.9193,-108 0.0153252,-72 89.05,-72 111.954,-108"/>
<text text-anchor="middle" x="55.9847" y="-93.4" font-family="Times,serif" font-size="12.00">xenserver&#45;specs:</text>
<text text-anchor="middle" x="55.9847" y="-80.4" font-family="Times,serif" font-size="12.00">release/ely/UPD&#45;124</text>
</g>
<!-- ComponentLCM&#45;&gt;XSSpecsUPD2 -->
<!-- XSSpecsUPD2&#45;&gt;upd1 -->
<g id="edge12" class="edge"><title>XSSpecsUPD2&#45;&gt;upd1</title>
<path fill="none" stroke="black" stroke-dasharray="5,2" d="M100.53,-90C195.522,-90 413.53,-90 464.936,-90"/>
</g>
<!-- XSSpecsLCM -->
<g id="node26" class="node"><title>XSSpecsLCM</title>
<polygon fill="#caff70" stroke="black" stroke-width="0" points="111.954,-36 22.9193,-36 0.0153252,-1.42109e-14 89.05,-3.55271e-15 111.954,-36"/>
<text text-anchor="middle" x="55.9847" y="-21.4" font-family="Times,serif" font-size="12.00">xenserver&#45;specs:</text>
<text text-anchor="middle" x="55.9847" y="-8.4" font-family="Times,serif" font-size="12.00">release/ely/lcm</text>
</g>
<!-- XSSpecsUPD2&#45;&gt;XSSpecsLCM -->
<!-- XSSpecsLCM&#45;&gt;xlcm1 -->
<g id="edge13" class="edge"><title>XSSpecsLCM&#45;&gt;xlcm1</title>
<path fill="none" stroke="black" stroke-dasharray="5,2" d="M100.813,-18C183.036,-18 353.673,-18 398.795,-18"/>
</g>
</g>
</svg>
