<?xml version="1.0" encoding="UTF-8" standalone="no"?>
<!DOCTYPE svg PUBLIC "-//W3C//DTD SVG 1.1//EN"
 "http://www.w3.org/Graphics/SVG/1.1/DTD/svg11.dtd">
<!-- Generated by graphviz version 2.38.0 (20140413.2041)
 -->
<!-- Title: g Pages: 1 -->
<svg width="1071pt" height="497pt"
 viewBox="0.00 0.00 1070.91 497.00" xmlns="http://www.w3.org/2000/svg" xmlns:xlink="http://www.w3.org/1999/xlink">
<g id="graph0" class="graph" transform="scale(1 1) rotate(0) translate(4 493)">
<title>g</title>
<polygon fill="white" stroke="none" points="-4,4 -4,-493 1066.91,-493 1066.91,4 -4,4"/>
<!-- xsm1 -->
<g id="node1" class="node"><title>xsm1</title>
<ellipse fill="forestgreen" stroke="black" stroke-width="0" cx="656.939" cy="-471" rx="11" ry="11"/>
<text text-anchor="middle" x="656.939" y="-467.9" font-family="Times,serif" font-size="12.00">sha1</text>
</g>
<!-- cma7 -->
<g id="node8" class="node"><title>cma7</title>
<polygon fill="cyan" stroke="black" stroke-width="0" points="662.939,-338 638.939,-338 638.939,-314 662.939,-314 674.939,-326 662.939,-338"/>
<text text-anchor="middle" x="656.939" y="-329.4" font-family="Times,serif" font-size="12.00">tag</text>
<text text-anchor="middle" x="656.939" y="-316.4" font-family="Times,serif" font-size="12.00">1.3.0</text>
</g>
<!-- xsm1&#45;&gt;cma7 -->
<g id="edge45" class="edge"><title>xsm1&#45;&gt;cma7</title>
<path fill="none" stroke="forestgreen" d="M656.939,-459.795C656.939,-434.828 656.939,-374.438 656.939,-344.071"/>
<text text-anchor="middle" x="640.939" y="-405.4" font-family="Times,serif" font-size="12.00">points</text>
<text text-anchor="middle" x="640.939" y="-392.4" font-family="Times,serif" font-size="12.00">to</text>
</g>
<!-- XenserverSpecsTeamX -->
<g id="node36" class="node"><title>XenserverSpecsTeamX</title>
<polygon fill="#caff70" stroke="black" stroke-width="0" points="851.893,-489 762.858,-489 739.954,-453 828.989,-453 851.893,-489"/>
<text text-anchor="middle" x="795.923" y="-474.4" font-family="Times,serif" font-size="12.00">xenserver&#45;specs:</text>
<text text-anchor="middle" x="795.923" y="-461.4" font-family="Times,serif" font-size="12.00">teamX/master</text>
</g>
<!-- xsm1&#45;&gt;XenserverSpecsTeamX -->
<!-- xstx -->
<g id="node2" class="node"><title>xstx</title>
<ellipse fill="forestgreen" stroke="black" stroke-width="0" cx="935.908" cy="-471" rx="11" ry="11"/>
<text text-anchor="middle" x="935.908" y="-467.9" font-family="Times,serif" font-size="12.00">sha1</text>
</g>
<!-- cma9 -->
<g id="node10" class="node"><title>cma9</title>
<ellipse fill="cyan" stroke="black" stroke-width="0" cx="935.908" cy="-326" rx="11" ry="11"/>
<text text-anchor="middle" x="935.908" y="-322.9" font-family="Times,serif" font-size="12.00">sha1</text>
</g>
<!-- xstx&#45;&gt;cma9 -->
<g id="edge46" class="edge"><title>xstx&#45;&gt;cma9</title>
<path fill="none" stroke="forestgreen" d="M935.908,-459.675C935.908,-432.623 935.908,-364.483 935.908,-337.378"/>
<text text-anchor="middle" x="919.908" y="-401.9" font-family="Times,serif" font-size="12.00">pinned</text>
<text text-anchor="middle" x="919.908" y="-388.9" font-family="Times,serif" font-size="12.00">to HEAD</text>
</g>
<!-- xsre -->
<g id="node3" class="node"><title>xsre</title>
<ellipse fill="forestgreen" stroke="black" stroke-width="0" cx="166.969" cy="-471" rx="11" ry="11"/>
<text text-anchor="middle" x="166.969" y="-467.9" font-family="Times,serif" font-size="12.00">sha1</text>
</g>
<!-- cma1 -->
<g id="node4" class="node"><title>cma1</title>
<polygon fill="cyan" stroke="black" stroke-width="0" points="172.969,-338 148.969,-338 148.969,-314 172.969,-314 184.969,-326 172.969,-338"/>
<text text-anchor="middle" x="166.969" y="-329.4" font-family="Times,serif" font-size="12.00">tag</text>
<text text-anchor="middle" x="166.969" y="-316.4" font-family="Times,serif" font-size="12.00">1.0.0</text>
</g>
<!-- xsre&#45;&gt;cma1 -->
<g id="edge44" class="edge"><title>xsre&#45;&gt;cma1</title>
<path fill="none" stroke="forestgreen" d="M166.969,-459.795C166.969,-434.828 166.969,-374.438 166.969,-344.071"/>
<text text-anchor="middle" x="150.969" y="-405.4" font-family="Times,serif" font-size="12.00">points</text>
<text text-anchor="middle" x="150.969" y="-392.4" font-family="Times,serif" font-size="12.00">to</text>
</g>
<!-- XenserverSpecsMaster -->
<g id="node38" class="node"><title>XenserverSpecsMaster</title>
<polygon fill="#caff70" stroke="black" stroke-width="0" points="387.923,-489 298.889,-489 275.985,-453 365.019,-453 387.923,-489"/>
<text text-anchor="middle" x="331.954" y="-474.4" font-family="Times,serif" font-size="12.00">xenserver&#45;specs:</text>
<text text-anchor="middle" x="331.954" y="-461.4" font-family="Times,serif" font-size="12.00">master</text>
</g>
<!-- xsre&#45;&gt;XenserverSpecsMaster -->
<!-- cma4 -->
<g id="node5" class="node"><title>cma4</title>
<polygon fill="cyan" stroke="black" stroke-width="0" points="245.969,-338 221.969,-338 221.969,-314 245.969,-314 257.969,-326 245.969,-338"/>
<text text-anchor="middle" x="239.969" y="-329.4" font-family="Times,serif" font-size="12.00">tag</text>
<text text-anchor="middle" x="239.969" y="-316.4" font-family="Times,serif" font-size="12.00">1.1.0</text>
</g>
<!-- cma1&#45;&gt;cma4 -->
<g id="edge20" class="edge"><title>cma1&#45;&gt;cma4</title>
<path fill="none" stroke="black" d="M185.156,-326C193.18,-326 202.922,-326 211.9,-326"/>
<polygon fill="black" stroke="black" points="211.941,-329.5 221.94,-326 211.94,-322.5 211.941,-329.5"/>
</g>
<!-- cma5 -->
<g id="node6" class="node"><title>cma5</title>
<polygon fill="cyan" stroke="black" stroke-width="0" points="488.939,-338 464.939,-338 464.939,-314 488.939,-314 500.939,-326 488.939,-338"/>
<text text-anchor="middle" x="482.939" y="-329.4" font-family="Times,serif" font-size="12.00">tag</text>
<text text-anchor="middle" x="482.939" y="-316.4" font-family="Times,serif" font-size="12.00">1.2.0</text>
</g>
<!-- cma4&#45;&gt;cma5 -->
<g id="edge21" class="edge"><title>cma4&#45;&gt;cma5</title>
<path fill="none" stroke="black" d="M258.232,-326C300.284,-326 404.201,-326 454.61,-326"/>
<polygon fill="black" stroke="black" points="454.796,-329.5 464.796,-326 454.796,-322.5 454.796,-329.5"/>
</g>
<!-- cma6 -->
<g id="node7" class="node"><title>cma6</title>
<ellipse fill="cyan" stroke="black" stroke-width="0" cx="583.939" cy="-326" rx="11" ry="11"/>
<text text-anchor="middle" x="583.939" y="-329.4" font-family="Times,serif" font-size="12.00">sha1</text>
<text text-anchor="middle" x="583.939" y="-316.4" font-family="Times,serif" font-size="12.00">fix3</text>
</g>
<!-- cma5&#45;&gt;cma6 -->
<g id="edge22" class="edge"><title>cma5&#45;&gt;cma6</title>
<path fill="none" stroke="black" d="M501.183,-326C518.341,-326 544.657,-326 562.773,-326"/>
<polygon fill="black" stroke="black" points="562.838,-329.5 572.838,-326 562.838,-322.5 562.838,-329.5"/>
</g>
<!-- ch2 -->
<g id="node20" class="node"><title>ch2</title>
<polygon fill="cyan" stroke="black" stroke-width="0" points="488.939,-184 464.939,-184 464.939,-160 488.939,-160 500.939,-172 488.939,-184"/>
<text text-anchor="middle" x="482.939" y="-175.4" font-family="Times,serif" font-size="12.00">tag</text>
<text text-anchor="middle" x="482.939" y="-162.4" font-family="Times,serif" font-size="12.00">1.2.1</text>
</g>
<!-- cma5&#45;&gt;ch2 -->
<g id="edge59" class="edge"><title>cma5&#45;&gt;ch2</title>
<path fill="none" stroke="black" d="M482.939,-307.753C482.939,-281.254 482.939,-231.872 482.939,-200.535"/>
<polygon fill="black" stroke="black" points="486.439,-200.271 482.939,-190.271 479.439,-200.271 486.439,-200.271"/>
<text text-anchor="middle" x="466.939" y="-252.4" font-family="Times,serif" font-size="12.00">pull</text>
<text text-anchor="middle" x="466.939" y="-239.4" font-family="Times,serif" font-size="12.00">request</text>
</g>
<!-- cma6&#45;&gt;cma7 -->
<g id="edge23" class="edge"><title>cma6&#45;&gt;cma7</title>
<path fill="none" stroke="black" d="M595.111,-326C603.86,-326 616.89,-326 628.649,-326"/>
<polygon fill="black" stroke="black" points="628.931,-329.5 638.931,-326 628.931,-322.5 628.931,-329.5"/>
</g>
<!-- clcm3 -->
<g id="node13" class="node"><title>clcm3</title>
<polygon fill="cyan" stroke="black" stroke-width="0" points="589.939,-264 565.939,-264 565.939,-240 589.939,-240 601.939,-252 589.939,-264"/>
<text text-anchor="middle" x="583.939" y="-255.4" font-family="Times,serif" font-size="12.00">tag</text>
<text text-anchor="middle" x="583.939" y="-242.4" font-family="Times,serif" font-size="12.00">1.0.2</text>
</g>
<!-- cma6&#45;&gt;clcm3 -->
<g id="edge49" class="edge"><title>cma6&#45;&gt;clcm3</title>
<path fill="none" stroke="black" d="M583.939,-314.592C583.939,-305.459 583.939,-292.249 583.939,-280.316"/>
<polygon fill="black" stroke="black" points="587.439,-280.292 583.939,-270.292 580.439,-280.292 587.439,-280.292"/>
<text text-anchor="middle" x="567.939" y="-295.9" font-family="Times,serif" font-size="12.00">git</text>
<text text-anchor="middle" x="567.939" y="-282.9" font-family="Times,serif" font-size="12.00">merge</text>
</g>
<!-- cma8 -->
<g id="node9" class="node"><title>cma8</title>
<ellipse fill="cyan" stroke="black" stroke-width="0" cx="795.923" cy="-326" rx="11" ry="11"/>
<text text-anchor="middle" x="795.923" y="-329.4" font-family="Times,serif" font-size="12.00">sha1</text>
<text text-anchor="middle" x="795.923" y="-316.4" font-family="Times,serif" font-size="12.00">fix4</text>
</g>
<!-- cma7&#45;&gt;cma8 -->
<g id="edge24" class="edge"><title>cma7&#45;&gt;cma8</title>
<path fill="none" stroke="black" d="M675.011,-326C700.239,-326 747.4,-326 774.45,-326"/>
<polygon fill="black" stroke="black" points="774.689,-329.5 784.689,-326 774.689,-322.5 774.689,-329.5"/>
</g>
<!-- cma8&#45;&gt;cma9 -->
<g id="edge25" class="edge"><title>cma8&#45;&gt;cma9</title>
<path fill="none" stroke="black" d="M807.295,-326C830.081,-326 884.85,-326 914.693,-326"/>
<polygon fill="black" stroke="black" points="914.791,-329.5 924.791,-326 914.791,-322.5 914.791,-329.5"/>
</g>
<!-- clcm5 -->
<g id="node14" class="node"><title>clcm5</title>
<polygon fill="cyan" stroke="black" stroke-width="0" points="801.923,-264 777.923,-264 777.923,-240 801.923,-240 813.923,-252 801.923,-264"/>
<text text-anchor="middle" x="795.923" y="-255.4" font-family="Times,serif" font-size="12.00">tag</text>
<text text-anchor="middle" x="795.923" y="-242.4" font-family="Times,serif" font-size="12.00">1.0.4</text>
</g>
<!-- cma8&#45;&gt;clcm5 -->
<g id="edge56" class="edge"><title>cma8&#45;&gt;clcm5</title>
<path fill="none" stroke="black" d="M795.923,-314.592C795.923,-305.459 795.923,-292.249 795.923,-280.316"/>
<polygon fill="black" stroke="black" points="799.423,-280.292 795.923,-270.292 792.423,-280.292 799.423,-280.292"/>
<text text-anchor="middle" x="779.923" y="-295.9" font-family="Times,serif" font-size="12.00">git</text>
<text text-anchor="middle" x="779.923" y="-282.9" font-family="Times,serif" font-size="12.00">merge</text>
</g>
<!-- ch6 -->
<g id="node24" class="node"><title>ch6</title>
<polygon fill="cyan" stroke="black" stroke-width="0" points="941.908,-184 917.908,-184 917.908,-160 941.908,-160 953.908,-172 941.908,-184"/>
<text text-anchor="middle" x="935.908" y="-175.4" font-family="Times,serif" font-size="12.00">tag</text>
<text text-anchor="middle" x="935.908" y="-162.4" font-family="Times,serif" font-size="12.00">1.2.5</text>
</g>
<!-- cma8&#45;&gt;ch6 -->
<g id="edge58" class="edge"><title>cma8&#45;&gt;ch6</title>
<path fill="none" stroke="black" d="M803.956,-318.151C823.613,-296.213 879.784,-233.522 911.811,-197.778"/>
<polygon fill="black" stroke="black" points="914.57,-199.943 918.636,-190.16 909.357,-195.272 914.57,-199.943"/>
<text text-anchor="middle" x="884.908" y="-269.4" font-family="Times,serif" font-size="12.00">git</text>
<text text-anchor="middle" x="884.908" y="-256.4" font-family="Times,serif" font-size="12.00">merge</text>
</g>
<!-- clcm1 -->
<g id="node11" class="node"><title>clcm1</title>
<polygon fill="cyan" stroke="none" stroke-width="0" points="167.469,-252.5 166.469,-252.5 166.469,-251.5 167.469,-251.5 167.469,-252.5"/>
</g>
<!-- clcm2 -->
<g id="node12" class="node"><title>clcm2</title>
<polygon fill="cyan" stroke="black" stroke-width="0" points="337.954,-264 313.954,-264 313.954,-240 337.954,-240 349.954,-252 337.954,-264"/>
<text text-anchor="middle" x="331.954" y="-255.4" font-family="Times,serif" font-size="12.00">tag</text>
<text text-anchor="middle" x="331.954" y="-242.4" font-family="Times,serif" font-size="12.00">1.0.1</text>
</g>
<!-- clcm1&#45;&gt;clcm2 -->
<g id="edge26" class="edge"><title>clcm1&#45;&gt;clcm2</title>
<path fill="none" stroke="black" d="M167.705,-252C176.338,-252 258.864,-252 303.544,-252"/>
<polygon fill="black" stroke="black" points="303.762,-255.5 313.762,-252 303.761,-248.5 303.762,-255.5"/>
</g>
<!-- clcm2&#45;&gt;clcm3 -->
<g id="edge27" class="edge"><title>clcm2&#45;&gt;clcm3</title>
<path fill="none" stroke="black" d="M350.076,-252C393.376,-252 503.123,-252 555.403,-252"/>
<polygon fill="black" stroke="black" points="555.642,-255.5 565.642,-252 555.642,-248.5 555.642,-255.5"/>
</g>
<!-- ch1 -->
<g id="node19" class="node"><title>ch1</title>
<polygon fill="cyan" stroke="none" stroke-width="0" points="332.454,-172.5 331.454,-172.5 331.454,-171.5 332.454,-171.5 332.454,-172.5"/>
</g>
<!-- clcm2&#45;&gt;ch1 -->
<g id="edge51" class="edge"><title>clcm2&#45;&gt;ch1</title>
<path fill="none" stroke="black" d="M331.954,-233.803C331.954,-211.798 331.954,-177.115 331.954,-172.511"/>
<text text-anchor="middle" x="315.954" y="-206.65" font-family="Times,serif" font-size="12.00">git</text>
<text text-anchor="middle" x="315.954" y="-193.65" font-family="Times,serif" font-size="12.00">branch</text>
</g>
<!-- xlcm0 -->
<g id="node32" class="node"><title>xlcm0</title>
<ellipse fill="green" stroke="black" stroke-width="0" cx="331.954" cy="-18" rx="11" ry="11"/>
<text text-anchor="middle" x="331.954" y="-14.9" font-family="Times,serif" font-size="12.00">sha1</text>
</g>
<!-- clcm2&#45;&gt;xlcm0 -->
<g id="edge60" class="edge"><title>clcm2&#45;&gt;xlcm0</title>
<path fill="none" stroke="green" d="M320.129,-233.885C298.095,-200.13 252.969,-131 252.969,-131 252.969,-131 306.627,-54.235 325.49,-27.2473"/>
<text text-anchor="middle" x="239.969" y="-134.4" font-family="Times,serif" font-size="12.00">points</text>
<text text-anchor="middle" x="239.969" y="-121.4" font-family="Times,serif" font-size="12.00">to</text>
</g>
<!-- clcm3&#45;&gt;clcm5 -->
<g id="edge28" class="edge"><title>clcm3&#45;&gt;clcm5</title>
<path fill="none" stroke="black" d="M602.012,-252C639.012,-252 723.613,-252 767.831,-252"/>
<polygon fill="black" stroke="black" points="767.895,-255.5 777.895,-252 767.895,-248.5 767.895,-255.5"/>
</g>
<!-- ch3 -->
<g id="node21" class="node"><title>ch3</title>
<polygon fill="cyan" stroke="black" stroke-width="0" points="589.939,-184 565.939,-184 565.939,-160 589.939,-160 601.939,-172 589.939,-184"/>
<text text-anchor="middle" x="583.939" y="-175.4" font-family="Times,serif" font-size="12.00">tag</text>
<text text-anchor="middle" x="583.939" y="-162.4" font-family="Times,serif" font-size="12.00">1.2.2</text>
</g>
<!-- clcm3&#45;&gt;ch3 -->
<g id="edge50" class="edge"><title>clcm3&#45;&gt;ch3</title>
<path fill="none" stroke="black" d="M583.939,-233.919C583.939,-224.009 583.939,-211.504 583.939,-200.33"/>
<polygon fill="black" stroke="black" points="587.439,-200.153 583.939,-190.153 580.439,-200.153 587.439,-200.153"/>
<text text-anchor="middle" x="567.939" y="-215.4" font-family="Times,serif" font-size="12.00">git</text>
<text text-anchor="middle" x="567.939" y="-202.4" font-family="Times,serif" font-size="12.00">merge</text>
</g>
<!-- xlcm1 -->
<g id="node33" class="node"><title>xlcm1</title>
<ellipse fill="green" stroke="black" stroke-width="0" cx="583.939" cy="-18" rx="11" ry="11"/>
<text text-anchor="middle" x="583.939" y="-14.9" font-family="Times,serif" font-size="12.00">sha1</text>
</g>
<!-- clcm3&#45;&gt;xlcm1 -->
<g id="edge61" class="edge"><title>clcm3&#45;&gt;xlcm1</title>
<path fill="none" stroke="green" d="M578.325,-233.885C567.863,-200.13 546.439,-131 546.439,-131 546.439,-131 570.957,-57.1179 580.343,-28.8349"/>
<text text-anchor="middle" x="533.439" y="-134.4" font-family="Times,serif" font-size="12.00">points</text>
<text text-anchor="middle" x="533.439" y="-121.4" font-family="Times,serif" font-size="12.00">to</text>
</g>
<!-- clcm6 -->
<g id="node15" class="node"><title>clcm6</title>
<polygon fill="cyan" stroke="black" stroke-width="0" points="953.908,-244.544 953.908,-259.456 943.364,-270 928.452,-270 917.908,-259.456 917.908,-244.544 928.452,-234 943.364,-234 953.908,-244.544"/>
<text text-anchor="middle" x="935.908" y="-261.9" font-family="Times,serif" font-size="12.00">End</text>
<text text-anchor="middle" x="935.908" y="-248.9" font-family="Times,serif" font-size="12.00">of</text>
<text text-anchor="middle" x="935.908" y="-235.9" font-family="Times,serif" font-size="12.00">Branch</text>
</g>
<!-- clcm5&#45;&gt;clcm6 -->
<g id="edge29" class="edge"><title>clcm5&#45;&gt;clcm6</title>
<path fill="none" stroke="black" stroke-dasharray="5,2" d="M814.12,-252C840.562,-252 890.923,-252 917.494,-252"/>
</g>
<!-- xlcm2 -->
<g id="node34" class="node"><title>xlcm2</title>
<ellipse fill="green" stroke="black" stroke-width="0" cx="795.923" cy="-18" rx="11" ry="11"/>
<text text-anchor="middle" x="795.923" y="-14.9" font-family="Times,serif" font-size="12.00">sha1</text>
</g>
<!-- clcm5&#45;&gt;xlcm2 -->
<g id="edge62" class="edge"><title>clcm5&#45;&gt;xlcm2</title>
<path fill="none" stroke="green" d="M784.623,-233.885C763.565,-200.13 720.439,-131 720.439,-131 720.439,-131 771.718,-54.235 789.746,-27.2473"/>
<text text-anchor="middle" x="707.439" y="-134.4" font-family="Times,serif" font-size="12.00">points</text>
<text text-anchor="middle" x="707.439" y="-121.4" font-family="Times,serif" font-size="12.00">to</text>
</g>
<!-- cf1 -->
<g id="node16" class="node"><title>cf1</title>
<polygon fill="cyan" stroke="none" stroke-width="0" points="240.469,-399.5 239.469,-399.5 239.469,-398.5 240.469,-398.5 240.469,-399.5"/>
</g>
<!-- cf1&#45;&gt;cma4 -->
<g id="edge47" class="edge"><title>cf1&#45;&gt;cma4</title>
<path fill="none" stroke="black" d="M239.969,-398.158C239.969,-392.852 239.969,-363.636 239.969,-344.045"/>
<text text-anchor="middle" x="223.969" y="-374.65" font-family="Times,serif" font-size="12.00">git</text>
<text text-anchor="middle" x="223.969" y="-361.65" font-family="Times,serif" font-size="12.00">branch</text>
</g>
<!-- cf2 -->
<g id="node17" class="node"><title>cf2</title>
<ellipse fill="cyan" stroke="black" stroke-width="0" cx="416.939" cy="-399" rx="11" ry="11"/>
<text text-anchor="middle" x="416.939" y="-395.9" font-family="Times,serif" font-size="12.00">sha1</text>
</g>
<!-- cf1&#45;&gt;cf2 -->
<g id="edge18" class="edge"><title>cf1&#45;&gt;cf2</title>
<path fill="none" stroke="black" d="M241.096,-399C245.255,-399 350.636,-399 395.75,-399"/>
<polygon fill="black" stroke="black" points="395.823,-402.5 405.823,-399 395.823,-395.5 395.823,-402.5"/>
</g>
<!-- cf3 -->
<g id="node18" class="node"><title>cf3</title>
<ellipse fill="cyan" stroke="black" stroke-width="0" cx="482.939" cy="-399" rx="11" ry="11"/>
<text text-anchor="middle" x="482.939" y="-395.9" font-family="Times,serif" font-size="12.00">sha1</text>
</g>
<!-- cf2&#45;&gt;cf3 -->
<g id="edge19" class="edge"><title>cf2&#45;&gt;cf3</title>
<path fill="none" stroke="black" d="M427.939,-399C436.904,-399 450.333,-399 461.557,-399"/>
<polygon fill="black" stroke="black" points="461.798,-402.5 471.798,-399 461.798,-395.5 461.798,-402.5"/>
</g>
<!-- cf3&#45;&gt;cma5 -->
<g id="edge48" class="edge"><title>cf3&#45;&gt;cma5</title>
<path fill="none" stroke="black" d="M482.939,-387.746C482.939,-378.828 482.939,-365.968 482.939,-354.29"/>
<polygon fill="black" stroke="black" points="486.439,-354.045 482.939,-344.045 479.439,-354.045 486.439,-354.045"/>
<text text-anchor="middle" x="466.939" y="-369.4" font-family="Times,serif" font-size="12.00">git</text>
<text text-anchor="middle" x="466.939" y="-356.4" font-family="Times,serif" font-size="12.00">merge</text>
</g>
<!-- ch1&#45;&gt;ch2 -->
<g id="edge30" class="edge"><title>ch1&#45;&gt;ch2</title>
<path fill="none" stroke="black" d="M332.627,-172C340.397,-172 413.56,-172 454.873,-172"/>
<polygon fill="black" stroke="black" points="454.874,-175.5 464.874,-172 454.874,-168.5 454.874,-175.5"/>
</g>
<!-- ch2&#45;&gt;ch3 -->
<g id="edge31" class="edge"><title>ch2&#45;&gt;ch3</title>
<path fill="none" stroke="black" d="M501.183,-172C516.231,-172 538.322,-172 555.749,-172"/>
<polygon fill="black" stroke="black" points="555.892,-175.5 565.892,-172 555.892,-168.5 555.892,-175.5"/>
</g>
<!-- ch4 -->
<g id="node22" class="node"><title>ch4</title>
<polygon fill="cyan" stroke="black" stroke-width="0" points="662.939,-184 638.939,-184 638.939,-160 662.939,-160 674.939,-172 662.939,-184"/>
<text text-anchor="middle" x="656.939" y="-175.4" font-family="Times,serif" font-size="12.00">tag</text>
<text text-anchor="middle" x="656.939" y="-162.4" font-family="Times,serif" font-size="12.00">1.2.3</text>
</g>
<!-- ch3&#45;&gt;ch4 -->
<g id="edge32" class="edge"><title>ch3&#45;&gt;ch4</title>
<path fill="none" stroke="black" d="M602.126,-172C610.149,-172 619.891,-172 628.87,-172"/>
<polygon fill="black" stroke="black" points="628.91,-175.5 638.91,-172 628.91,-168.5 628.91,-175.5"/>
</g>
<!-- xsh1 -->
<g id="node27" class="node"><title>xsh1</title>
<ellipse fill="green" stroke="black" stroke-width="0" cx="583.939" cy="-90" rx="11" ry="11"/>
<text text-anchor="middle" x="583.939" y="-86.9" font-family="Times,serif" font-size="12.00">sha1</text>
</g>
<!-- ch3&#45;&gt;xsh1 -->
<g id="edge53" class="edge"><title>ch3&#45;&gt;xsh1</title>
<path fill="none" stroke="green" d="M583.939,-153.914C583.939,-137.759 583.939,-114.611 583.939,-101.059"/>
<text text-anchor="middle" x="567.939" y="-130.9" font-family="Times,serif" font-size="12.00">points</text>
<text text-anchor="middle" x="567.939" y="-117.9" font-family="Times,serif" font-size="12.00">to</text>
</g>
<!-- ch5 -->
<g id="node23" class="node"><title>ch5</title>
<polygon fill="cyan" stroke="black" stroke-width="0" points="801.923,-184 777.923,-184 777.923,-160 801.923,-160 813.923,-172 801.923,-184"/>
<text text-anchor="middle" x="795.923" y="-175.4" font-family="Times,serif" font-size="12.00">tag</text>
<text text-anchor="middle" x="795.923" y="-162.4" font-family="Times,serif" font-size="12.00">1.2.4</text>
</g>
<!-- ch4&#45;&gt;ch5 -->
<g id="edge33" class="edge"><title>ch4&#45;&gt;ch5</title>
<path fill="none" stroke="black" d="M675.011,-172C698.185,-172 739.865,-172 767.465,-172"/>
<polygon fill="black" stroke="black" points="767.636,-175.5 777.636,-172 767.636,-168.5 767.636,-175.5"/>
</g>
<!-- xsh2 -->
<g id="node28" class="node"><title>xsh2</title>
<ellipse fill="green" stroke="black" stroke-width="0" cx="656.939" cy="-90" rx="11" ry="11"/>
<text text-anchor="middle" x="656.939" y="-93.4" font-family="Times,serif" font-size="12.00">sha1</text>
<text text-anchor="middle" x="656.939" y="-80.4" font-family="Times,serif" font-size="12.00">SI</text>
</g>
<!-- ch4&#45;&gt;xsh2 -->
<g id="edge54" class="edge"><title>ch4&#45;&gt;xsh2</title>
<path fill="none" stroke="green" d="M656.939,-153.914C656.939,-137.759 656.939,-114.611 656.939,-101.059"/>
<text text-anchor="middle" x="640.939" y="-130.9" font-family="Times,serif" font-size="12.00">points</text>
<text text-anchor="middle" x="640.939" y="-117.9" font-family="Times,serif" font-size="12.00">to</text>
</g>
<!-- ch5&#45;&gt;ch6 -->
<g id="edge34" class="edge"><title>ch5&#45;&gt;ch6</title>
<path fill="none" stroke="black" d="M814.12,-172C837.463,-172 879.448,-172 907.25,-172"/>
<polygon fill="black" stroke="black" points="907.494,-175.5 917.494,-172 907.494,-168.5 907.494,-175.5"/>
</g>
<!-- xsh3 -->
<g id="node29" class="node"><title>xsh3</title>
<ellipse fill="green" stroke="black" stroke-width="0" cx="795.923" cy="-90" rx="11" ry="11"/>
<text text-anchor="middle" x="795.923" y="-93.4" font-family="Times,serif" font-size="12.00">sha1</text>
<text text-anchor="middle" x="795.923" y="-80.4" font-family="Times,serif" font-size="12.00">RTW</text>
</g>
<!-- ch5&#45;&gt;xsh3 -->
<g id="edge57" class="edge"><title>ch5&#45;&gt;xsh3</title>
<path fill="none" stroke="green" d="M795.923,-153.914C795.923,-137.759 795.923,-114.611 795.923,-101.059"/>
<text text-anchor="middle" x="779.923" y="-130.9" font-family="Times,serif" font-size="12.00">points</text>
<text text-anchor="middle" x="779.923" y="-117.9" font-family="Times,serif" font-size="12.00">to</text>
</g>
<!-- ch7 -->
<g id="node25" class="node"><title>ch7</title>
<polygon fill="none" stroke="none" stroke-width="0" points="1062.91,-183 990.908,-183 990.908,-161 1062.91,-161 1062.91,-183"/>
<text text-anchor="middle" x="1026.91" y="-194.9" font-family="Times,serif" font-size="12.00">component</text>
<text text-anchor="middle" x="1026.91" y="-181.9" font-family="Times,serif" font-size="12.00">LTSR LCM</text>
<text text-anchor="middle" x="1026.91" y="-168.9" font-family="Times,serif" font-size="12.00">Branch</text>
<text text-anchor="middle" x="1026.91" y="-155.9" font-family="Times,serif" font-size="12.00">Going</text>
<text text-anchor="middle" x="1026.91" y="-142.9" font-family="Times,serif" font-size="12.00">Forward</text>
</g>
<!-- ch6&#45;&gt;ch7 -->
<g id="edge35" class="edge"><title>ch6&#45;&gt;ch7</title>
<path fill="none" stroke="black" stroke-dasharray="5,2" d="M954.068,-172C964.474,-172 978.135,-172 990.749,-172"/>
</g>
<!-- xsh4 -->
<g id="node30" class="node"><title>xsh4</title>
<ellipse fill="green" stroke="black" stroke-width="0" cx="935.908" cy="-90" rx="11" ry="11"/>
<text text-anchor="middle" x="935.908" y="-93.4" font-family="Times,serif" font-size="12.00">LCM</text>
<text text-anchor="middle" x="935.908" y="-80.4" font-family="Times,serif" font-size="12.00">Fix</text>
</g>
<!-- ch6&#45;&gt;xsh4 -->
<g id="edge55" class="edge"><title>ch6&#45;&gt;xsh4</title>
<path fill="none" stroke="green" d="M935.908,-153.914C935.908,-137.759 935.908,-114.611 935.908,-101.059"/>
<text text-anchor="middle" x="919.908" y="-130.9" font-family="Times,serif" font-size="12.00">points</text>
<text text-anchor="middle" x="919.908" y="-117.9" font-family="Times,serif" font-size="12.00">to</text>
</g>
<!-- xsh0 -->
<g id="node26" class="node"><title>xsh0</title>
<polygon fill="green" stroke="none" stroke-width="0" points="332.454,-90.5 331.454,-90.5 331.454,-89.5 332.454,-89.5 332.454,-90.5"/>
</g>
<!-- xsh0&#45;&gt;xsh1 -->
<g id="edge36" class="edge"><title>xsh0&#45;&gt;xsh1</title>
<path fill="none" stroke="black" d="M332.677,-90C344.72,-90 503.958,-90 562.52,-90"/>
<polygon fill="black" stroke="black" points="562.817,-93.5001 572.817,-90 562.817,-86.5001 562.817,-93.5001"/>
</g>
<!-- xsh0&#45;&gt;xlcm0 -->
<g id="edge52" class="edge"><title>xsh0&#45;&gt;xlcm0</title>
<path fill="none" stroke="black" d="M331.954,-89.2874C331.954,-83.7955 331.954,-47.918 331.954,-29.25"/>
<text text-anchor="middle" x="315.954" y="-62.65" font-family="Times,serif" font-size="12.00">git</text>
<text text-anchor="middle" x="315.954" y="-49.65" font-family="Times,serif" font-size="12.00">branch</text>
</g>
<!-- xsh1&#45;&gt;xsh2 -->
<g id="edge37" class="edge"><title>xsh1&#45;&gt;xsh2</title>
<path fill="none" stroke="black" d="M595.111,-90C605.656,-90 622.421,-90 635.683,-90"/>
<polygon fill="black" stroke="black" points="635.785,-93.5001 645.785,-90 635.785,-86.5001 635.785,-93.5001"/>
</g>
<!-- xsh2&#45;&gt;xsh3 -->
<g id="edge38" class="edge"><title>xsh2&#45;&gt;xsh3</title>
<path fill="none" stroke="black" d="M668.235,-90C690.856,-90 745.228,-90 774.855,-90"/>
<polygon fill="black" stroke="black" points="774.88,-93.5001 784.88,-90 774.88,-86.5001 774.88,-93.5001"/>
</g>
<!-- xsh3&#45;&gt;xsh4 -->
<g id="edge39" class="edge"><title>xsh3&#45;&gt;xsh4</title>
<path fill="none" stroke="black" d="M807.295,-90C830.081,-90 884.85,-90 914.693,-90"/>
<polygon fill="black" stroke="black" points="914.791,-93.5001 924.791,-90 914.791,-86.5001 914.791,-93.5001"/>
</g>
<!-- xsh5 -->
<g id="node31" class="node"><title>xsh5</title>
<polygon fill="none" stroke="none" stroke-width="0" points="1062.91,-101 990.908,-101 990.908,-79 1062.91,-79 1062.91,-101"/>
<text text-anchor="middle" x="1026.91" y="-112.9" font-family="Times,serif" font-size="12.00">Specs</text>
<text text-anchor="middle" x="1026.91" y="-99.9" font-family="Times,serif" font-size="12.00">LTSR LCM</text>
<text text-anchor="middle" x="1026.91" y="-86.9" font-family="Times,serif" font-size="12.00">Branch</text>
<text text-anchor="middle" x="1026.91" y="-73.9" font-family="Times,serif" font-size="12.00">Going</text>
<text text-anchor="middle" x="1026.91" y="-60.9" font-family="Times,serif" font-size="12.00">Forward</text>
</g>
<!-- xsh4&#45;&gt;xsh5 -->
<g id="edge40" class="edge"><title>xsh4&#45;&gt;xsh5</title>
<path fill="none" stroke="black" stroke-dasharray="5,2" d="M947.117,-90C957.802,-90 975.177,-90 990.897,-90"/>
</g>
<!-- xlcm0&#45;&gt;xlcm1 -->
<g id="edge41" class="edge"><title>xlcm0&#45;&gt;xlcm1</title>
<path fill="none" stroke="black" d="M343.107,-18C381.892,-18 511.318,-18 562.675,-18"/>
<polygon fill="black" stroke="black" points="562.915,-21.5001 572.915,-18 562.915,-14.5001 562.915,-21.5001"/>
</g>
<!-- xlcm1&#45;&gt;xlcm2 -->
<g id="edge42" class="edge"><title>xlcm1&#45;&gt;xlcm2</title>
<path fill="none" stroke="black" d="M595.037,-18C628.657,-18 729.8,-18 774.399,-18"/>
<polygon fill="black" stroke="black" points="774.679,-21.5001 784.679,-18 774.679,-14.5001 774.679,-21.5001"/>
</g>
<!-- xlcm3 -->
<g id="node35" class="node"><title>xlcm3</title>
<polygon fill="green" stroke="black" stroke-width="0" points="953.908,-10.5442 953.908,-25.4558 943.364,-36 928.452,-36 917.908,-25.4558 917.908,-10.5442 928.452,-3.55271e-15 943.364,-0 953.908,-10.5442"/>
<text text-anchor="middle" x="935.908" y="-27.9" font-family="Times,serif" font-size="12.00">End</text>
<text text-anchor="middle" x="935.908" y="-14.9" font-family="Times,serif" font-size="12.00">of</text>
<text text-anchor="middle" x="935.908" y="-1.9" font-family="Times,serif" font-size="12.00">Branch</text>
</g>
<!-- xlcm2&#45;&gt;xlcm3 -->
<g id="edge43" class="edge"><title>xlcm2&#45;&gt;xlcm3</title>
<path fill="none" stroke="black" stroke-dasharray="5,2" d="M807.295,-18C830.861,-18 888.637,-18 917.668,-18"/>
</g>
<!-- XenserverSpecsTeamX&#45;&gt;xstx -->
<g id="edge11" class="edge"><title>XenserverSpecsTeamX&#45;&gt;xstx</title>
<path fill="none" stroke="black" stroke-dasharray="5,2" d="M840.583,-471C870.27,-471 907.224,-471 924.762,-471"/>
</g>
<!-- XenserverSpecsRelEly -->
<g id="node37" class="node"><title>XenserverSpecsRelEly</title>
<polygon fill="#caff70" stroke="black" stroke-width="0" points="111.954,-489 22.9193,-489 0.0153252,-453 89.05,-453 111.954,-489"/>
<text text-anchor="middle" x="55.9847" y="-474.4" font-family="Times,serif" font-size="12.00">xenserver&#45;specs:</text>
<text text-anchor="middle" x="55.9847" y="-461.4" font-family="Times,serif" font-size="12.00">release/ely/master</text>
</g>
<!-- XenserverSpecsRelEly&#45;&gt;xsre -->
<g id="edge7" class="edge"><title>XenserverSpecsRelEly&#45;&gt;xsre</title>
<path fill="none" stroke="black" stroke-dasharray="5,2" d="M100.685,-471C120.82,-471 143.002,-471 155.633,-471"/>
</g>
<!-- ComponentFeat -->
<g id="node39" class="node"><title>ComponentFeat</title>
<polygon fill="#e0eeee" stroke="black" stroke-width="0" points="111.954,-417 22.9193,-417 0.0153252,-381 89.05,-381 111.954,-417"/>
<text text-anchor="middle" x="55.9847" y="-402.4" font-family="Times,serif" font-size="12.00">component:</text>
<text text-anchor="middle" x="55.9847" y="-389.4" font-family="Times,serif" font-size="12.00">feature/REQ&#45;411</text>
</g>
<!-- XenserverSpecsRelEly&#45;&gt;ComponentFeat -->
<!-- XenserverSpecsMaster&#45;&gt;xsm1 -->
<g id="edge9" class="edge"><title>XenserverSpecsMaster&#45;&gt;xsm1</title>
<path fill="none" stroke="black" stroke-dasharray="5,2" d="M376.801,-471C453.067,-471 603.859,-471 645.854,-471"/>
</g>
<!-- ComponentFeat&#45;&gt;cf1 -->
<g id="edge12" class="edge"><title>ComponentFeat&#45;&gt;cf1</title>
<path fill="none" stroke="black" stroke-dasharray="5,2" d="M100.522,-399C152.421,-399 232.068,-399 239.421,-399"/>
</g>
<!-- ComponentMaster -->
<g id="node40" class="node"><title>ComponentMaster</title>
<polygon fill="#e0eeee" stroke="black" stroke-width="0" points="111.954,-344 22.9193,-344 0.0153252,-308 89.05,-308 111.954,-344"/>
<text text-anchor="middle" x="55.9847" y="-329.4" font-family="Times,serif" font-size="12.00">component:</text>
<text text-anchor="middle" x="55.9847" y="-316.4" font-family="Times,serif" font-size="12.00">master</text>
</g>
<!-- ComponentFeat&#45;&gt;ComponentMaster -->
<!-- ComponentMaster&#45;&gt;cma1 -->
<g id="edge13" class="edge"><title>ComponentMaster&#45;&gt;cma1</title>
<path fill="none" stroke="black" stroke-dasharray="5,2" d="M100.685,-326C117.622,-326 136.007,-326 148.939,-326"/>
</g>
<!-- ComponentLCM -->
<g id="node41" class="node"><title>ComponentLCM</title>
<polygon fill="#e0eeee" stroke="black" stroke-width="0" points="111.954,-270 22.9193,-270 0.0153252,-234 89.05,-234 111.954,-270"/>
<text text-anchor="middle" x="55.9847" y="-255.4" font-family="Times,serif" font-size="12.00">component:</text>
<text text-anchor="middle" x="55.9847" y="-242.4" font-family="Times,serif" font-size="12.00">ely/lcm</text>
</g>
<!-- ComponentMaster&#45;&gt;ComponentLCM -->
<!-- ComponentLCM&#45;&gt;clcm1 -->
<g id="edge14" class="edge"><title>ComponentLCM&#45;&gt;clcm1</title>
<path fill="none" stroke="black" stroke-dasharray="5,2" d="M100.685,-252C130.058,-252 163.789,-252 165.868,-252"/>
</g>
<!-- ComponentHonolulu -->
<g id="node42" class="node"><title>ComponentHonolulu</title>
<polygon fill="#e0eeee" stroke="black" stroke-width="0" points="111.954,-190 22.9193,-190 0.0153252,-154 89.05,-154 111.954,-190"/>
<text text-anchor="middle" x="55.9847" y="-175.4" font-family="Times,serif" font-size="12.00">component:</text>
<text text-anchor="middle" x="55.9847" y="-162.4" font-family="Times,serif" font-size="12.00">release/honolulu/master</text>
</g>
<!-- ComponentLCM&#45;&gt;ComponentHonolulu -->
<!-- ComponentHonolulu&#45;&gt;ch1 -->
<g id="edge17" class="edge"><title>ComponentHonolulu&#45;&gt;ch1</title>
<path fill="none" stroke="black" stroke-dasharray="5,2" d="M100.631,-172C175.685,-172 320.098,-172 331.266,-172"/>
</g>
<!-- XSSpecsHonolulu -->
<g id="node43" class="node"><title>XSSpecsHonolulu</title>
<polygon fill="#caff70" stroke="black" stroke-width="0" points="111.954,-108 22.9193,-108 0.0153252,-72 89.05,-72 111.954,-108"/>
<text text-anchor="middle" x="55.9847" y="-93.4" font-family="Times,serif" font-size="12.00">xenserver&#45;specs:</text>
<text text-anchor="middle" x="55.9847" y="-80.4" font-family="Times,serif" font-size="12.00">release/honolulu/master</text>
</g>
<!-- ComponentHonolulu&#45;&gt;XSSpecsHonolulu -->
<!-- XSSpecsHonolulu&#45;&gt;xsh0 -->
<g id="edge15" class="edge"><title>XSSpecsHonolulu&#45;&gt;xsh0</title>
<path fill="none" stroke="black" stroke-dasharray="5,2" d="M100.631,-90C175.685,-90 320.098,-90 331.266,-90"/>
</g>
<!-- XSSpecsLCM -->
<g id="node44" class="node"><title>XSSpecsLCM</title>
<polygon fill="#caff70" stroke="black" stroke-width="0" points="111.954,-36 22.9193,-36 0.0153252,-1.42109e-14 89.05,-3.55271e-15 111.954,-36"/>
<text text-anchor="middle" x="55.9847" y="-21.4" font-family="Times,serif" font-size="12.00">xenserver&#45;specs:</text>
<text text-anchor="middle" x="55.9847" y="-8.4" font-family="Times,serif" font-size="12.00">release/ely/lcm</text>
</g>
<!-- XSSpecsHonolulu&#45;&gt;XSSpecsLCM -->
<!-- XSSpecsLCM&#45;&gt;xlcm0 -->
<g id="edge16" class="edge"><title>XSSpecsLCM&#45;&gt;xlcm0</title>
<path fill="none" stroke="black" stroke-dasharray="5,2" d="M100.631,-18C166.074,-18 284.252,-18 320.847,-18"/>
</g>
</g>
</svg>
